<svg width="27" height="24" viewBox="0 0 27 24" fill="none" xmlns="http://www.w3.org/2000/svg">
<path fill-rule="evenodd" clip-rule="evenodd" d="M13.7512 14.2483L16.9332 11.0663C17.1285 10.871 17.1285 10.5545 16.9332 10.3592C16.7379 10.1639 16.4214 10.1639 16.2261 10.3592L13.8977 12.6876L13.8977 0H12.8977L12.8977 12.6876L10.5692 10.3592C10.374 10.1639 10.0574 10.1639 9.86213 10.3592C9.66687 10.5545 9.66687 10.871 9.86213 11.0663L13.0441 14.2483C13.2394 14.4436 13.556 14.4436 13.7512 14.2483ZM1.81091 9.51005C1.81091 6.97553 3.86555 4.9209 6.40007 4.9209V3.9209C3.31326 3.9209 0.810913 6.42325 0.810913 9.51005V13.8946C0.810913 19.4029 5.27627 23.8683 10.7846 23.8683H16.0107C21.519 23.8683 25.9844 19.4029 25.9844 13.8946V9.51006C25.9844 6.42325 23.4821 3.9209 20.3953 3.9209V4.9209C22.9298 4.9209 24.9844 6.97553 24.9844 9.51006V13.8946C24.9844 18.8506 20.9668 22.8683 16.0107 22.8683H10.7846C5.82856 22.8683 1.81091 18.8506 1.81091 13.8946V9.51005Z" fill="#002B60"/>
</svg>
