<svg width="242" height="242" viewBox="0 0 242 242" fill="none" xmlns="http://www.w3.org/2000/svg">
<circle cx="120.5" cy="120.5" r="57.5" fill="#002B60"/>
<path d="M209.129 127.437C209.234 126.302 209.435 125.326 209.732 124.51C210.047 123.716 210.428 123.068 210.876 122.568C211.344 122.069 211.839 121.713 212.361 121.5C212.881 121.308 213.41 121.236 213.948 121.286C214.525 121.34 214.981 121.513 215.316 121.805C215.65 122.097 215.887 122.47 216.025 122.925C216.162 123.4 216.206 123.896 216.158 124.414C214.523 124.282 213.223 124.332 212.258 124.564C211.29 124.816 210.589 125.232 210.153 125.815C209.718 126.397 209.461 127.106 209.383 127.943C209.269 129.177 209.514 130.214 210.119 131.054C210.724 131.893 211.704 132.376 213.058 132.502C213.974 132.587 214.739 132.457 215.354 132.113C215.986 131.79 216.568 131.261 217.098 130.527C217.626 129.813 218.182 128.91 218.765 127.82C219.225 126.978 219.696 126.229 220.179 125.571C220.66 124.932 221.171 124.397 221.713 123.966C222.276 123.536 222.887 123.221 223.549 123.021C224.228 122.843 224.976 122.792 225.792 122.868C227.007 122.981 228.016 123.366 228.819 124.023C229.639 124.702 230.229 125.6 230.587 126.718C230.965 127.838 231.086 129.135 230.949 130.608C230.835 131.843 230.578 132.884 230.178 133.73C229.798 134.579 229.327 135.218 228.765 135.648C228.203 136.078 227.603 136.263 226.966 136.204C226.308 136.143 225.787 135.813 225.4 135.215C225.032 134.638 224.896 133.832 224.992 132.797C226.824 132.967 228.202 132.834 229.126 132.397C230.049 131.981 230.565 131.175 230.676 129.98C230.734 129.363 230.668 128.774 230.479 128.214C230.289 127.655 229.932 127.179 229.406 126.789C228.897 126.421 228.185 126.194 227.269 126.109C226.433 126.031 225.7 126.134 225.071 126.417C224.461 126.722 223.881 127.23 223.333 127.943C222.785 128.655 222.184 129.613 221.53 130.818C220.899 131.985 220.267 132.96 219.631 133.745C218.994 134.55 218.277 135.136 217.48 135.504C216.702 135.873 215.776 136.008 214.7 135.908C213.446 135.792 212.369 135.381 211.471 134.674C210.592 133.97 209.938 133.006 209.509 131.781C209.101 130.558 208.974 129.11 209.129 127.437Z" fill="#D5A459"/>
<path d="M205.34 147.391C206.024 145.279 207.03 143.671 208.355 142.566C209.681 141.462 211.247 140.814 213.054 140.623C214.855 140.451 216.811 140.707 218.923 141.393C221.034 142.079 222.759 143.017 224.096 144.209C225.428 145.419 226.296 146.858 226.702 148.524C227.12 150.216 226.987 152.118 226.302 154.23C225.648 156.246 224.658 157.807 223.333 158.912C222.026 160.022 220.467 160.683 218.653 160.893C216.859 161.11 214.906 160.875 212.795 160.189C210.683 159.504 208.955 158.543 207.611 157.307C206.286 156.078 205.414 154.617 204.995 152.925C204.571 151.252 204.685 149.407 205.34 147.391ZM205.616 147.512C205.326 148.406 205.266 149.239 205.437 150.009C205.62 150.804 206.053 151.544 206.735 152.228C207.436 152.919 208.4 153.579 209.625 154.208C210.851 154.837 212.358 155.442 214.146 156.023C215.934 156.604 217.499 156.996 218.842 157.201C220.203 157.412 221.361 157.441 222.314 157.288C223.287 157.141 224.068 156.806 224.659 156.283C225.268 155.766 225.721 155.05 226.017 154.137C226.313 153.224 226.369 152.37 226.186 151.574C226.021 150.785 225.592 150.035 224.897 149.326C224.214 148.642 223.26 147.985 222.035 147.356C220.822 146.752 219.322 146.159 217.534 145.579C215.745 144.998 214.174 144.593 212.819 144.363C211.457 144.152 210.29 144.12 209.317 144.267C208.358 144.439 207.573 144.783 206.964 145.3C206.367 145.843 205.918 146.58 205.616 147.512Z" fill="#D5A459"/>
<path d="M196.208 167.395C197.392 165.517 198.762 164.206 200.319 163.463C201.876 162.719 203.553 162.477 205.352 162.738C207.139 163.015 208.972 163.747 210.849 164.932C212.726 166.117 214.166 167.452 215.168 168.937C216.16 170.439 216.647 172.047 216.629 173.763C216.617 175.506 216.019 177.316 214.835 179.194C213.704 180.987 212.36 182.255 210.803 182.999C209.264 183.753 207.589 184.009 205.78 183.765C203.988 183.532 202.154 182.823 200.277 181.638C198.399 180.452 196.962 179.095 195.964 177.566C194.983 176.047 194.498 174.417 194.51 172.674C194.511 170.947 195.077 169.188 196.208 167.395ZM196.445 167.58C195.944 168.375 195.681 169.167 195.656 169.956C195.638 170.772 195.875 171.596 196.367 172.428C196.877 173.27 197.647 174.147 198.68 175.059C199.713 175.971 201.024 176.929 202.613 177.933C204.203 178.937 205.623 179.704 206.873 180.233C208.14 180.773 209.255 181.087 210.217 181.174C211.196 181.271 212.035 181.139 212.736 180.778C213.454 180.427 214.069 179.846 214.581 179.034C215.094 178.222 215.359 177.407 215.377 176.591C215.412 175.785 215.181 174.953 214.682 174.094C214.19 173.263 213.427 172.391 212.395 171.479C211.368 170.594 210.06 169.65 208.471 168.646C206.881 167.642 205.458 166.862 204.202 166.305C202.934 165.765 201.811 165.446 200.832 165.348C199.86 165.278 199.015 165.418 198.297 165.769C197.585 166.148 196.968 166.751 196.445 167.58Z" fill="#D5A459"/>
<path d="M190.211 177.595L190.417 177.814L189.348 178.823C189.072 179.084 188.873 179.354 188.752 179.633C188.616 179.927 188.593 180.223 188.683 180.523C188.773 180.851 189.003 181.211 189.373 181.604L200.94 193.871C201.296 194.25 201.622 194.478 201.917 194.558C202.211 194.665 202.501 194.653 202.788 194.519C203.074 194.414 203.355 194.232 203.631 193.971L204.7 192.962L204.906 193.18L199.867 197.937L180.564 193.427L190.361 203.817C190.718 204.195 191.05 204.432 191.359 204.525C191.667 204.619 191.957 204.607 192.23 204.487C192.516 204.382 192.797 204.199 193.073 203.938L194.316 202.765L194.522 202.983L189.09 208.111L188.885 207.893L190.128 206.719C190.404 206.458 190.603 206.188 190.724 205.908C190.831 205.642 190.84 205.345 190.75 205.017C190.675 204.704 190.452 204.35 190.081 203.958L176.992 190.076L178.06 189.066L201.092 194.47L189.155 181.81C188.785 181.417 188.438 181.167 188.116 181.058C187.808 180.964 187.511 180.97 187.225 181.075C186.939 181.18 186.658 181.363 186.381 181.624L184.985 182.942L184.779 182.723L190.211 177.595Z" fill="#D5A459"/>
<path d="M160.747 199.986C161.774 199.491 162.714 199.161 163.566 198.994C164.409 198.855 165.16 198.848 165.82 198.974C166.489 199.119 167.048 199.36 167.499 199.697C167.932 200.044 168.266 200.46 168.5 200.947C168.751 201.47 168.838 201.95 168.76 202.387C168.682 202.824 168.483 203.219 168.165 203.572C167.828 203.934 167.426 204.228 166.957 204.454C166.229 202.984 165.516 201.896 164.821 201.187C164.107 200.488 163.388 200.101 162.665 200.028C161.942 199.954 161.202 200.1 160.445 200.464C159.327 201.002 158.565 201.747 158.157 202.698C157.749 203.649 157.84 204.738 158.429 205.963C158.828 206.792 159.333 207.382 159.945 207.731C160.547 208.107 161.3 208.333 162.202 208.409C163.086 208.493 164.146 208.505 165.381 208.443C166.338 208.403 167.223 208.421 168.036 208.496C168.831 208.579 169.553 208.742 170.202 208.984C170.86 209.245 171.445 209.607 171.956 210.071C172.459 210.562 172.887 211.176 173.243 211.915C173.772 213.015 173.961 214.078 173.811 215.105C173.652 216.158 173.186 217.126 172.412 218.009C171.647 218.91 170.598 219.682 169.265 220.324C168.147 220.862 167.123 221.178 166.191 221.271C165.269 221.383 164.478 221.308 163.82 221.048C163.162 220.788 162.695 220.369 162.417 219.792C162.131 219.198 162.145 218.581 162.459 217.941C162.764 217.328 163.384 216.796 164.321 216.345C165.119 218.003 165.943 219.116 166.792 219.683C167.624 220.259 168.581 220.287 169.662 219.767C170.221 219.497 170.691 219.138 171.074 218.687C171.456 218.237 171.679 217.685 171.743 217.033C171.797 216.407 171.625 215.68 171.226 214.851C170.862 214.094 170.397 213.519 169.83 213.126C169.255 212.759 168.52 212.525 167.628 212.422C166.735 212.319 165.604 212.298 164.234 212.358C162.91 212.419 161.748 212.379 160.748 212.239C159.731 212.107 158.859 211.794 158.133 211.3C157.416 210.824 156.823 210.1 156.355 209.126C155.809 207.991 155.607 206.856 155.75 205.722C155.901 204.606 156.391 203.549 157.22 202.55C158.058 201.569 159.233 200.715 160.747 199.986Z" fill="#D5A459"/>
<path d="M141.726 206.963C143.889 206.464 145.785 206.498 147.414 207.066C149.043 207.635 150.405 208.644 151.499 210.096C152.573 211.551 153.359 213.361 153.858 215.524C154.357 217.688 154.439 219.649 154.106 221.409C153.753 223.174 152.966 224.659 151.746 225.864C150.51 227.093 148.811 227.957 146.648 228.456C144.582 228.933 142.735 228.887 141.105 228.319C139.481 227.77 138.112 226.772 136.998 225.326C135.89 223.898 135.086 222.103 134.587 219.94C134.089 217.776 134.023 215.801 134.391 214.012C134.763 212.243 135.567 210.744 136.803 209.515C138.019 208.29 139.66 207.439 141.726 206.963ZM141.764 207.262C140.848 207.473 140.103 207.85 139.531 208.393C138.943 208.959 138.531 209.711 138.296 210.648C138.064 211.605 137.994 212.77 138.085 214.145C138.176 215.52 138.433 217.123 138.855 218.955C139.277 220.787 139.746 222.331 140.261 223.588C140.781 224.863 141.352 225.871 141.974 226.61C142.6 227.368 143.29 227.866 144.042 228.103C144.799 228.36 145.645 228.38 146.581 228.164C147.516 227.948 148.278 227.557 148.865 226.99C149.458 226.443 149.879 225.689 150.13 224.728C150.365 223.791 150.437 222.635 150.346 221.261C150.24 219.91 149.976 218.318 149.554 216.486C149.132 214.655 148.671 213.098 148.17 211.818C147.651 210.542 147.078 209.525 146.451 208.766C145.81 208.032 145.111 207.536 144.354 207.28C143.582 207.048 142.719 207.041 141.764 207.262Z" fill="#D5A459"/>
<path d="M119.464 209.4C121.684 209.46 123.51 209.969 124.945 210.929C126.38 211.888 127.444 213.207 128.139 214.886C128.814 216.565 129.122 218.514 129.062 220.733C129.002 222.953 128.59 224.872 127.826 226.492C127.042 228.111 125.908 229.351 124.424 230.211C122.92 231.091 121.058 231.501 118.839 231.441C116.72 231.384 114.943 230.875 113.508 229.916C112.073 228.977 110.998 227.668 110.283 225.988C109.568 224.328 109.24 222.388 109.3 220.169C109.36 217.95 109.792 216.021 110.597 214.382C111.401 212.763 112.555 211.514 114.059 210.634C115.543 209.754 117.345 209.342 119.464 209.4ZM119.426 209.699C118.487 209.673 117.671 209.852 116.981 210.233C116.27 210.634 115.683 211.258 115.22 212.106C114.756 212.974 114.396 214.085 114.139 215.438C113.883 216.792 113.729 218.408 113.678 220.287C113.628 222.167 113.694 223.779 113.878 225.125C114.061 226.49 114.361 227.609 114.777 228.48C115.194 229.372 115.736 230.027 116.405 230.445C117.073 230.883 117.887 231.115 118.847 231.141C119.807 231.167 120.642 230.98 121.353 230.579C122.064 230.198 122.661 229.574 123.144 228.706C123.607 227.859 123.967 226.758 124.224 225.404C124.46 224.07 124.603 222.463 124.654 220.584C124.705 218.705 124.649 217.083 124.486 215.718C124.302 214.352 124.003 213.224 123.587 212.332C123.15 211.46 122.598 210.805 121.929 210.367C121.24 209.948 120.406 209.725 119.426 209.699Z" fill="#D5A459"/>
<path d="M107.744 209.474L107.662 209.762L106.248 209.361C105.882 209.258 105.549 209.226 105.247 209.265C104.925 209.298 104.659 209.431 104.448 209.662C104.212 209.907 104.021 210.289 103.874 210.809L99.282 227.032C99.1403 227.532 99.1111 227.929 99.1942 228.223C99.2526 228.53 99.4125 228.773 99.6739 228.951C99.9106 229.143 100.212 229.291 100.577 229.394L101.992 229.795L101.91 230.084L95.2426 228.194L89.2097 209.303L85.3203 223.043C85.1787 223.544 85.1467 223.951 85.2244 224.264C85.3021 224.577 85.462 224.819 85.7042 224.992C85.9409 225.184 86.242 225.332 86.6076 225.435L88.2528 225.901L88.1711 226.19L80.9842 224.153L81.0659 223.865L82.7111 224.331C83.0767 224.434 83.4105 224.467 83.7126 224.428C83.9954 224.383 84.2547 224.238 84.4903 223.993C84.7205 223.767 84.9091 223.395 85.0562 222.875L90.2529 204.516L91.6672 204.917L98.8462 227.469L103.585 210.727C103.732 210.208 103.77 209.782 103.698 209.449C103.62 209.136 103.463 208.884 103.226 208.692C102.989 208.5 102.688 208.353 102.323 208.249L100.475 207.725L100.557 207.437L107.744 209.474Z" fill="#D5A459"/>
<path d="M73.4941 195.592C74.442 196.225 75.2042 196.867 75.7806 197.516C76.3292 198.172 76.7171 198.815 76.9441 199.448C77.16 200.098 77.2373 200.702 77.176 201.263C77.0981 201.812 76.9092 202.311 76.6095 202.76C76.2876 203.243 75.9187 203.562 75.5027 203.717C75.0867 203.872 74.6458 203.902 74.18 203.807C73.6976 203.701 73.2402 203.504 72.8078 203.215C73.7014 201.84 74.276 200.672 74.5316 199.713C74.7706 198.742 74.7378 197.926 74.4331 197.266C74.1285 196.605 73.6269 196.042 72.9285 195.575C71.8974 194.886 70.8688 194.608 69.8428 194.74C68.8168 194.873 67.9264 195.505 67.1716 196.636C66.661 197.401 66.411 198.136 66.4217 198.841C66.4047 199.551 66.5928 200.314 66.9861 201.13C67.3628 201.935 67.8919 202.854 68.5734 203.886C69.0943 204.691 69.5292 205.463 69.8781 206.201C70.2105 206.928 70.4375 207.633 70.5591 208.315C70.6696 209.014 70.6554 209.702 70.5164 210.379C70.3496 211.062 70.0387 211.744 69.5836 212.426C68.9065 213.441 68.0881 214.145 67.1285 214.538C66.1412 214.937 65.0709 215.027 63.9175 214.81C62.7531 214.61 61.5555 214.098 60.3248 213.276C59.2937 212.587 58.5011 211.865 57.947 211.11C57.3817 210.372 57.0439 209.653 56.9333 208.954C56.8228 208.255 56.9451 207.639 57.3003 207.107C57.6667 206.558 58.2047 206.256 58.9146 206.201C59.5967 206.151 60.3702 206.415 61.235 206.993C60.2138 208.524 59.6751 209.799 59.6191 210.82C59.5465 211.83 60.0091 212.668 61.0069 213.335C61.5225 213.679 62.0713 213.902 62.6536 214.002C63.2358 214.102 63.8237 214.014 64.4172 213.737C64.983 213.466 65.5212 212.947 66.0318 212.182C66.498 211.483 66.7563 210.79 66.8065 210.102C66.8291 209.419 66.6576 208.667 66.292 207.846C65.9265 207.024 65.3697 206.039 64.6217 204.89C63.8958 203.78 63.3391 202.759 62.9514 201.826C62.5471 200.883 62.3729 199.972 62.4288 199.096C62.4736 198.236 62.7958 197.357 63.3952 196.458C64.0945 195.41 64.9683 194.659 66.0167 194.205C67.0539 193.767 68.213 193.652 69.4939 193.858C70.7637 194.081 72.0971 194.659 73.4941 195.592Z" fill="#D5A459"/>
<path d="M57.7769 182.787C59.3116 184.391 60.2514 186.039 60.5963 187.73C60.9413 189.421 60.7701 191.108 60.0829 192.791C59.3819 194.46 58.2298 196.062 56.6267 197.598C55.0235 199.133 53.3809 200.208 51.6989 200.823C50.003 201.422 48.3255 201.506 46.6663 201.074C44.9788 200.641 43.3677 199.622 41.833 198.018C40.3674 196.486 39.4622 194.875 39.1172 193.183C38.7579 191.506 38.9148 189.818 39.5882 188.121C40.2471 186.437 41.3782 184.828 42.9813 183.292C44.5845 181.756 46.2481 180.689 47.9722 180.09C49.6819 179.504 51.3805 179.428 53.068 179.861C54.7417 180.28 56.3113 181.255 57.7769 182.787ZM57.5395 182.973C56.8897 182.293 56.1853 181.846 55.4264 181.632C54.6391 181.417 53.7829 181.447 52.8577 181.724C51.9181 182.015 50.8811 182.552 49.7469 183.333C48.6127 184.115 47.3668 185.156 46.0092 186.457C44.6516 187.757 43.565 188.95 42.7494 190.036C41.9194 191.136 41.3459 192.142 41.0291 193.055C40.6978 193.982 40.6227 194.829 40.804 195.597C40.9707 196.379 41.386 197.117 42.0496 197.811C42.7133 198.504 43.4387 198.959 44.2259 199.174C44.9987 199.403 45.8618 199.379 46.8153 199.103C47.7405 198.826 48.7702 198.297 49.9044 197.515C51.0103 196.732 52.2421 195.691 53.5997 194.391C54.9573 193.09 56.0581 191.897 56.9019 190.812C57.7319 189.712 58.3126 188.699 58.6439 187.772C58.947 186.845 59.0151 185.99 58.8483 185.209C58.6532 184.426 58.217 183.681 57.5395 182.973Z" fill="#D5A459"/>
<path d="M44.4628 165.254C45.556 167.186 46.0619 169.014 45.9804 170.738C45.8989 172.463 45.3182 174.056 44.2383 175.518C43.1485 176.963 41.6378 178.233 39.7062 179.327C37.7747 180.421 35.9181 181.059 34.1366 181.241C32.3453 181.405 30.6986 181.074 29.1965 180.247C27.6672 179.412 26.356 178.029 25.2627 176.096C24.2187 174.251 23.7375 172.467 23.819 170.742C23.8831 169.028 24.4502 167.431 25.5203 165.951C26.5729 164.482 28.0651 163.2 29.9967 162.105C31.9282 161.011 33.8033 160.386 35.6219 160.229C37.4231 160.082 39.0884 160.426 40.6177 161.26C42.1371 162.078 43.4188 163.409 44.4628 165.254ZM44.187 165.376C43.7241 164.558 43.1512 163.951 42.4683 163.557C41.7582 163.154 40.9206 162.974 39.9557 163.015C38.9733 163.065 37.8363 163.33 36.5447 163.809C35.253 164.288 33.7893 164.991 32.1536 165.917C30.5178 166.844 29.1712 167.733 28.1136 168.585C27.0386 169.447 26.2353 170.282 25.7037 171.088C25.1547 171.905 24.8737 172.708 24.8605 173.497C24.8299 174.296 25.051 175.113 25.5238 175.949C25.9965 176.784 26.588 177.403 27.2981 177.805C27.9909 178.217 28.8333 178.407 29.8255 178.373C30.7905 178.332 31.9188 178.072 33.2104 177.593C34.4748 177.107 35.9249 176.4 37.5606 175.474C39.1964 174.547 40.5567 173.662 41.6415 172.817C42.7165 171.955 43.5285 171.116 44.0775 170.299C44.5992 169.475 44.8754 168.664 44.9059 167.865C44.9093 167.058 44.6696 166.229 44.187 165.376Z" fill="#D5A459"/>
<path d="M38.3954 155.345L38.1058 155.424L37.7216 154.005C37.6222 153.638 37.4781 153.335 37.2891 153.097C37.0948 152.838 36.8443 152.678 36.5374 152.617C36.2061 152.541 35.7798 152.573 35.2586 152.715L18.9862 157.127C18.4844 157.263 18.1289 157.442 17.9198 157.665C17.6861 157.873 17.5602 158.135 17.5422 158.451C17.4995 158.753 17.5279 159.087 17.6272 159.454L18.0115 160.873L17.722 160.951L15.9104 154.262L29.0018 139.367L15.2195 143.104C14.7177 143.24 14.3525 143.422 14.1241 143.65C13.8957 143.878 13.7698 144.14 13.7465 144.436C13.7039 144.738 13.7322 145.072 13.8316 145.439L14.2786 147.089L13.989 147.168L12.0363 139.958L12.3258 139.879L12.7728 141.53C12.8722 141.896 13.0164 142.199 13.2054 142.438C13.3892 142.658 13.6467 142.805 13.9781 142.881C14.2902 142.962 14.7068 142.932 15.228 142.791L33.643 137.798L34.0272 139.216L18.3866 156.979L35.1802 152.425C35.7014 152.284 36.0858 152.097 36.3335 151.864C36.562 151.636 36.6975 151.371 36.7401 151.07C36.7827 150.768 36.7544 150.434 36.655 150.067L36.1531 148.214L36.4427 148.135L38.3954 155.345Z" fill="#D5A459"/>
<path d="M32.62 118.652C32.5674 119.791 32.4118 120.775 32.1532 121.603C31.8756 122.411 31.5245 123.076 31.1 123.597C30.6555 124.117 30.1775 124.495 29.666 124.731C29.1555 124.948 28.6305 125.044 28.0911 125.019C27.5117 124.992 27.0482 124.84 26.7006 124.564C26.353 124.287 26.0995 123.925 25.94 123.477C25.7814 123.009 25.7142 122.516 25.7382 121.996C27.3773 122.052 28.6738 121.942 29.6276 121.666C30.5823 121.37 31.2637 120.921 31.672 120.32C32.0802 119.718 32.3037 118.998 32.3425 118.158C32.3998 116.92 32.1069 115.895 31.4636 115.084C30.8204 114.274 29.8195 113.837 28.461 113.774C27.542 113.731 26.7835 113.896 26.1857 114.269C25.5688 114.62 25.0125 115.175 24.517 115.933C24.0224 116.671 23.509 117.598 22.9769 118.715C22.5566 119.576 22.1205 120.347 21.6686 121.026C21.2177 121.686 20.7314 122.244 20.2097 122.701C19.6681 123.156 19.0717 123.499 18.4203 123.729C17.75 123.938 17.0052 124.023 16.1861 123.985C14.9674 123.929 13.9419 123.591 13.1096 122.972C12.2583 122.331 11.6278 121.461 11.2182 120.361C10.7886 119.26 10.608 117.97 10.6764 116.492C10.7337 115.253 10.9425 114.202 11.3028 113.337C11.6431 112.472 12.0841 111.812 12.6257 111.357C13.1674 110.901 13.7578 110.688 14.3971 110.718C15.0564 110.749 15.5929 111.054 16.0065 111.634C16.4011 112.193 16.5744 112.992 16.5264 114.03C14.6884 113.945 13.3178 114.142 12.4147 114.62C11.5126 115.079 11.0338 115.908 10.9783 117.106C10.9497 117.726 11.0428 118.311 11.2576 118.861C11.4724 119.412 11.8516 119.87 12.3953 120.235C12.9199 120.58 13.6417 120.774 14.5608 120.817C15.3999 120.856 16.1269 120.719 16.742 120.407C17.338 120.075 17.8933 119.54 18.4079 118.803C18.9225 118.066 19.4786 117.081 20.0762 115.847C20.652 114.652 21.239 113.649 21.8372 112.835C22.4364 112.002 23.1257 111.384 23.9052 110.979C24.6647 110.574 25.5839 110.397 26.6628 110.447C27.9214 110.505 29.0159 110.866 29.9462 111.53C30.8566 112.193 31.5542 113.127 32.0391 114.33C32.504 115.533 32.6977 116.974 32.62 118.652Z" fill="#D5A459"/>
<path d="M35.4933 98.4397C34.9049 100.58 33.9736 102.232 32.6996 103.396C31.4256 104.56 29.8903 105.278 28.0937 105.551C26.3023 105.805 24.3365 105.637 22.196 105.048C20.0556 104.459 18.2903 103.6 16.8999 102.47C15.5149 101.321 14.582 99.9237 14.1012 98.2771C13.6065 96.6059 13.6534 94.7 14.2418 92.5594C14.8038 90.5152 15.7217 88.9113 16.9958 87.7477C18.2505 86.5787 19.7788 85.8481 21.5808 85.5558C23.3634 85.2582 25.3249 85.404 27.4653 85.9931C29.6057 86.5822 31.3755 87.4634 32.7745 88.6368C34.1542 89.8048 35.0915 91.2244 35.5862 92.8956C36.0862 94.5475 36.0552 96.3956 35.4933 98.4397ZM35.212 98.3312C35.4612 97.4248 35.4831 96.5907 35.2776 95.8289C35.0582 95.0425 34.5923 94.323 33.8797 93.6705C33.1479 93.0128 32.1555 92.3974 30.9026 91.8243C29.6497 91.2513 28.1169 90.7153 26.3043 90.2164C24.4917 89.7175 22.9103 89.3963 21.56 89.2529C20.1905 89.1041 19.0328 89.1277 18.087 89.3238C17.1219 89.5145 16.3565 89.8846 15.7905 90.4342C15.2054 90.9784 14.7855 91.7133 14.5311 92.639C14.2766 93.5647 14.2591 94.4207 14.4785 95.2071C14.6786 95.9882 15.1419 96.7173 15.8684 97.3944C16.581 98.0469 17.5637 98.6596 18.8166 99.2327C20.0555 99.7811 21.5813 100.305 23.3939 100.804C25.2065 101.303 26.7949 101.636 28.1592 101.804C29.5287 101.953 30.6961 101.932 31.6611 101.741C32.6122 101.526 33.3804 101.146 33.9656 100.602C34.5368 100.033 34.9523 99.2761 35.212 98.3312Z" fill="#D5A459"/>
<path d="M43.6229 78.1583C42.5226 80.0864 41.2112 81.4563 39.6887 82.2679C38.1663 83.0795 36.501 83.3949 34.6929 83.2141C32.8947 83.0159 31.0319 82.3661 29.1043 81.2647C27.1768 80.1633 25.6795 78.8932 24.6124 77.4542C23.5553 75.9979 22.9978 74.4124 22.94 72.6979C22.8748 70.9561 23.3923 69.1211 24.4927 67.193C25.5435 65.3517 26.8301 64.0253 28.3525 63.2136C29.8576 62.3921 31.5192 62.0631 33.3372 62.2265C35.1378 62.3801 37.0019 63.0075 38.9294 64.1089C40.857 65.2103 42.353 66.5028 43.4176 67.9864C44.4649 69.4601 45.0211 71.0679 45.0864 72.8097C45.1615 74.5342 44.6737 76.317 43.6229 78.1583ZM43.3773 77.9834C43.8432 77.167 44.071 76.3643 44.0608 75.5752C44.0431 74.7589 43.7699 73.9463 43.2413 73.1375C42.6953 72.3188 41.8864 71.4765 40.8146 70.6108C39.7429 69.745 38.3908 68.8457 36.7585 67.913C35.1261 66.9803 33.6737 66.2771 32.4012 65.8034C31.1113 65.3198 29.984 65.0557 29.0192 65.0112C28.0371 64.9568 27.2038 65.1256 26.5195 65.5178C25.8178 65.9 25.229 66.508 24.7532 67.3418C24.2773 68.1756 24.0483 69.0006 24.066 69.817C24.0663 70.6234 24.3346 71.4446 24.8706 72.2807C25.3992 73.0895 26.1994 73.9268 27.2712 74.7926C28.3356 75.6311 29.6839 76.5167 31.3162 77.4494C32.9485 78.3821 34.4047 79.0989 35.6846 79.6C36.9745 80.0836 38.1105 80.3526 39.0927 80.4071C40.0674 80.4342 40.9056 80.2566 41.6073 79.8744C42.3016 79.4649 42.8916 78.8346 43.3773 77.9834Z" fill="#D5A459"/>
<path d="M48.9387 67.8896L48.7229 67.6813L49.7429 66.6228C50.0066 66.3492 50.1924 66.0699 50.3004 65.785C50.4222 65.4856 50.4309 65.1883 50.3266 64.8931C50.2217 64.5696 49.975 64.2204 49.5864 63.8454L37.4536 52.1384C37.0794 51.7773 36.7432 51.5641 36.4451 51.4988C36.1465 51.4052 35.8571 51.4316 35.5769 51.5782C35.2963 51.6965 35.0241 51.8925 34.7604 52.1661L33.7403 53.2245L33.5245 53.0162L38.3333 48.0263L57.8271 51.6196L47.551 41.7041C47.1767 41.343 46.8334 41.1229 46.5209 41.0437C46.2083 40.9644 45.919 40.9909 45.6527 41.1231C45.372 41.2414 45.0999 41.4373 44.8362 41.711L43.6496 42.9422L43.4337 42.7339L48.6173 37.3552L48.8332 37.5635L47.6466 38.7948C47.3829 39.0684 47.1971 39.3477 47.0891 39.6326C46.995 39.9031 47.0004 40.2002 47.1053 40.5237C47.1958 40.8333 47.4353 41.1756 47.8239 41.5506L61.5543 54.7991L60.5342 55.8576L37.2732 51.5474L49.7946 63.6294C50.1832 64.0043 50.5409 64.2384 50.8678 64.3315C51.1804 64.4107 51.477 64.3911 51.7576 64.2729C52.0383 64.1546 52.3104 63.9586 52.5741 63.685L53.9065 62.3025L54.1223 62.5108L48.9387 67.8896Z" fill="#D5A459"/>
<path d="M77.4378 43.9592C76.4337 44.499 75.5097 44.8709 74.6657 45.0748C73.83 45.2516 73.0796 45.2917 72.4148 45.195C71.7405 45.0806 71.1706 44.8647 70.705 44.5473C70.2571 44.2205 69.9054 43.8192 69.65 43.3434C69.3756 42.8324 69.2678 42.3568 69.3265 41.9165C69.3852 41.4762 69.5657 41.0726 69.8681 40.7057C70.1881 40.3293 70.5772 40.0179 71.0352 39.7717C71.8286 41.2071 72.5886 42.2632 73.3151 42.9398C74.0592 43.607 74.7942 43.9612 75.5201 44.0024C76.2459 44.0436 76.9788 43.8654 77.7187 43.4676C78.8108 42.8805 79.5396 42.1027 79.9049 41.1342C80.2703 40.1658 80.1313 39.0825 79.4879 37.8843C79.0527 37.0737 78.5217 36.5076 77.895 36.186C77.2765 35.8374 76.5149 35.645 75.6103 35.6091C74.7233 35.5637 73.6642 35.5995 72.4331 35.7164C71.4782 35.7983 70.5932 35.8199 69.7779 35.7813C68.9803 35.7333 68.2518 35.6027 67.5925 35.3894C66.9238 35.1586 66.3235 34.8228 65.7917 34.382C65.2681 33.9142 64.8124 33.319 64.4245 32.5966C63.8473 31.5217 63.6108 30.4681 63.7148 29.4358C63.827 28.3764 64.2499 27.3884 64.9836 26.4717C65.7077 25.5374 66.7216 24.7199 68.0252 24.0191C69.1174 23.4319 70.1267 23.071 71.0532 22.9362C71.9702 22.7838 72.7631 22.8231 73.4318 23.0539C74.1006 23.2848 74.5864 23.6821 74.8891 24.246C75.2013 24.8275 75.2149 25.4446 74.9298 26.0974C74.6529 26.7232 74.0564 27.2823 73.1404 27.7747C72.2699 26.1536 71.3976 25.0785 70.5233 24.5494C69.6666 24.0109 68.7098 24.0257 67.6528 24.5939C67.1067 24.8875 66.6526 25.2679 66.2905 25.735C65.9285 26.2021 65.7301 26.7629 65.6956 27.4173C65.6692 28.0446 65.8736 28.7635 66.3088 29.574C66.7062 30.3141 67.1965 30.8679 67.7798 31.2356C68.3713 31.5761 69.1152 31.7779 70.0117 31.8409C70.9081 31.9039 72.039 31.875 73.4042 31.7542C74.7248 31.6346 75.8875 31.6226 76.8922 31.7183C77.9146 31.8044 78.7994 32.0781 79.5464 32.5394C80.284 32.983 80.9083 33.6806 81.4192 34.6321C82.0152 35.7422 82.2673 36.8669 82.1753 38.0063C82.0739 39.128 81.6313 40.2061 80.8474 41.2406C80.0541 42.2575 78.9175 43.1637 77.4378 43.9592Z" fill="#D5A459"/>
<path d="M95.975 36.1036C93.8368 36.7008 91.9411 36.7528 90.2877 36.2594C88.6343 35.766 87.2282 34.8194 86.0694 33.4195C84.9299 32.0143 84.0618 30.2425 83.4653 28.1041C82.8687 25.9658 82.6968 24.0099 82.9496 22.2365C83.2216 20.4578 83.9398 18.9386 85.1041 17.6789C86.2823 16.3946 87.9405 15.4538 90.0787 14.8566C92.1205 14.2862 93.9681 14.2477 95.6215 14.7411C97.2695 15.2153 98.6826 16.1496 99.8606 17.544C101.033 18.9193 101.918 20.676 102.514 22.8144C103.111 24.9527 103.266 26.9236 102.98 28.727C102.689 30.5111 101.954 32.0454 100.776 33.3297C99.6172 34.6086 98.0168 35.5333 95.975 36.1036ZM95.9233 35.8066C96.8286 35.5537 97.555 35.1431 98.1025 34.5749C98.6638 33.982 99.0408 33.2122 99.2335 32.2655C99.4208 31.2995 99.4377 30.1319 99.2841 28.7627C99.1305 27.3936 98.8011 25.8036 98.296 23.9927C97.7908 22.1819 97.2522 20.6607 96.6802 19.4291C96.1029 18.1784 95.4868 17.198 94.8319 16.488C94.1716 15.7587 93.4603 15.2929 92.6979 15.0905C91.9301 14.8689 91.0839 14.8873 90.1593 15.1455C89.2347 15.4038 88.4917 15.8294 87.9304 16.4222C87.3637 16.9958 86.977 17.7683 86.7705 18.7397C86.5778 19.6864 86.5582 20.8444 86.7118 22.2136C86.8792 23.5581 87.2156 25.1358 87.7208 26.9466C88.2259 28.7575 88.7576 30.291 89.3157 31.5472C89.893 32.7979 90.5118 33.788 91.1721 34.5172C91.8462 35.2218 92.5672 35.685 93.335 35.9066C94.1166 36.1035 94.9794 36.0702 95.9233 35.8066Z" fill="#D5A459"/>
<path d="M117.573 32.5806C115.354 32.632 113.504 32.2148 112.023 31.3289C110.542 30.443 109.412 29.1788 108.634 27.5364C107.876 25.8935 107.471 23.9624 107.42 21.743C107.368 19.5236 107.683 17.5857 108.365 15.9295C109.067 14.2728 110.137 12.9776 111.576 12.044C113.034 11.09 114.873 10.5873 117.093 10.5358C119.212 10.4867 121.012 10.9051 122.493 11.791C123.974 12.6569 125.113 13.9109 125.911 15.5528C126.709 17.1748 127.134 19.0955 127.185 21.3149C127.236 23.5343 126.901 25.4826 126.18 27.1597C125.458 28.8169 124.368 30.1225 122.91 31.0765C121.471 32.0301 119.692 32.5315 117.573 32.5806ZM117.596 32.28C118.536 32.2582 119.341 32.0395 120.012 31.6238C120.702 31.1877 121.257 30.5347 121.677 29.6647C122.096 28.7748 122.4 27.6474 122.589 26.2827C122.777 24.918 122.85 23.2958 122.806 21.4164C122.763 19.5369 122.615 17.9298 122.364 16.5953C122.113 15.2408 121.757 14.1387 121.298 13.2891C120.837 12.4196 120.263 11.7927 119.574 11.4086C118.884 11.0044 118.059 10.8135 117.1 10.8357C116.14 10.858 115.315 11.0872 114.625 11.5233C113.934 11.9394 113.369 12.5926 112.93 13.4831C112.51 14.353 112.206 15.4704 112.017 16.8351C111.848 18.1794 111.786 19.7913 111.829 21.6708C111.873 23.5503 112.01 25.1675 112.241 26.5225C112.493 27.8771 112.849 28.9891 113.309 29.8587C113.789 30.7078 114.373 31.3344 115.063 31.7385C115.772 32.1222 116.616 32.3027 117.596 32.28Z" fill="#D5A459"/>
<path d="M129.836 31.8743L129.904 31.5822L131.336 31.9182C131.705 32.005 132.04 32.022 132.34 31.9692C132.66 31.9209 132.92 31.7765 133.12 31.5358C133.344 31.2803 133.518 30.8897 133.641 30.364L137.49 13.9491C137.609 13.4428 137.62 13.0448 137.523 12.7551C137.451 12.4505 137.28 12.2153 137.011 12.0493C136.766 11.8685 136.458 11.7347 136.088 11.6478L134.657 11.3119L134.725 11.0198L141.472 12.6036L148.359 31.1996L151.619 17.2966C151.737 16.7904 151.751 16.3826 151.659 16.0735C151.567 15.7643 151.396 15.529 151.147 15.3677C150.901 15.1869 150.594 15.053 150.224 14.9662L148.559 14.5754L148.628 14.2833L155.9 15.9905L155.831 16.2825L154.167 15.8918C153.797 15.8049 153.462 15.7879 153.162 15.8407C152.881 15.8982 152.629 16.0546 152.405 16.3101C152.185 16.5462 152.013 16.9271 151.89 17.4528L147.535 36.0291L146.104 35.6931L137.905 13.4919L133.933 30.4325C133.81 30.9583 133.792 31.3855 133.879 31.7141C133.971 32.0233 134.14 32.2683 134.385 32.4491C134.63 32.6299 134.938 32.7637 135.308 32.8506L137.177 33.2894L137.108 33.5815L129.836 31.8743Z" fill="#D5A459"/>
<path d="M165.122 44.3132C164.147 43.7223 163.358 43.1151 162.753 42.4915C162.176 41.8611 161.76 41.2349 161.506 40.6128C161.261 39.9736 161.158 39.3728 161.194 38.8103C161.248 38.2582 161.415 37.7511 161.694 37.2892C161.995 36.793 162.349 36.4583 162.758 36.2851C163.167 36.1119 163.606 36.0624 164.075 36.1364C164.562 36.2209 165.028 36.3979 165.472 36.6674C164.64 38.0807 164.117 39.2724 163.904 40.2424C163.708 41.2228 163.777 42.0362 164.11 42.6826C164.444 43.3291 164.97 43.87 165.688 44.3054C166.748 44.9481 167.788 45.1807 168.807 45.0033C169.827 44.8259 170.688 44.1555 171.393 42.992C171.869 42.205 172.086 41.4598 172.045 40.7563C172.03 40.046 171.809 39.292 171.38 38.4942C170.968 37.7067 170.399 36.8123 169.673 35.8107C169.117 35.0295 168.649 34.2779 168.268 33.5557C167.904 32.844 167.646 32.1498 167.494 31.4733C167.353 30.7797 167.337 30.0917 167.446 29.4095C167.583 28.7204 167.863 28.0252 168.288 27.3237C168.92 26.2801 169.706 25.5407 170.648 25.1056C171.616 24.6638 172.682 24.526 173.844 24.6923C175.016 24.8415 176.235 25.2996 177.5 26.0668C178.561 26.7095 179.384 27.3958 179.971 28.1257C180.568 28.8384 180.938 29.5416 181.079 30.2353C181.22 30.9289 181.125 31.5495 180.794 32.097C180.452 32.6616 179.927 32.987 179.221 33.0731C178.541 33.1525 177.757 32.9227 176.868 32.3836C177.821 30.8096 178.302 29.5114 178.313 28.489C178.342 27.477 177.843 26.6601 176.816 26.0381C176.286 25.7167 175.728 25.5187 175.142 25.4441C174.556 25.3696 173.972 25.4837 173.392 25.7865C172.838 26.0826 172.323 26.6242 171.847 27.4112C171.412 28.1298 171.185 28.8338 171.165 29.5233C171.172 30.2061 171.377 30.9498 171.778 31.7543C172.179 32.5589 172.779 33.5187 173.577 34.6337C174.351 35.7109 174.952 36.7067 175.38 37.6212C175.826 38.546 176.04 39.4475 176.023 40.3258C176.016 41.1869 175.733 42.0794 175.173 43.0033C174.521 44.0812 173.681 44.87 172.653 45.3699C171.636 45.8527 170.484 46.0192 169.195 45.8696C167.916 45.7028 166.559 45.184 165.122 44.3132Z" fill="#D5A459"/>
<path d="M181.368 56.3972C179.765 54.8615 178.754 53.2563 178.336 51.5816C177.918 49.9069 178.015 48.2138 178.628 46.5025C179.256 44.805 180.337 43.1541 181.872 41.5501C183.407 39.946 185.001 38.8004 186.654 38.1135C188.323 37.4404 189.995 37.2836 191.671 37.6433C193.376 38.0023 195.03 38.9497 196.633 40.4853C198.164 41.9518 199.139 43.5224 199.557 45.1972C199.989 46.8574 199.906 48.5501 199.307 50.2753C198.722 51.9861 197.663 53.6435 196.128 55.2476C194.593 56.8517 192.978 57.9906 191.281 58.6643C189.599 59.3236 187.905 59.4737 186.2 59.1147C184.51 58.7695 182.899 57.8637 181.368 56.3972ZM181.597 56.2011C182.276 56.8514 182.999 57.2672 183.767 57.4485C184.563 57.6293 185.417 57.5611 186.329 57.2441C187.255 56.9126 188.268 56.3316 189.367 55.5011C190.466 54.6706 191.665 53.5761 192.965 52.2177C194.265 50.8593 195.298 49.6199 196.066 48.4995C196.847 47.3646 197.376 46.3343 197.653 45.4085C197.943 44.4683 197.981 43.6184 197.767 42.859C197.566 42.0852 197.119 41.3662 196.426 40.7021C195.733 40.038 194.988 39.6156 194.192 39.4349C193.41 39.2397 192.549 39.3009 191.608 39.6186C190.696 39.9356 189.69 40.5094 188.591 41.3399C187.521 42.1698 186.335 43.2639 185.036 44.6223C183.736 45.9808 182.688 47.2205 181.893 48.3415C181.111 49.4764 180.575 50.514 180.285 51.4542C180.023 52.3938 179.992 53.2505 180.192 54.0244C180.421 54.7976 180.89 55.5232 181.597 56.2011Z" fill="#D5A459"/>
<path d="M195.392 73.2404C194.215 71.3584 193.629 69.5543 193.634 67.8282C193.64 66.1021 194.149 64.4848 195.164 62.9762C196.189 61.4846 197.642 60.1496 199.523 58.9711C201.405 57.7927 203.231 57.0733 205.003 56.8131C206.785 56.5699 208.445 56.8282 209.982 57.5882C211.547 58.3545 212.918 59.6787 214.095 61.5607C215.219 63.358 215.779 65.1197 215.774 66.8458C215.785 68.5613 215.289 70.1818 214.286 71.7073C213.299 73.2222 211.865 74.5689 209.983 75.7473C208.102 76.9258 206.256 77.6335 204.446 77.8704C202.653 78.0967 200.975 77.8267 199.41 77.0604C197.856 76.311 196.517 75.0377 195.392 73.2404ZM195.663 73.1066C196.161 73.9035 196.76 74.484 197.46 74.8482C198.187 75.2187 199.032 75.3621 199.994 75.2786C200.973 75.1845 202.097 74.8697 203.367 74.3343C204.636 73.7988 206.067 73.0321 207.66 72.0341C209.254 71.0361 210.56 70.0882 211.579 69.1904C212.614 68.2819 213.38 67.4129 213.876 66.5834C214.388 65.7432 214.633 64.9287 214.612 64.1399C214.607 63.3405 214.35 62.5339 213.841 61.72C213.332 60.9061 212.714 60.314 211.986 59.9435C211.276 59.5624 210.426 59.4104 209.436 59.4876C208.474 59.5711 207.358 59.8806 206.089 60.416C204.847 60.9578 203.43 61.7277 201.837 62.7257C200.244 63.7237 198.924 64.6684 197.877 65.5599C196.841 66.4684 196.067 67.3427 195.555 68.1828C195.07 69.0293 194.83 69.8523 194.835 70.6517C194.867 71.4575 195.143 72.2758 195.663 73.1066Z" fill="#D5A459"/>
<path d="M201.88 82.7637L202.165 82.6722L202.614 84.0721C202.73 84.434 202.887 84.73 203.087 84.9601C203.293 85.2091 203.55 85.3576 203.86 85.4055C204.194 85.4663 204.618 85.4142 205.133 85.2494L221.188 80.1025C221.683 79.9438 222.03 79.7485 222.229 79.5168C222.453 79.298 222.567 79.0305 222.57 78.7142C222.599 78.4109 222.556 78.0783 222.44 77.7164L221.992 76.3164L222.277 76.2248L224.39 82.8248L211.989 98.2994L225.587 93.9402C226.082 93.7814 226.439 93.5831 226.656 93.3453C226.874 93.1074 226.988 92.8399 226.998 92.5427C227.027 92.2394 226.983 91.9068 226.867 91.5449L226.346 89.9163L226.632 89.8248L228.91 96.939L228.624 97.0306L228.102 95.402C227.987 95.0401 227.829 94.7442 227.629 94.5141C227.436 94.3031 227.172 94.1672 226.837 94.1064C226.522 94.0395 226.107 94.0885 225.593 94.2534L207.423 100.078L206.975 98.6779L221.794 80.2234L205.224 85.5351C204.71 85.6999 204.334 85.9043 204.097 86.1483C203.88 86.3862 203.756 86.6567 203.727 86.96C203.698 87.2633 203.742 87.5959 203.858 87.9578L204.443 89.7864L204.158 89.878L201.88 82.7637Z" fill="#D5A459"/>
</svg>
