<svg width="134" height="134" viewBox="0 0 134 134" fill="none" xmlns="http://www.w3.org/2000/svg">
<path d="M110.956 73.5639L111.112 73.6005L110.999 74.0834C110.952 74.2807 110.943 74.4593 110.971 74.6193C110.997 74.7897 111.074 74.9284 111.202 75.0352C111.338 75.1549 111.547 75.2477 111.827 75.3135L120.55 77.3631C120.83 77.4289 121.053 77.4374 121.217 77.3885C121.38 77.35 121.505 77.2589 121.594 77.1154C121.69 76.9846 121.762 76.8206 121.808 76.6233L121.922 76.1405L122.077 76.1771L120.892 81.2236L120.736 81.187L120.849 80.7042C120.896 80.5069 120.905 80.3283 120.877 80.1682C120.859 80.0107 120.787 79.8733 120.661 79.756C120.533 79.6492 120.334 79.564 120.064 79.5006L110.267 77.1985L109.677 79.7062C109.536 80.3085 109.505 80.8109 109.586 81.2134C109.665 81.6262 109.869 81.97 110.199 82.2448C110.528 82.5195 111.005 82.7521 111.629 82.9424L112.319 83.1539L112.282 83.3096L108.885 82.3798L110.956 73.5639Z" fill="#002B60"/>
<path d="M107.593 85.3795L107.732 85.4578L107.49 85.8904C107.39 86.0672 107.328 86.2338 107.301 86.3901C107.284 86.5517 107.32 86.7062 107.408 86.8536C107.497 87.0011 107.662 87.1426 107.904 87.2782L115.762 91.6828C116.013 91.8237 116.224 91.8934 116.396 91.8919C116.563 91.8998 116.709 91.847 116.834 91.7335C116.963 91.6346 117.077 91.4967 117.176 91.3199L117.418 90.8872L117.558 90.9655L113.38 98.4184L110.807 97.0861L110.885 96.9466L111.383 97.1707C111.873 97.4088 112.302 97.527 112.67 97.5252C113.033 97.5328 113.358 97.4217 113.646 97.1917C113.934 96.9618 114.216 96.6002 114.492 96.1071L115.611 94.1113L111.061 91.5608L109.168 94.9384L109.028 94.8601L110.921 91.4826L105.925 88.6818L104.564 91.1103C104.287 91.6034 104.123 92.0374 104.072 92.4123C104.021 92.7871 104.091 93.1319 104.281 93.4465C104.481 93.7664 104.81 94.0733 105.269 94.3672L105.706 94.6672L105.628 94.8068L103.157 93.293L107.593 85.3795Z" fill="#002B60"/>
<path d="M102.355 94.6419L102.466 94.7568L102.041 95.1688C101.888 95.3172 101.783 95.4702 101.728 95.6277C101.673 95.7853 101.666 95.9625 101.708 96.1592C101.75 96.3711 101.837 96.6214 101.968 96.9101L106.374 106.654L105.455 107.545L95.6518 102.807C95.3896 102.69 95.1721 102.611 94.9992 102.571C94.8187 102.538 94.6602 102.543 94.5238 102.586C94.3873 102.629 94.2539 102.714 94.1237 102.84L94.0433 102.918L93.9319 102.803L97.4826 99.3626L97.5939 99.4775L97.1113 99.9452C96.8892 100.16 96.758 100.347 96.7178 100.505C96.6699 100.67 96.7165 100.825 96.8575 100.971C96.9021 101.017 96.958 101.059 97.0252 101.098C97.0923 101.152 97.1669 101.206 97.249 101.26C97.3235 101.321 97.4131 101.376 97.518 101.423L100.044 102.673L103.066 99.7449L101.973 97.3289C101.922 97.2149 101.871 97.1085 101.819 97.0096C101.768 96.9108 101.721 96.8233 101.677 96.7471C101.632 96.671 101.584 96.6061 101.532 96.5525C101.369 96.384 101.189 96.3283 100.992 96.3856C100.795 96.4428 100.562 96.6013 100.294 96.8611L99.6853 97.4512L99.5739 97.3363L102.355 94.6419ZM103.132 99.9044L100.19 102.755L103.075 104.192C103.352 104.34 103.651 104.495 103.973 104.659C104.302 104.83 104.624 105.001 104.938 105.172C105.252 105.358 105.529 105.521 105.768 105.66C105.673 105.47 105.57 105.265 105.461 105.044C105.358 104.831 105.256 104.611 105.154 104.383C105.052 104.155 104.947 103.923 104.837 103.688C104.735 103.46 104.637 103.236 104.542 103.016L103.132 99.9044Z" fill="#002B60"/>
<path d="M91.9662 104.215L92.0387 104.357L91.5967 104.582C91.4161 104.674 91.2714 104.778 91.1625 104.893C91.0584 105.018 91.0023 105.166 90.994 105.338C90.9857 105.51 91.0444 105.719 91.1702 105.966L95.2714 114.023C95.3973 114.27 95.5296 114.436 95.6686 114.521C95.8124 114.615 95.9629 114.652 96.1202 114.632C96.2823 114.621 96.4537 114.57 96.6343 114.478L97.0763 114.253L97.1489 114.395L92.8428 116.588C91.9682 117.033 91.1997 117.298 90.5373 117.384C89.8748 117.47 89.3089 117.381 88.8395 117.117C88.3606 116.858 87.9759 116.444 87.6856 115.873C87.4194 115.351 87.3014 114.86 87.3315 114.402C87.352 113.949 87.473 113.528 87.6944 113.14C87.9063 112.757 88.1709 112.407 88.4883 112.09L85.2969 110.123C84.8465 109.85 84.4776 109.631 84.1902 109.466C83.8933 109.306 83.6516 109.195 83.4651 109.135C83.2786 109.074 83.1258 109.044 83.0065 109.045C82.8777 109.051 82.7611 109.08 82.6565 109.133L82.628 109.148L82.5554 109.005L82.9119 108.824C83.3491 108.601 83.7343 108.429 84.0674 108.308C84.3909 108.191 84.6885 108.117 84.9602 108.086C85.2367 108.065 85.5089 108.094 85.7766 108.174C86.0396 108.267 86.3293 108.413 86.6456 108.611L90.3554 111.031L91.1111 110.647L89.2311 106.954C89.1052 106.706 88.9752 106.533 88.8409 106.434C88.6971 106.34 88.5441 106.298 88.382 106.309C88.2152 106.334 88.0416 106.392 87.8609 106.484L87.4189 106.709L87.3463 106.566L91.9662 104.215ZM90.3139 111.232C89.8576 111.464 89.5352 111.736 89.3466 112.048C89.1581 112.359 89.0964 112.731 89.1615 113.165C89.222 113.613 89.4047 114.137 89.7095 114.735C90.0241 115.353 90.3423 115.814 90.6641 116.117C90.9907 116.429 91.3426 116.603 91.7197 116.639C92.0873 116.679 92.4993 116.583 92.9556 116.351L93.7968 115.922L91.1837 110.789L90.3139 111.232Z" fill="#002B60"/>
<path d="M79.2978 110.069L79.3235 110.227L78.5497 110.353C78.3496 110.385 78.181 110.445 78.0439 110.532C77.8962 110.621 77.7975 110.745 77.7478 110.904C77.6893 111.076 77.6831 111.304 77.7293 111.588L79.172 120.464C79.2165 120.737 79.292 120.936 79.3985 121.059C79.4961 121.195 79.6282 121.276 79.7947 121.303C79.9524 121.342 80.1312 121.345 80.3313 121.313L81.1051 121.187L81.1308 121.345L77.4827 121.938L70.3038 114.173L71.5258 121.69C71.5703 121.964 71.6466 122.168 71.7548 122.302C71.863 122.435 71.9951 122.517 72.151 122.545C72.3087 122.584 72.4875 122.588 72.6876 122.555L73.5878 122.409L73.6134 122.567L69.6811 123.206L69.6554 123.048L70.5556 122.902C70.7556 122.869 70.9242 122.809 71.0613 122.722C71.1879 122.637 71.2805 122.508 71.3391 122.337C71.3993 122.176 71.4064 121.953 71.3601 121.669L69.7274 111.625L70.5013 111.499L79.0603 120.774L77.5714 111.614C77.5252 111.33 77.4471 111.115 77.3372 110.971C77.229 110.837 77.0961 110.751 76.9384 110.712C76.7807 110.673 76.6019 110.669 76.4019 110.702L75.3911 110.866L75.3654 110.708L79.2978 110.069Z" fill="#002B60"/>
<path d="M58.9807 111.328L58.9254 111.478L58.0245 111.146C57.8344 111.076 57.66 111.04 57.5014 111.039C57.3392 111.047 57.1922 111.106 57.0605 111.217C56.9288 111.328 56.815 111.513 56.7192 111.773L53.5943 120.256C53.4985 120.516 53.4666 120.726 53.4987 120.886C53.5272 121.056 53.6023 121.191 53.724 121.293C53.842 121.405 53.996 121.495 54.1862 121.565L55.087 121.897L55.0317 122.047L51.3384 120.687L51.0962 110.93L45.1077 118.392L41.7746 117.164L41.8299 117.014L42.2954 117.185C42.4855 117.255 42.6668 117.288 42.839 117.283C43.0013 117.275 43.1501 117.21 43.2855 117.089C43.4072 116.975 43.5178 116.783 43.6173 116.513L46.7035 108.135C46.803 107.865 46.8454 107.642 46.8307 107.466C46.8022 107.296 46.729 107.155 46.611 107.044C46.483 106.928 46.3239 106.836 46.1337 106.766L45.6683 106.594L45.7236 106.444L50.2277 108.103L50.1724 108.253L50.0523 108.209C49.8421 108.132 49.6527 108.09 49.4841 108.085C49.3119 108.09 49.1667 108.144 49.0487 108.249C48.917 108.359 48.8069 108.535 48.7185 108.775L45.4056 117.768L52.4797 108.933L53.0653 109.149L53.317 120.546L56.5524 111.763C56.652 111.493 56.6894 111.268 56.6646 111.088C56.6262 110.915 56.5329 110.767 56.3849 110.644C56.2268 110.518 56.0227 110.409 55.7725 110.316L55.3071 110.145L55.3624 109.995L58.9807 111.328Z" fill="#002B60"/>
<path d="M38.405 100.526C39.3085 101.291 39.8987 102.112 40.1758 102.99C40.4529 103.868 40.4559 104.772 40.1849 105.702C39.9057 106.626 39.3835 107.54 38.6183 108.443C37.8531 109.347 37.0413 110.008 36.183 110.427C35.3165 110.84 34.4311 110.978 33.5267 110.841C32.6072 110.705 31.6958 110.254 30.7923 109.489C29.9295 108.758 29.3595 107.954 29.0825 107.076C28.7985 106.207 28.788 105.303 29.0509 104.366C29.3069 103.436 29.8175 102.52 30.5827 101.617C31.3479 100.713 32.1713 100.054 33.0528 99.6409C33.9274 99.2354 34.8244 99.1005 35.7438 99.2362C36.6551 99.3651 37.5422 99.7949 38.405 100.526ZM38.2894 100.637C37.9068 100.313 37.5082 100.116 37.0936 100.044C36.6639 99.9736 36.2114 100.038 35.7358 100.236C35.2534 100.442 34.7331 100.784 34.1748 101.262C33.6164 101.74 33.0133 102.361 32.3653 103.126C31.7172 103.891 31.207 104.585 30.8347 105.206C30.4554 105.835 30.2071 106.401 30.0898 106.902C29.9655 107.412 29.9728 107.865 30.1117 108.263C30.2436 108.668 30.505 109.036 30.8957 109.367C31.2864 109.698 31.6965 109.899 32.1262 109.969C32.549 110.047 33.0056 109.987 33.4962 109.787C33.9717 109.589 34.4886 109.251 35.0469 108.773C35.5902 108.297 36.1858 107.676 36.8339 106.911C37.4819 106.146 37.9996 105.452 38.387 104.83C38.7662 104.2 39.018 103.631 39.1422 103.121C39.2515 102.612 39.2401 102.156 39.1081 101.75C38.9611 101.346 38.6882 100.975 38.2894 100.637Z" fill="#002B60"/>
<path d="M32.7368 95.3478L32.6011 95.4326L32.3382 95.012C32.2308 94.8401 32.1149 94.705 31.9905 94.6067C31.8571 94.514 31.7044 94.471 31.5326 94.4778C31.3607 94.4846 31.1572 94.5615 30.922 94.7085L23.2565 99.5003C23.0214 99.6474 22.8676 99.7938 22.7953 99.9396C22.7139 100.091 22.6901 100.244 22.7241 100.399C22.749 100.56 22.8151 100.726 22.9225 100.898L23.1855 101.318L23.0498 101.403L20.4885 97.306C19.9683 96.4738 19.6364 95.7316 19.4927 95.0792C19.3491 94.4268 19.3881 93.8553 19.6096 93.3645C19.8255 92.8648 20.2048 92.4453 20.7475 92.106C21.245 91.795 21.7233 91.6344 22.1823 91.6242C22.6357 91.605 23.0654 91.6886 23.4713 91.8751C23.8716 92.0526 24.2436 92.2855 24.5873 92.5738L26.2661 89.2224C26.4989 88.7497 26.6849 88.363 26.8239 88.0622C26.9573 87.7524 27.0461 87.502 27.0902 87.3109C27.1342 87.1198 27.1506 86.9649 27.1393 86.8462C27.1223 86.7184 27.0827 86.6048 27.0206 86.5053L27.0036 86.4782L27.1393 86.3934L27.3513 86.7325C27.6114 87.1486 27.8166 87.5172 27.967 87.8383C28.1118 88.1503 28.2113 88.4403 28.2656 88.7083C28.3109 88.9819 28.3058 89.2555 28.2504 89.5292C28.1803 89.7994 28.0605 90.1007 27.8909 90.4332L25.8052 94.3409L26.2547 95.06L29.7686 92.8634C30.0038 92.7164 30.1649 92.5716 30.2519 92.4291C30.3333 92.2776 30.3616 92.1216 30.3367 91.961C30.2971 91.7971 30.2236 91.6292 30.1162 91.4574L29.8533 91.0368L29.9889 90.952L32.7368 95.3478ZM25.6017 94.3172C25.3303 93.883 25.0312 93.5857 24.7044 93.4252C24.3776 93.2646 24.0011 93.2358 23.5749 93.3388C23.1339 93.4383 22.6285 93.6662 22.0587 94.0224C21.4708 94.3899 21.04 94.7472 20.7664 95.0944C20.4838 95.4471 20.3414 95.8129 20.3391 96.1917C20.3313 96.5614 20.463 96.9634 20.7344 97.3975L21.2348 98.198L26.119 95.1448L25.6017 94.3172Z" fill="#002B60"/>
<path d="M25.8141 83.0086L25.6598 83.0508L25.529 82.5723C25.4756 82.3769 25.4034 82.2141 25.3126 82.0841C25.2115 81.957 25.0777 81.8719 24.9111 81.829C24.7446 81.786 24.5275 81.8011 24.26 81.8743L15.5708 84.2497C15.293 84.3256 15.0934 84.4245 14.9718 84.5462C14.8475 84.6576 14.7807 84.7975 14.7714 84.9659C14.749 85.1268 14.7646 85.305 14.818 85.5005L14.9488 85.9789L14.7945 86.0211L12.5414 77.7796L15.3096 76.9233L15.3518 77.0776L14.8397 77.2674C14.3234 77.4417 13.9348 77.6585 13.674 77.9178C13.4103 78.1668 13.2566 78.4742 13.2128 78.84C13.1691 79.2059 13.2218 79.6614 13.3708 80.2067L13.9742 82.4138L19.0056 81.0383L17.9845 77.3033L18.1388 77.2612L19.1599 80.9961L24.6852 79.4856L23.951 76.8002C23.8019 76.2548 23.6141 75.8307 23.3875 75.5277C23.1609 75.2247 22.8694 75.028 22.5129 74.9375C22.1461 74.8497 21.6961 74.8622 21.163 74.9748L20.641 75.0677L20.5988 74.9134L23.4218 74.2577L25.8141 83.0086Z" fill="#002B60"/>
<path d="M23.1408 63.8883L22.9832 63.8607L23.0686 63.3721C23.1035 63.1725 23.1023 62.9936 23.065 62.8355C23.0295 62.6668 22.9446 62.5329 22.8104 62.4336C22.6675 62.322 22.4542 62.2414 22.1705 62.1918L13.3444 60.6485C13.0607 60.5989 12.8379 60.6032 12.6761 60.6616C12.5162 60.7094 12.3962 60.8075 12.3161 60.956C12.2273 61.092 12.1655 61.2599 12.1305 61.4595L12.0451 61.9481L11.8875 61.9206L12.7804 56.814L12.938 56.8416L12.8526 57.3302C12.8177 57.5298 12.8189 57.7087 12.8562 57.8668C12.883 58.0231 12.9626 58.1561 13.095 58.2659C13.2293 58.3652 13.433 58.4387 13.7062 58.4865L23.6198 60.2199L24.0635 57.6824C24.17 57.073 24.1714 56.5697 24.0676 56.1726C23.9656 55.7649 23.742 55.4335 23.3968 55.1782C23.0517 54.9229 22.5623 54.7182 21.9287 54.5641L21.2277 54.3928L21.2553 54.2352L24.7006 54.9676L23.1408 63.8883Z" fill="#002B60"/>
<path d="M25.8099 51.8742L25.6662 51.8039L25.8841 51.3583C25.9731 51.1763 26.0265 51.0065 26.0442 50.8489C26.0523 50.6866 26.008 50.5343 25.9114 50.3921C25.8147 50.2498 25.6418 50.1178 25.3927 49.9959L17.3004 46.0387C17.0417 45.9121 16.8265 45.8544 16.6549 45.8655C16.4879 45.8669 16.3454 45.9278 16.2272 46.0481C16.1041 46.1542 15.998 46.2982 15.909 46.4803L15.6911 46.9259L15.5473 46.8556L19.3008 39.1802L21.9445 40.3662L21.8742 40.5099L21.3645 40.314C20.8617 40.1038 20.4268 40.0098 20.0596 40.0322C19.6972 40.0449 19.3787 40.1741 19.1042 40.4198C18.8297 40.6656 18.5682 41.0423 18.3199 41.5502L17.3147 43.6056L22.0005 45.897L23.7015 42.4187L23.8452 42.489L22.1442 45.9673L27.2899 48.4837L28.5129 45.9827C28.7613 45.4748 28.9005 45.0323 28.9305 44.6552C28.9606 44.2781 28.8717 43.9378 28.6639 43.6343C28.4465 43.3261 28.1005 43.0382 27.6259 42.7705L27.1727 42.4954L27.243 42.3516L29.7953 43.7245L25.8099 51.8742Z" fill="#002B60"/>
<path d="M30.5095 42.2991L30.3921 42.1904L30.7941 41.7559C30.939 41.5993 31.0347 41.4408 31.0813 41.2805C31.1279 41.1202 31.1248 40.9429 31.072 40.7487C31.0186 40.5395 30.9185 40.2943 30.7717 40.0131L25.84 30.5243L26.7092 29.5847L36.7566 33.7797C37.0248 33.8825 37.2463 33.9494 37.4211 33.9803C37.6031 34.0034 37.7611 33.9898 37.895 33.9393C38.0289 33.8888 38.1575 33.797 38.2806 33.6639L38.3567 33.5817L38.4741 33.6903L35.1166 37.3194L34.9992 37.2107L35.4555 36.7175C35.6656 36.4904 35.7864 36.297 35.8179 36.1373C35.8567 35.9697 35.8017 35.8171 35.6529 35.6795C35.606 35.636 35.5478 35.5967 35.4785 35.5617C35.4086 35.5116 35.3312 35.4617 35.2463 35.4122C35.1686 35.3548 35.0761 35.3056 34.9688 35.2645L32.3781 34.1537L29.5204 37.2425L30.7441 39.5953C30.8012 39.7063 30.8581 39.8098 30.9147 39.9057C30.9712 40.0016 31.0236 40.0864 31.0717 40.16C31.1199 40.2336 31.1714 40.2958 31.2262 40.3465C31.3984 40.5058 31.5814 40.5516 31.775 40.4836C31.9686 40.4157 32.1922 40.2448 32.4457 39.9707L33.0216 39.3483L33.139 39.4569L30.5095 42.2991ZM29.4464 37.0869L32.2281 34.0803L29.2686 32.8027C28.9842 32.6703 28.6768 32.5313 28.3466 32.3856C28.0085 32.2327 27.678 32.0795 27.355 31.926C27.0314 31.7574 26.7464 31.61 26.5 31.4837C26.6053 31.6683 26.7187 31.8677 26.8402 32.0819C26.954 32.2888 27.068 32.5033 27.1823 32.7253C27.2966 32.9473 27.4148 33.1729 27.5369 33.4021C27.6512 33.6241 27.7616 33.8425 27.8681 34.0573L29.4464 37.0869Z" fill="#002B60"/>
<path d="M40.3141 32.1665L40.2338 32.0281L40.6628 31.7792C40.8381 31.6774 40.9769 31.566 41.0793 31.445C41.1763 31.3146 41.2243 31.1635 41.2231 30.9915C41.222 30.8195 41.1518 30.6136 41.0126 30.3737L36.4752 22.5549C36.336 22.3151 36.1947 22.1566 36.0513 22.0795C35.9025 21.9931 35.7502 21.9644 35.5943 21.9932C35.433 22.0128 35.2647 22.0735 35.0894 22.1752L34.6604 22.4241L34.5801 22.2858L38.7594 19.8605C39.6081 19.3679 40.3609 19.0606 41.0176 18.9384C41.6744 18.8163 42.2443 18.874 42.7275 19.1116C43.2199 19.3438 43.6268 19.7367 43.948 20.2902C44.2425 20.7976 44.3872 21.2809 44.3824 21.74C44.3867 22.1938 44.289 22.6205 44.0893 23.0201C43.8987 23.4143 43.6537 23.7785 43.3543 24.1125L46.6488 25.9005C47.1135 26.1488 47.4939 26.3474 47.7899 26.4962C48.0952 26.6397 48.3426 26.7366 48.5321 26.787C48.7217 26.8373 48.8759 26.8588 48.995 26.8513C49.1232 26.8386 49.2381 26.8027 49.3396 26.7439L49.3673 26.7278L49.4476 26.8662L49.1016 27.067C48.6772 27.3132 48.3021 27.5063 47.9762 27.646C47.6596 27.7805 47.3665 27.8704 47.0969 27.9159C46.8219 27.9521 46.5486 27.938 46.2769 27.8737C46.0092 27.7948 45.7119 27.6651 45.3852 27.4847L41.5481 25.2717L40.8147 25.6973L42.8947 29.2815C43.0339 29.5214 43.1732 29.6872 43.3128 29.7789C43.4615 29.8652 43.6165 29.8986 43.7778 29.879C43.943 29.8448 44.1132 29.7768 44.2885 29.6751L44.7175 29.4261L44.7978 29.5645L40.3141 32.1665ZM41.5785 25.0691C42.0214 24.8121 42.3284 24.5229 42.4995 24.2016C42.6707 23.8803 42.7119 23.5049 42.623 23.0755C42.538 22.6315 42.3269 22.1189 41.9896 21.5377C41.6416 20.938 41.2986 20.4958 40.9606 20.2109C40.6173 19.9169 40.2564 19.7625 39.8779 19.7478C39.5087 19.7278 39.1026 19.8463 38.6598 20.1032L37.8433 20.5771L40.7344 25.559L41.5785 25.0691Z" fill="#002B60"/>
<path d="M52.6526 25.567L52.6186 25.4106L53.3847 25.244C53.5827 25.2009 53.7479 25.1323 53.8802 25.038C54.023 24.9415 54.1149 24.8123 54.1562 24.6505C54.2055 24.476 54.1996 24.2481 54.1384 23.9666L52.2274 15.1801C52.1684 14.9091 52.0825 14.7149 51.9697 14.5975C51.865 14.4675 51.7288 14.3934 51.5611 14.3753C51.4016 14.3445 51.2228 14.3506 51.0248 14.3937L50.2587 14.5603L50.2247 14.404L53.8363 13.6185L61.4165 20.9919L59.7979 13.5499C59.7389 13.2789 59.6519 13.0795 59.5368 12.9517C59.4217 12.8239 59.2855 12.7498 59.1282 12.7295C58.9687 12.6987 58.7899 12.7048 58.5919 12.7479L57.7007 12.9417L57.6667 12.7854L61.5597 11.9387L61.5937 12.095L60.7025 12.2888C60.5045 12.3319 60.3393 12.4006 60.207 12.4948C60.0851 12.5869 59.9995 12.7201 59.9501 12.8946C59.8984 13.0586 59.9032 13.2814 59.9644 13.5628L62.1271 23.5063L61.361 23.6729L52.3225 14.8646L54.2948 23.9326C54.356 24.2141 54.4453 24.4239 54.5627 24.5621C54.6778 24.6899 54.8151 24.7692 54.9746 24.8C55.1342 24.8308 55.3129 24.8246 55.511 24.7816L56.5116 24.5639L56.5456 24.7203L52.6526 25.567Z" fill="#002B60"/>
<path d="M72.9915 23.1777L73.0387 23.0248L73.9559 23.3082C74.1495 23.3681 74.3256 23.3945 74.484 23.3877C74.6456 23.3706 74.7892 23.3033 74.9148 23.1858C75.0404 23.0684 75.1441 22.8771 75.226 22.6122L77.8947 13.9751C77.9766 13.7101 77.9972 13.4988 77.9566 13.3411C77.9192 13.1732 77.837 13.0418 77.7101 12.9467C77.5863 12.8415 77.4276 12.7589 77.2339 12.6991L76.3167 12.4157L76.364 12.2628L80.1245 13.4248L80.8859 23.1552L86.4686 15.385L89.8623 16.4336L89.8151 16.5865L89.3412 16.44C89.1475 16.3802 88.9648 16.3572 88.7931 16.3712C88.6315 16.3882 88.4863 16.4606 88.3576 16.5883C88.2421 16.7089 88.1419 16.9068 88.0569 17.182L85.4213 25.7121C85.3362 25.9872 85.3058 26.2123 85.3299 26.3872C85.3673 26.5551 85.4479 26.6916 85.5717 26.7968C85.7057 26.9052 85.8695 26.9893 86.0631 27.0492L86.537 27.1956L86.4898 27.3484L81.9037 25.9314L81.951 25.7786L82.0733 25.8164C82.2873 25.8825 82.4786 25.9137 82.6472 25.91C82.819 25.896 82.961 25.8339 83.0733 25.7234C83.1989 25.6059 83.2995 25.4249 83.375 25.1803L86.2044 16.0234L79.6107 25.2229L79.0145 25.0387L78.1562 13.6707L75.393 22.6135C75.308 22.8887 75.2827 23.1153 75.317 23.2934C75.3646 23.4644 75.4656 23.6072 75.62 23.7219C75.7845 23.8397 75.9942 23.938 76.2489 24.0167L76.7228 24.1632L76.6756 24.316L72.9915 23.1777Z" fill="#002B60"/>
<path d="M94.1262 32.8488C93.1846 32.131 92.553 31.3409 92.2313 30.4786C91.9096 29.6162 91.8602 28.7134 92.0832 27.7701C92.3146 26.8332 92.7893 25.894 93.5071 24.9525C94.225 24.011 95.0018 23.3088 95.8375 22.8461C96.6817 22.3898 97.5589 22.2069 98.4692 22.2973C99.3943 22.3857 100.328 22.7889 101.269 23.5068C102.168 24.1923 102.779 24.9663 103.101 25.8286C103.429 26.6824 103.486 27.5842 103.271 28.534C103.063 29.4753 102.6 30.4167 101.882 31.3583C101.164 32.2998 100.376 32.9997 99.5167 33.458C98.6641 33.9078 97.7751 34.0885 96.8499 34.0001C95.9332 33.9181 95.0253 33.5344 94.1262 32.8488ZM94.2359 32.7313C94.6346 33.0353 95.0428 33.2124 95.4605 33.2626C95.8932 33.3109 96.3419 33.2238 96.8067 33.0013C97.2778 32.7704 97.78 32.4021 98.3131 31.8964C98.8462 31.3907 99.4167 30.7393 100.025 29.9419C100.633 29.1446 101.107 28.4262 101.447 27.7867C101.793 27.1388 102.012 26.5613 102.103 26.0543C102.201 25.5388 102.171 25.0862 102.012 24.6967C101.859 24.2987 101.579 23.9444 101.172 23.634C100.765 23.3236 100.345 23.1442 99.9125 23.096C99.4862 23.0393 99.0333 23.1232 98.5536 23.3476C98.0889 23.5701 97.59 23.9342 97.0569 24.4398C96.5388 24.9435 95.9757 25.5939 95.3678 26.3913C94.7599 27.1886 94.2784 27.908 93.9235 28.5495C93.577 29.1974 93.3548 29.7792 93.2568 30.2947C93.1738 30.8082 93.2086 31.2639 93.3612 31.6619C93.5287 32.058 93.8203 32.4144 94.2359 32.7313Z" fill="#002B60"/>
<path d="M99.968 37.572L100.099 37.4799L100.384 37.8855C100.501 38.0512 100.624 38.1798 100.754 38.2712C100.892 38.3565 101.047 38.391 101.218 38.3748C101.389 38.3587 101.588 38.2708 101.815 38.1111L109.207 32.9078C109.434 32.7482 109.58 32.5936 109.644 32.444C109.717 32.2883 109.732 32.134 109.69 31.9812C109.656 31.8222 109.581 31.6599 109.465 31.4941L109.179 31.0886L109.31 30.9965L112.091 34.9478C112.656 35.7503 113.028 36.4733 113.207 37.1168C113.386 37.7604 113.378 38.3332 113.184 38.8353C112.996 39.3461 112.64 39.7857 112.116 40.1541C111.637 40.4918 111.168 40.6783 110.71 40.7135C110.258 40.7575 109.825 40.6975 109.409 40.5334C109 40.378 108.616 40.1658 108.257 39.8967L106.764 43.3348C106.557 43.8195 106.392 44.2158 106.27 44.5237C106.154 44.8403 106.079 45.0952 106.045 45.2885C106.012 45.4817 106.004 45.6372 106.021 45.7551C106.045 45.8818 106.091 45.9931 106.159 46.089L106.177 46.1152L106.046 46.2073L105.816 45.8802C105.534 45.479 105.309 45.1221 105.141 44.8097C104.979 44.5061 104.864 44.2219 104.795 43.9573C104.735 43.6866 104.725 43.4131 104.765 43.1369C104.821 42.8632 104.924 42.5558 105.075 42.2146L106.944 38.1988L106.456 37.5053L103.067 39.8905C102.841 40.0502 102.688 40.2035 102.609 40.3505C102.536 40.5062 102.516 40.6636 102.55 40.8225C102.598 40.9841 102.681 41.1477 102.797 41.3134L103.083 41.719L102.952 41.8111L99.968 37.572ZM107.149 38.2113C107.444 38.63 107.758 38.9106 108.093 39.053C108.428 39.1955 108.806 39.2037 109.226 39.0776C109.661 38.9541 110.153 38.699 110.703 38.3122C111.27 37.9131 111.68 37.5328 111.934 37.1713C112.197 36.8036 112.32 36.4305 112.301 36.0522C112.289 35.6826 112.135 35.2885 111.841 34.8698L111.297 34.0978L106.587 37.4132L107.149 38.2113Z" fill="#002B60"/>
<path d="M107.611 49.5514L107.763 49.5006L107.92 49.971C107.985 50.1632 108.066 50.3216 108.164 50.4463C108.272 50.5676 108.41 50.645 108.579 50.6785C108.748 50.7121 108.964 50.6848 109.227 50.5968L117.769 47.7379C118.042 47.6465 118.236 47.5366 118.35 47.4083C118.468 47.2901 118.527 47.1467 118.527 46.978C118.54 46.8161 118.515 46.639 118.45 46.4468L118.293 45.9765L118.445 45.9257L121.156 54.028L118.441 55.0381L118.39 54.8864L118.89 54.6682C119.396 54.4652 119.772 54.227 120.018 53.9534C120.267 53.69 120.403 53.3745 120.427 53.0068C120.45 52.6391 120.372 52.1872 120.192 51.6511L119.466 49.4814L114.52 51.1368L115.749 54.8086L115.597 54.8594L114.368 51.1876L108.936 53.0055L109.82 55.6456C109.999 56.1817 110.21 56.5947 110.454 56.8844C110.697 57.1742 110.999 57.3543 111.36 57.4247C111.731 57.4917 112.18 57.4541 112.706 57.3118L113.222 57.1897L113.272 57.3415L110.491 58.1544L107.611 49.5514Z" fill="#002B60"/>
</svg>
