<svg width="297" height="296" viewBox="0 0 297 296" fill="none" xmlns="http://www.w3.org/2000/svg">
<path d="M261.302 148.184L261.631 148.213L261.54 149.232C261.503 149.648 261.537 150.016 261.641 150.334C261.743 150.675 261.941 150.935 262.234 151.116C262.547 151.321 262.999 151.449 263.591 151.502L281.998 153.139C282.59 153.191 283.047 153.144 283.37 152.996C283.69 152.87 283.92 152.647 284.058 152.328C284.217 152.033 284.315 151.677 284.352 151.261L284.443 150.242L284.771 150.271L283.824 160.921L283.496 160.892L283.586 159.873C283.623 159.457 283.59 159.089 283.485 158.771C283.403 158.454 283.216 158.195 282.925 157.992C282.632 157.811 282.201 157.696 281.631 157.645L260.955 155.806L260.485 161.098C260.372 162.369 260.456 163.404 260.739 164.202C261.019 165.022 261.536 165.664 262.29 166.129C263.044 166.594 264.085 166.929 265.414 167.136L266.885 167.366L266.856 167.695L259.647 166.788L261.302 148.184Z" fill="#002B60"/>
<path d="M259.4 168.806L259.718 168.895L259.443 169.88C259.331 170.283 259.286 170.647 259.309 170.974C259.354 171.306 259.5 171.598 259.75 171.85C259.999 172.103 260.399 172.306 260.95 172.459L278.845 177.455C279.417 177.615 279.875 177.651 280.219 177.564C280.557 177.499 280.824 177.322 281.018 177.034C281.228 176.772 281.389 176.441 281.502 176.038L281.777 175.053L282.095 175.141L277.357 192.114L271.55 190.699L271.639 190.381L272.746 190.588C273.845 190.826 274.762 190.853 275.498 190.671C276.229 190.509 276.826 190.128 277.291 189.527C277.756 188.925 278.145 188.063 278.458 186.94L279.727 182.395L269.365 179.502L267.218 187.194L266.9 187.106L269.048 179.414L257.669 176.237L256.125 181.768C255.811 182.891 255.695 183.84 255.775 184.617C255.855 185.393 256.163 186.05 256.698 186.587C257.254 187.131 258.064 187.585 259.127 187.951L260.149 188.339L260.06 188.657L254.37 186.828L259.4 168.806Z" fill="#002B60"/>
<path d="M253.89 188.783L254.184 188.932L253.63 190.021C253.431 190.413 253.33 190.781 253.327 191.125C253.325 191.47 253.431 191.82 253.644 192.175C253.868 192.561 254.204 192.991 254.654 193.467L269.769 209.529L268.572 211.882L246.276 209.198C245.686 209.145 245.209 209.136 244.845 209.173C244.47 209.229 244.165 209.345 243.927 209.521C243.69 209.696 243.486 209.95 243.317 210.284L243.212 210.49L242.918 210.34L247.543 201.252L247.837 201.402L247.209 202.637C246.919 203.206 246.788 203.657 246.815 203.992C246.832 204.347 247.027 204.618 247.4 204.808C247.517 204.868 247.655 204.913 247.812 204.944C247.979 205.004 248.16 205.06 248.357 205.11C248.543 205.18 248.754 205.226 248.99 205.247L254.756 205.997L258.692 198.262L254.943 194.28C254.767 194.092 254.596 193.919 254.43 193.76C254.264 193.602 254.112 193.463 253.975 193.344C253.839 193.225 253.702 193.13 253.564 193.06C253.133 192.841 252.744 192.853 252.398 193.096C252.052 193.34 251.704 193.805 251.355 194.491L250.562 196.049L250.268 195.9L253.89 188.783ZM258.927 198.53L255.095 206.059L261.685 206.932C262.324 207.035 263.012 207.139 263.749 207.242C264.506 207.356 265.248 207.474 265.975 207.598C266.712 207.751 267.361 207.883 267.921 207.995C267.608 207.688 267.271 207.356 266.909 206.999C266.567 206.653 266.221 206.291 265.869 205.915C265.518 205.538 265.156 205.157 264.785 204.77C264.434 204.394 264.092 204.023 263.76 203.656L258.927 198.53Z" fill="#002B60"/>
<path d="M242.577 210.278L242.836 210.483L242.201 211.285C241.942 211.613 241.76 211.932 241.655 212.242C241.568 212.565 241.59 212.892 241.723 213.221C241.855 213.55 242.146 213.892 242.594 214.247L257.22 225.811C257.669 226.165 258.06 226.362 258.393 226.402C258.744 226.455 259.058 226.394 259.335 226.221C259.63 226.061 259.907 225.818 260.166 225.49L260.801 224.687L261.06 224.892L254.878 232.709C253.623 234.297 252.412 235.457 251.244 236.188C250.077 236.92 248.94 237.241 247.833 237.151C246.712 237.079 245.634 236.633 244.599 235.814C243.65 235.064 243.006 234.246 242.668 233.362C242.316 232.494 242.18 231.602 242.261 230.684C242.328 229.783 242.522 228.899 242.843 228.032L235.169 227.096C234.09 226.972 233.209 226.879 232.529 226.818C231.834 226.774 231.286 226.775 230.885 226.822C230.483 226.869 230.171 226.945 229.948 227.049C229.712 227.17 229.518 227.326 229.368 227.516L229.327 227.568L229.068 227.363L229.58 226.716C230.208 225.922 230.781 225.268 231.301 224.753C231.806 224.255 232.301 223.861 232.783 223.569C233.283 223.292 233.818 223.112 234.388 223.029C234.962 222.978 235.63 223.002 236.393 223.1L245.431 224.44L246.515 223.068L239.811 217.767C239.362 217.412 238.969 217.2 238.632 217.13C238.281 217.077 237.959 217.13 237.664 217.29C237.373 217.48 237.098 217.74 236.839 218.068L236.204 218.87L235.945 218.665L242.577 210.278ZM245.526 224.852C244.871 225.68 244.501 226.467 244.416 227.214C244.331 227.96 244.536 228.711 245.032 229.467C245.531 230.255 246.324 231.078 247.411 231.938C248.533 232.825 249.526 233.414 250.39 233.704C251.271 234.008 252.081 234.031 252.818 233.773C253.541 233.531 254.231 232.997 254.886 232.168L256.093 230.641L246.774 223.273L245.526 224.852Z" fill="#002B60"/>
<path d="M229.854 226.523L230.066 226.776L228.828 227.816C228.507 228.084 228.272 228.368 228.121 228.667C227.953 228.981 227.909 229.305 227.989 229.64C228.066 230.005 228.296 230.416 228.678 230.871L240.599 245.078C240.967 245.516 241.31 245.788 241.629 245.894C241.944 246.031 242.264 246.035 242.588 245.908C242.908 245.811 243.229 245.628 243.549 245.359L244.788 244.32L245 244.573L239.161 249.473L218.246 243.287L228.343 255.319C228.71 255.758 229.061 256.038 229.393 256.161C229.726 256.284 230.046 256.288 230.353 256.174C230.673 256.078 230.994 255.895 231.314 255.626L232.755 254.417L232.967 254.67L226.673 259.952L226.461 259.699L227.901 258.49C228.222 258.221 228.457 257.937 228.608 257.638C228.743 257.353 228.771 257.028 228.694 256.662C228.631 256.313 228.408 255.911 228.026 255.456L214.535 239.378L215.774 238.339L240.728 245.745L228.425 231.083C228.043 230.628 227.679 230.331 227.332 230.191C226.999 230.068 226.672 230.055 226.351 230.152C226.03 230.249 225.71 230.432 225.39 230.701L223.772 232.058L223.56 231.805L229.854 226.523Z" fill="#002B60"/>
<path d="M203.576 247.202L203.697 247.509L201.857 248.239C201.468 248.393 201.151 248.578 200.906 248.794C200.668 249.03 200.524 249.324 200.474 249.675C200.424 250.026 200.505 250.468 200.716 250.999L207.592 268.33C207.803 268.862 208.043 269.228 208.312 269.429C208.589 269.651 208.891 269.756 209.218 269.744C209.553 269.753 209.915 269.681 210.303 269.527L212.144 268.796L212.265 269.103L204.719 272.097L190.917 257.443L191.99 277.148L185.18 279.849L185.058 279.543L186.009 279.165C186.398 279.011 186.721 278.812 186.979 278.568C187.217 278.331 187.357 278.027 187.399 277.656C187.428 277.313 187.333 276.865 187.114 276.313L180.323 259.197C180.104 258.645 179.862 258.244 179.597 257.994C179.32 257.772 179.014 257.657 178.679 257.648C178.324 257.647 177.952 257.724 177.563 257.878L176.612 258.255L176.491 257.948L185.693 254.297L185.815 254.604L185.569 254.701C185.14 254.872 184.792 255.069 184.526 255.293C184.268 255.537 184.12 255.821 184.082 256.143C184.032 256.495 184.105 256.916 184.299 257.406L191.589 275.78L190.294 252.472L191.49 251.997L207.565 269.157L200.445 251.213C200.226 250.661 199.974 250.264 199.689 250.022C199.391 249.809 199.044 249.71 198.648 249.725C198.231 249.749 197.767 249.862 197.256 250.064L196.305 250.442L196.183 250.135L203.576 247.202Z" fill="#002B60"/>
<path d="M163.954 259.138C166.374 258.81 168.448 259.04 170.175 259.826C171.903 260.613 173.292 261.857 174.345 263.557C175.375 265.26 176.054 267.321 176.382 269.741C176.711 272.161 176.604 274.318 176.061 276.212C175.497 278.109 174.486 279.656 173.028 280.853C171.551 282.075 169.602 282.849 167.182 283.178C164.871 283.491 162.852 283.255 161.125 282.468C159.4 281.703 158.001 280.471 156.927 278.774C155.856 277.099 155.157 275.052 154.828 272.632C154.5 270.212 154.627 268.041 155.21 266.119C155.796 264.219 156.828 262.658 158.305 261.437C159.76 260.218 161.643 259.452 163.954 259.138ZM163.966 259.47C162.941 259.609 162.088 259.947 161.406 260.483C160.705 261.045 160.178 261.826 159.826 262.829C159.476 263.853 159.282 265.123 159.244 266.638C159.205 268.153 159.325 269.935 159.603 271.984C159.881 274.033 160.239 275.772 160.677 277.2C161.117 278.65 161.641 279.811 162.248 280.683C162.858 281.578 163.563 282.192 164.363 282.528C165.167 282.885 166.091 282.993 167.138 282.851C168.184 282.709 169.058 282.357 169.759 281.796C170.463 281.256 171 280.473 171.371 279.446C171.724 278.443 171.92 277.185 171.958 275.67C171.978 274.179 171.849 272.41 171.571 270.36C171.293 268.311 170.944 266.56 170.525 265.107C170.084 263.657 169.559 262.485 168.949 261.591C168.321 260.722 167.605 260.109 166.801 259.751C165.979 259.419 165.034 259.325 163.966 259.47Z" fill="#002B60"/>
<path d="M149.903 260.925L149.88 261.254L148.86 261.183C148.443 261.154 148.077 261.184 147.762 261.272C147.446 261.383 147.189 261.585 146.992 261.88C146.795 262.175 146.677 262.608 146.637 263.179L145.343 281.779C145.304 282.349 145.362 282.784 145.517 283.081C145.672 283.4 145.899 283.626 146.198 283.757C146.496 283.91 146.854 284.001 147.271 284.03L148.291 284.101L148.268 284.43L138.326 283.739C136.307 283.598 134.666 283.253 133.404 282.702C132.141 282.151 131.234 281.393 130.684 280.428C130.111 279.462 129.871 278.321 129.963 277.004C130.047 275.797 130.358 274.804 130.897 274.026C131.415 273.246 132.075 272.63 132.878 272.179C133.66 271.726 134.499 271.387 135.397 271.163L131.839 264.3C131.332 263.338 130.912 262.559 130.579 261.963C130.223 261.365 129.913 260.913 129.647 260.608C129.382 260.303 129.143 260.088 128.931 259.963C128.698 259.836 128.46 259.764 128.219 259.748L128.153 259.743L128.176 259.414L128.999 259.471C130.008 259.541 130.872 259.645 131.59 259.784C132.287 259.92 132.891 260.106 133.404 260.34C133.916 260.596 134.366 260.936 134.756 261.36C135.122 261.804 135.479 262.37 135.829 263.056L139.822 271.272L141.567 271.394L142.16 262.867C142.2 262.297 142.153 261.852 142.021 261.535C141.867 261.215 141.641 260.979 141.343 260.826C141.021 260.693 140.652 260.612 140.235 260.583L139.214 260.512L139.237 260.183L149.903 260.925ZM139.536 271.583C138.482 271.51 137.624 271.649 136.96 272C136.296 272.35 135.791 272.944 135.446 273.78C135.078 274.636 134.846 275.756 134.75 277.139C134.651 278.565 134.725 279.717 134.973 280.594C135.219 281.494 135.657 282.175 136.286 282.637C136.893 283.099 137.724 283.366 138.777 283.439L140.72 283.574L141.544 271.723L139.536 271.583Z" fill="#002B60"/>
<path d="M129.003 259.305L128.919 259.624L127.93 259.364C127.525 259.258 127.16 259.219 126.835 259.247C126.503 259.296 126.213 259.448 125.965 259.701C125.716 259.954 125.519 260.357 125.374 260.91L120.65 278.879C120.499 279.453 120.47 279.912 120.562 280.254C120.632 280.591 120.813 280.855 121.104 281.045C121.369 281.251 121.703 281.408 122.107 281.514L123.097 281.774L123.013 282.093L105.97 277.613L107.297 271.786L107.616 271.87L107.427 272.98C107.205 274.082 107.191 275 107.385 275.733C107.558 276.461 107.948 277.053 108.556 277.508C109.165 277.964 110.033 278.34 111.16 278.636L115.724 279.836L118.459 269.431L110.736 267.401L110.819 267.082L118.543 269.112L121.547 257.686L115.993 256.227C114.865 255.93 113.914 255.828 113.139 255.92C112.365 256.012 111.712 256.33 111.183 256.873C110.648 257.437 110.206 258.254 109.857 259.322L109.484 260.35L109.165 260.266L110.907 254.548L129.003 259.305Z" fill="#002B60"/>
<path d="M92.6751 246.304L92.4878 246.576L91.6454 245.995C91.3012 245.758 90.9649 245.606 90.6363 245.54C90.2897 245.462 89.9656 245.506 89.664 245.672C89.3319 245.844 88.9973 246.174 88.6603 246.664L78.1754 261.881C77.8383 262.37 77.6549 262.792 77.6251 263.145C77.5772 263.486 77.6579 263.796 77.8672 264.073C78.0459 264.357 78.3074 264.617 78.6516 264.854L79.494 265.435L79.3068 265.706L70.5023 259.64L70.6895 259.368L71.5319 259.949C71.8761 260.186 72.2125 260.338 72.541 260.404C72.8571 260.488 73.1749 260.453 73.4946 260.299C73.7962 260.133 74.1092 259.814 74.4338 259.343L86.2106 242.251L81.8355 239.236C80.7847 238.512 79.8425 238.077 79.0087 237.93C78.1568 237.77 77.3431 237.904 76.5677 238.332C75.7922 238.759 74.9876 239.501 74.1537 240.556L73.2296 241.722L72.9579 241.535L77.2944 235.707L92.6751 246.304Z" fill="#002B60"/>
<path d="M75.6927 234.469L75.4594 234.703L74.736 233.979C74.4404 233.684 74.1448 233.466 73.8493 233.326C73.5381 233.202 73.2115 233.186 72.8692 233.279C72.527 233.373 72.1536 233.622 71.7492 234.026L58.6118 247.163C58.1918 247.583 57.9351 247.965 57.8418 248.307C57.7329 248.633 57.7562 248.952 57.9118 249.264C58.0362 249.575 58.2463 249.878 58.5418 250.174L59.2652 250.897L59.0318 251.13L46.5712 238.67L50.6548 234.306L50.8881 234.539L50.1647 235.403C49.418 236.243 48.9436 237.028 48.7413 237.76C48.5235 238.475 48.5624 239.183 48.858 239.883C49.1536 240.583 49.7136 241.345 50.5381 242.17L53.8749 245.507L61.482 237.9L55.835 232.253L56.0684 232.019L61.7153 237.666L70.0691 229.313L66.0089 225.252C65.1844 224.428 64.4143 223.86 63.6988 223.549C62.9832 223.238 62.2598 223.183 61.5286 223.386C60.7819 223.603 59.9886 224.086 59.1485 224.832L58.3085 225.532L58.0751 225.299L62.462 221.239L75.6927 234.469Z" fill="#002B60"/>
<path d="M61.0788 219.937L60.8043 220.121L60.1264 219.105C59.8821 218.739 59.6104 218.471 59.3113 218.3C59.0122 218.13 58.6552 218.051 58.2403 218.063C57.7948 218.069 57.2549 218.152 56.6204 218.311L35.2161 223.634L33.7502 221.438L47.0004 203.307C47.3357 202.819 47.5764 202.407 47.7226 202.071C47.8566 201.717 47.9052 201.394 47.8684 201.101C47.8316 200.808 47.7094 200.506 47.5017 200.195L47.3735 200.003L47.6479 199.82L53.3098 208.301L53.0353 208.484L52.2658 207.331C51.9115 206.8 51.5818 206.465 51.2766 206.325C50.9592 206.166 50.6267 206.203 50.2791 206.435C50.1693 206.509 50.0626 206.606 49.9589 206.728C49.8248 206.844 49.6875 206.976 49.5473 207.122C49.3948 207.251 49.2516 207.412 49.1175 207.608L45.6425 212.269L50.4615 219.487L55.7691 218.165C56.0193 218.104 56.2541 218.04 56.4738 217.973C56.6934 217.905 56.8886 217.841 57.0594 217.78C57.2302 217.719 57.3797 217.646 57.5077 217.56C57.9103 217.291 58.09 216.947 58.0471 216.526C58.0041 216.105 57.7688 215.574 57.3413 214.933L56.3701 213.479L56.6446 213.296L61.0788 219.937ZM50.1138 219.56L45.4231 212.534L41.436 217.854C41.0337 218.361 40.6069 218.911 40.1558 219.503C39.6863 220.107 39.2199 220.696 38.7566 221.27C38.2627 221.838 37.8298 222.338 37.4579 222.772C37.8788 222.65 38.3333 222.518 38.8214 222.378C39.2911 222.249 39.7761 222.124 40.2764 222.001C40.7766 221.879 41.2861 221.75 41.8046 221.616C42.3049 221.494 42.796 221.377 43.2779 221.267L50.1138 219.56Z" fill="#002B60"/>
<path d="M47.8896 199.632L47.5842 199.757L47.1963 198.81C47.0378 198.424 46.8492 198.109 46.6307 197.865C46.3917 197.63 46.0964 197.49 45.7447 197.444C45.3929 197.398 44.9524 197.483 44.4231 197.7L27.1707 204.77C26.6414 204.987 26.2778 205.231 26.0799 205.503C25.8616 205.782 25.76 206.085 25.775 206.412C25.7697 206.747 25.8462 207.108 26.0048 207.495L26.3927 208.441L26.0873 208.567L22.3082 199.345C21.5407 197.472 21.1246 195.848 21.0599 194.471C20.9952 193.095 21.2735 191.947 21.8949 191.026C22.508 190.086 23.4252 189.365 24.6466 188.864C25.7662 188.406 26.7944 188.246 27.7312 188.385C28.6596 188.504 29.5039 188.824 30.2641 189.344C31.0159 189.844 31.691 190.447 32.2893 191.153L36.8697 184.925C37.5078 184.046 38.0206 183.324 38.4081 182.761C38.7872 182.178 39.0548 181.7 39.211 181.327C39.3672 180.954 39.4545 180.644 39.4728 180.399C39.4829 180.133 39.442 179.889 39.3502 179.665L39.3252 179.604L39.6305 179.479L39.9434 180.242C40.3271 181.178 40.6159 181.999 40.8098 182.704C40.9954 183.389 41.0966 184.013 41.1136 184.577C41.1103 185.149 41.0046 185.703 40.7967 186.24C40.5601 186.765 40.2115 187.336 39.751 187.953L34.1494 195.17L34.8126 196.788L42.7213 193.547C43.2506 193.33 43.6285 193.092 43.8551 192.833C44.0733 192.553 44.1851 192.246 44.1905 191.911C44.1671 191.564 44.0762 191.197 43.9177 190.81L43.5298 189.864L43.8351 189.738L47.8896 199.632ZM33.7439 195.051C33.3435 194.074 32.8391 193.365 32.2307 192.925C31.6224 192.485 30.867 192.295 29.9646 192.356C29.0336 192.404 27.9268 192.691 26.6443 193.217C25.3211 193.759 24.321 194.336 23.6438 194.946C22.9463 195.565 22.5294 196.259 22.3928 197.028C22.248 197.777 22.3758 198.64 22.7762 199.617L23.5145 201.418L34.5073 196.913L33.7439 195.051Z" fill="#002B60"/>
<path d="M40.0227 180.849L39.6983 180.91L39.4014 179.32C39.3247 178.909 39.1931 178.565 39.0068 178.286C38.8165 177.986 38.5558 177.789 38.2248 177.694C37.8681 177.581 37.3978 177.58 36.8139 177.689L18.5831 181.094C18.0208 181.199 17.6153 181.364 17.3665 181.59C17.092 181.798 16.931 182.074 16.8834 182.418C16.8102 182.745 16.812 183.114 16.8887 183.525L17.1856 185.115L16.8612 185.175L15.4616 177.682L31.124 162.503L15.6831 165.387C15.1208 165.492 14.7044 165.66 14.434 165.889C14.1635 166.119 14.0025 166.395 13.9509 166.718C13.8777 167.045 13.8795 167.414 13.9562 167.825L14.3016 169.674L13.9772 169.734L12.4685 161.657L12.7929 161.596L13.1383 163.445C13.215 163.856 13.3466 164.201 13.5329 164.48C13.7151 164.737 13.9846 164.921 14.3413 165.034C14.6764 165.15 15.1359 165.154 15.7198 165.045L36.351 161.191L36.6479 162.781L17.9386 180.878L36.7533 177.364C37.3372 177.255 37.7752 177.084 38.0672 176.85C38.3377 176.621 38.5095 176.343 38.5827 176.016C38.6559 175.689 38.6542 175.32 38.5774 174.909L38.1896 172.833L38.514 172.772L40.0227 180.849Z" fill="#002B60"/>
<path d="M34.8611 147.294L34.5343 147.249L34.808 145.288C34.8658 144.874 34.8615 144.507 34.7951 144.186C34.707 143.863 34.5225 143.593 34.2418 143.376C33.9611 143.159 33.5375 143.011 32.971 142.932L14.505 140.355C13.9385 140.276 13.5014 140.304 13.1938 140.438C12.8645 140.57 12.624 140.781 12.4725 141.071C12.2992 141.358 12.1836 141.708 12.1259 142.122L11.8522 144.083L11.5253 144.037L12.6475 135.997L32.2053 131.23L14.5406 122.434L15.5533 115.178L15.8801 115.224L15.7387 116.237C15.6809 116.651 15.6946 117.03 15.7797 117.375C15.8679 117.699 16.0632 117.97 16.3657 118.19C16.6495 118.385 17.0855 118.524 17.6738 118.606L35.911 121.152C36.4993 121.234 36.9675 121.221 37.3156 121.114C37.645 120.983 37.8964 120.773 38.0697 120.487C38.246 120.178 38.3631 119.817 38.4209 119.403L38.5623 118.39L38.8891 118.435L37.5206 128.24L37.1938 128.194L37.2303 127.933C37.2941 127.475 37.2944 127.076 37.2311 126.734C37.1459 126.389 36.9724 126.12 36.7104 125.928C36.4297 125.711 36.0279 125.566 35.505 125.493L15.9277 122.761L36.8363 133.143L36.6584 134.417L13.7989 139.923L32.9185 142.592C33.5068 142.674 33.9766 142.651 34.3277 142.522C34.6601 142.368 34.9176 142.115 35.1 141.763C35.2855 141.389 35.4162 140.93 35.4923 140.385L35.6337 139.372L35.9605 139.418L34.8611 147.294Z" fill="#002B60"/>
<path d="M44.015 106.794C43.1059 109.06 41.8828 110.75 40.3457 111.864C38.8086 112.978 37.0411 113.573 35.0433 113.649C33.0537 113.704 30.9257 113.277 28.6592 112.368C26.3927 111.459 24.5697 110.301 23.1902 108.894C21.8189 107.467 20.9728 105.824 20.6518 103.965C20.3186 102.077 20.6065 100 21.5156 97.7338C22.3837 95.5694 23.5864 93.9303 25.1235 92.8165C26.6402 91.6944 28.4015 91.0854 30.4075 90.9892C32.3931 90.8849 34.5191 91.2872 36.7856 92.1963C39.052 93.1054 40.8771 94.2878 42.2606 95.7435C43.6237 97.1909 44.4719 98.8585 44.8051 100.746C45.1465 102.614 44.8831 104.629 44.015 106.794ZM43.721 106.64C44.1059 105.681 44.2334 104.772 44.1035 103.914C43.9614 103.027 43.5414 102.183 42.8435 101.382C42.1253 100.572 41.117 99.7766 39.8186 98.9951C38.5202 98.2136 36.9113 97.4379 34.992 96.668C33.0726 95.8982 31.3839 95.3512 29.9257 95.0271C28.4471 94.6948 27.1788 94.5771 26.1206 94.6742C25.042 94.763 24.1593 95.0727 23.4724 95.6031C22.7652 96.1254 22.215 96.8765 21.8219 97.8566C21.4288 98.8367 21.3033 99.7701 21.4454 100.657C21.5672 101.535 21.983 102.389 22.6931 103.219C23.3909 104.021 24.389 104.812 25.6874 105.594C26.9736 106.347 28.5763 107.108 30.4957 107.878C32.4151 108.648 34.1099 109.209 35.5803 109.562C37.0589 109.894 38.3375 110.016 39.4161 109.927C40.4824 109.81 41.3692 109.49 42.0765 108.967C42.7715 108.417 43.3197 107.641 43.721 106.64Z" fill="#002B60"/>
<path d="M49.017 94.2786L48.7419 94.0964L49.3068 93.2435C49.5376 92.895 49.6922 92.562 49.7706 92.2444C49.8306 91.9148 49.7808 91.5915 49.6212 91.2747C49.4616 90.9579 49.1434 90.6416 48.6665 90.3257L33.1219 80.03C32.645 79.7142 32.2387 79.5507 31.9031 79.5395C31.5491 79.5161 31.2413 79.6025 30.9795 79.7985C30.6994 79.9824 30.4439 80.2486 30.2131 80.5971L29.6482 81.45L29.373 81.2678L34.8762 72.959C35.9939 71.2715 37.1037 70.0143 38.2056 69.1872C39.3075 68.3602 40.4137 67.945 41.5242 67.9416C42.6469 67.92 43.7585 68.2736 44.859 69.0025C45.8678 69.6706 46.5778 70.4312 46.9892 71.2842C47.4128 72.1189 47.6229 72.9969 47.6195 73.9183C47.6283 74.8213 47.509 75.7186 47.2615 76.6102L54.9872 76.8982C56.0734 76.9315 56.9582 76.9502 57.6416 76.9542C58.3371 76.94 58.8831 76.8925 59.2795 76.812C59.6758 76.7315 59.9806 76.6299 60.1938 76.5072C60.4192 76.3662 60.5986 76.1948 60.7323 75.9931L60.7687 75.9381L61.0438 76.1203L60.5883 76.8081C60.0295 77.6518 59.5129 78.352 59.0387 78.9087C58.5765 79.447 58.1172 79.8816 57.6605 80.2125C57.1856 80.5312 56.6676 80.7555 56.1066 80.8853C55.5395 80.9847 54.8714 81.0172 54.1025 80.9829L44.9848 80.4062L44.019 81.8644L51.1447 86.584C51.6216 86.8999 52.031 87.0786 52.3728 87.1203C52.7268 87.1437 53.0438 87.0634 53.324 86.8795C53.5979 86.6651 53.8503 86.3837 54.0811 86.0352L54.646 85.1823L54.9211 85.3645L49.017 94.2786ZM44.8554 80.0039C45.4386 79.1235 45.7412 78.308 45.7633 77.5574C45.7855 76.8068 45.5179 76.0754 44.9605 75.3632C44.3969 74.6205 43.5373 73.8665 42.3818 73.1011C41.1896 72.3115 40.1508 71.8082 39.2654 71.5912C38.3616 71.362 37.5533 71.4072 36.8403 71.7266C36.1395 72.0277 35.4976 72.6184 34.9145 73.4988L33.8393 75.1221L43.7439 81.6822L44.8554 80.0039Z" fill="#002B60"/>
<path d="M60.4885 77.0447L60.2518 76.8148L60.9646 76.081C61.2558 75.7812 61.4693 75.4825 61.605 75.1849C61.7249 74.872 61.7357 74.5451 61.6374 74.2043C61.5391 73.8634 61.2848 73.4937 60.8745 73.0952L47.5476 60.1501C47.1215 59.7363 46.7367 59.4851 46.3932 59.3968C46.0649 59.2927 45.7464 59.3206 45.4376 59.4807C45.1283 59.6097 44.828 59.824 44.5368 60.1239L43.824 60.8577L43.5873 60.6278L55.8655 47.9874L60.2879 52.0071L60.058 52.2438L59.1842 51.533C58.3334 50.7986 57.541 50.3356 56.807 50.144C56.0883 49.9366 55.3811 49.9858 54.6855 50.2915C53.9898 50.5972 53.2358 51.1683 52.4233 52.0047L49.1354 55.3896L56.8522 62.8854L62.4164 57.1569L62.6532 57.3869L57.0889 63.1153L65.5631 71.3468L69.5639 67.228C70.3763 66.3916 70.9329 65.6134 71.2336 64.8933C71.5343 64.1733 71.5782 63.4492 71.3654 62.7211C71.1368 61.9776 70.643 61.1913 69.8842 60.3622L69.172 59.5325L69.402 59.2958L73.5255 63.6232L60.4885 77.0447Z" fill="#002B60"/>
<path d="M89.6724 51.4926L89.5271 51.1963L90.4456 50.7458C90.8209 50.5618 91.1177 50.3427 91.3361 50.0885C91.5743 49.8247 91.6947 49.5206 91.6973 49.1763C91.71 48.8025 91.5856 48.3489 91.324 47.8156L83.1865 31.2238C82.9249 30.6904 82.6473 30.3243 82.3536 30.1252C82.0797 29.9165 81.7704 29.8354 81.4257 29.882C81.0911 29.8991 80.7361 29.9997 80.3608 30.1838L79.4423 30.6342L79.297 30.3379L88.8966 25.6298L89.0419 25.9261L88.1234 26.3765C87.7481 26.5606 87.4513 26.7797 87.2329 27.0338C87.0048 27.2682 86.8795 27.5624 86.8571 27.9165C86.8545 28.2608 86.9791 28.6898 87.231 29.2033L96.3712 47.8396L101.141 45.5C102.287 44.9381 103.128 44.3296 103.664 43.6745C104.22 43.0098 104.502 42.2346 104.509 41.3492C104.515 40.4637 104.263 39.3992 103.751 38.1555L103.186 36.7787L103.482 36.6334L106.442 43.2678L89.6724 51.4926Z" fill="#002B60"/>
<path d="M107.958 42.4857L107.869 42.1679L108.854 41.8928C109.257 41.7804 109.592 41.6298 109.859 41.4411C110.12 41.2311 110.294 40.9542 110.381 40.6102C110.467 40.2662 110.434 39.8187 110.28 39.2678L105.285 21.373C105.125 20.8008 104.919 20.3901 104.667 20.1408C104.435 19.8855 104.146 19.7493 103.799 19.7321C103.467 19.6877 103.099 19.7218 102.697 19.8341L101.711 20.1092L101.623 19.7914L118.596 15.0533L120.392 20.7531L120.074 20.8418L119.677 19.7878C119.312 18.7248 118.861 17.9258 118.323 17.3907C117.807 16.8496 117.171 16.536 116.416 16.4498C115.661 16.3636 114.722 16.4773 113.599 16.7908L109.054 18.0596L111.946 28.4214L119.638 26.2742L119.727 26.5921L112.035 28.7393L115.211 40.1183L120.742 38.5744C121.865 38.2609 122.738 37.8688 123.36 37.3981C123.982 36.9275 124.385 36.324 124.568 35.5877C124.745 34.8303 124.714 33.9024 124.476 32.8039L124.278 31.7284L124.596 31.6397L125.98 37.4549L107.958 42.4857Z" fill="#002B60"/>
<path d="M128.31 36.705L128.286 36.3759L129.504 36.2865C129.942 36.2543 130.31 36.1501 130.606 35.974C130.901 35.7978 131.146 35.5262 131.34 35.159C131.554 34.7683 131.748 34.2577 131.922 33.6272L137.84 12.3798L140.473 12.1865L149.719 32.6514C149.978 33.1839 150.218 33.5964 150.438 33.8891C150.68 34.1801 150.938 34.3818 151.211 34.4941C151.483 34.6064 151.806 34.6489 152.179 34.6215L152.41 34.6046L152.434 34.9337L142.264 35.6804L142.24 35.3513L143.622 35.2498C144.259 35.2031 144.713 35.0815 144.985 34.885C145.28 34.687 145.412 34.3795 145.381 33.9626C145.371 33.831 145.339 33.6899 145.284 33.5396C145.249 33.3657 145.202 33.1816 145.144 32.9873C145.107 32.7915 145.037 32.5871 144.933 32.3741L142.591 27.0534L133.935 27.6889L132.469 32.9584C132.399 33.2062 132.339 33.4422 132.289 33.6665C132.239 33.8907 132.199 34.0922 132.168 34.271C132.137 34.4497 132.127 34.6159 132.138 34.7695C132.174 35.2522 132.385 35.5786 132.773 35.7487C133.16 35.9187 133.738 35.9756 134.506 35.9192L136.25 35.7911L136.275 36.1202L128.31 36.705ZM134.042 27.3502L142.468 26.7315L139.803 20.6403C139.561 20.0404 139.293 19.3983 139 18.7139C138.706 18.0076 138.423 17.3114 138.152 16.6254C137.901 15.9159 137.679 15.2925 137.485 14.7552C137.384 15.1818 137.275 15.642 137.156 16.136C137.037 16.608 136.907 17.0918 136.767 17.5874C136.627 18.083 136.487 18.5896 136.349 19.1071C136.209 19.6027 136.068 20.0873 135.926 20.561L134.042 27.3502Z" fill="#002B60"/>
<path d="M152.773 35.1753L152.815 34.8479L153.829 34.9777C154.244 35.0307 154.611 35.0221 154.93 34.9521C155.253 34.8602 155.521 34.6727 155.734 34.3895C155.948 34.1063 156.091 33.681 156.164 33.1136L158.528 14.6192C158.601 14.0518 158.568 13.6151 158.429 13.3091C158.294 12.9812 158.08 12.7432 157.789 12.5951C157.5 12.4251 157.148 12.3136 156.734 12.2606L155.719 12.1308L155.761 11.8035L165.646 13.0673C167.654 13.324 169.272 13.7638 170.501 14.3867C171.73 15.0095 172.591 15.8183 173.085 16.813C173.601 17.8104 173.775 18.9638 173.608 20.2732C173.454 21.4734 173.086 22.4465 172.503 23.1926C171.941 23.9414 171.246 24.518 170.418 24.9222C169.612 25.3293 168.755 25.6189 167.845 25.791L171.002 32.8482C171.452 33.8373 171.827 34.6393 172.125 35.2541C172.445 35.8717 172.729 36.3405 172.976 36.6604C173.224 36.9804 173.45 37.2089 173.654 37.3459C173.88 37.4857 174.113 37.5709 174.353 37.6016L174.419 37.61L174.377 37.9373L173.559 37.8327C172.555 37.7043 171.698 37.5505 170.989 37.3711C170.302 37.1946 169.709 36.9746 169.211 36.7113C168.715 36.4261 168.285 36.0606 167.92 35.6148C167.58 35.1499 167.256 34.565 166.947 33.8602L163.434 25.4266L161.699 25.2048L160.615 33.6828C160.543 34.2502 160.563 34.6964 160.677 35.0214C160.813 35.3492 161.025 35.5982 161.313 35.7682C161.627 35.9191 161.991 36.0211 162.405 36.0741L163.42 36.2038L163.378 36.5312L152.773 35.1753ZM163.738 25.1327C164.785 25.2666 165.651 25.1777 166.334 24.8658C167.017 24.5539 167.554 23.9905 167.947 23.1757C168.364 22.3419 168.661 21.2376 168.836 19.8627C169.018 18.4443 169.01 17.29 168.813 16.3999C168.619 15.4879 168.222 14.7828 167.62 14.2844C167.04 13.7889 166.226 13.4742 165.179 13.3403L163.248 13.0934L161.741 24.8774L163.738 25.1327Z" fill="#002B60"/>
<path d="M173.264 37.5831L173.372 37.2712L174.9 37.7993C175.295 37.9358 175.66 37.9919 175.994 37.9678C176.349 37.9508 176.65 37.8218 176.896 37.581C177.17 37.3266 177.404 36.9186 177.598 36.3572L183.654 18.8279C183.841 18.2873 183.898 17.8531 183.825 17.5253C183.78 17.1839 183.62 16.9073 183.344 16.6956C183.096 16.4702 182.774 16.2893 182.379 16.1528L180.851 15.6248L180.959 15.3129L188.164 17.8022L193.611 38.9217L198.74 24.0749C198.927 23.5342 198.987 23.0896 198.922 22.741C198.856 22.3925 198.695 22.1159 198.44 21.9113C198.192 21.686 197.871 21.5051 197.476 21.3686L195.698 20.7543L195.805 20.4424L203.572 23.1257L203.464 23.4376L201.686 22.8234C201.291 22.6869 200.927 22.6307 200.592 22.6549C200.279 22.6863 199.985 22.8292 199.711 23.0836C199.444 23.3173 199.214 23.7148 199.02 24.2762L192.166 44.1136L190.638 43.5856L184.16 18.3743L177.91 36.465C177.716 37.0264 177.648 37.4918 177.707 37.8612C177.773 38.2098 177.93 38.4968 178.178 38.7221C178.426 38.9474 178.747 39.1284 179.142 39.2649L181.139 39.9546L181.031 40.2665L173.264 37.5831Z" fill="#002B60"/>
<path d="M204.74 49.491L204.941 49.2292L206.512 50.4344C206.844 50.6889 207.165 50.8662 207.476 50.9664C207.801 51.0492 208.127 51.0219 208.454 50.8847C208.781 50.7475 209.119 50.4519 209.467 49.9981L220.817 35.2054C221.165 34.7515 221.356 34.3576 221.391 34.0236C221.438 33.6721 221.374 33.3589 221.196 33.0842C221.032 32.792 220.784 32.5186 220.453 32.2642L218.882 31.059L219.083 30.7971L225.523 35.7387L220.025 55.1035L236.389 44.075L242.201 48.5345L242 48.7963L241.189 48.1736C240.857 47.9191 240.52 47.7438 240.178 47.6477C239.853 47.5649 239.521 47.6009 239.18 47.7556C238.871 47.9062 238.535 48.2171 238.173 48.6884L226.964 63.2979C226.603 63.7692 226.383 64.1826 226.304 64.5381C226.256 64.8896 226.314 65.2115 226.478 65.5037C226.66 65.8093 226.916 66.0893 227.248 66.3438L228.06 66.9665L227.859 67.2283L220.004 61.202L220.205 60.9402L220.415 61.1009C220.781 61.3821 221.129 61.5796 221.458 61.6932C221.8 61.7893 222.119 61.7708 222.415 61.6376C222.742 61.5004 223.067 61.2223 223.388 60.8034L235.42 45.1205L216.077 58.1889L215.056 57.4055L221.54 34.8041L209.789 50.1204C209.428 50.5917 209.216 51.0118 209.155 51.3808C209.125 51.7457 209.218 52.0943 209.434 52.4267C209.668 52.7725 210.003 53.1128 210.439 53.4476L211.251 54.0703L211.05 54.3321L204.74 49.491Z" fill="#002B60"/>
<path d="M235.17 76.9916C233.635 75.0927 232.756 73.2006 232.533 71.3155C232.31 69.4304 232.653 67.5973 233.561 65.8162C234.483 64.0522 235.893 62.4025 237.792 60.8671C239.691 59.3317 241.591 58.3048 243.492 57.7864C245.406 57.2851 247.253 57.3476 249.033 57.974C250.844 58.6036 252.516 59.8679 254.052 61.7668C255.518 63.5802 256.363 65.4294 256.586 67.3146C256.826 69.1859 256.498 71.0206 255.604 72.8188C254.727 74.6032 253.339 76.263 251.44 77.7985C249.541 79.3339 247.619 80.3506 245.673 80.8486C243.745 81.3328 241.875 81.2601 240.065 80.6304C238.268 80.0179 236.637 78.805 235.17 76.9916ZM235.448 76.8098C236.098 77.6138 236.829 78.1683 237.642 78.4733C238.485 78.7816 239.427 78.8265 240.467 78.6081C241.524 78.3758 242.71 77.8834 244.025 77.131C245.341 76.3786 246.803 75.3522 248.411 74.052C250.019 72.7517 251.32 71.5441 252.314 70.4291C253.325 69.3003 254.046 68.2503 254.477 67.2792C254.926 66.2942 255.086 65.3725 254.958 64.5142C254.847 63.6421 254.459 62.7955 253.795 61.9743C253.131 61.1532 252.378 60.5885 251.534 60.2802C250.708 59.9581 249.759 59.9046 248.689 60.1198C247.649 60.3382 246.471 60.8236 245.155 61.5761C243.871 62.3318 242.425 63.3598 240.817 64.66C239.208 65.9603 237.892 67.1663 236.867 68.278C235.856 69.4068 235.126 70.4637 234.678 71.4487C234.26 72.4369 234.107 73.3671 234.218 74.2393C234.36 75.1147 234.77 75.9715 235.448 76.8098Z" fill="#002B60"/>
<path d="M243.984 87.9186L244.277 87.7678L244.745 88.6778C244.936 89.0496 245.15 89.3473 245.389 89.5711C245.647 89.7847 245.953 89.8995 246.308 89.9153C246.662 89.9311 247.094 89.8083 247.602 89.547L264.187 81.0279C264.696 80.7666 265.038 80.4923 265.212 80.2051C265.405 79.9078 265.481 79.597 265.438 79.2728C265.414 78.9385 265.307 78.5855 265.116 78.2136L264.649 77.3037L264.942 77.1529L269.496 86.0178C270.421 87.8182 270.974 89.4012 271.156 90.7669C271.338 92.1326 271.159 93.3005 270.619 94.2706C270.088 95.2603 269.236 96.0567 268.062 96.6598C266.986 97.2127 265.975 97.4598 265.03 97.4012C264.094 97.3622 263.226 97.1158 262.424 96.662C261.632 96.2279 260.908 95.6848 260.251 95.0327L256.22 101.629C255.66 102.56 255.21 103.323 254.872 103.917C254.545 104.531 254.319 105.03 254.195 105.415C254.071 105.8 254.011 106.116 254.014 106.362C254.026 106.627 254.088 106.867 254.198 107.083L254.229 107.141L253.935 107.292L253.558 106.558C253.096 105.658 252.738 104.865 252.484 104.179C252.241 103.513 252.087 102.899 252.022 102.339C251.976 101.769 252.034 101.208 252.195 100.655C252.386 100.112 252.685 99.5131 253.091 98.8593L258.055 91.1897L257.256 89.6339L249.653 93.5391C249.144 93.8005 248.788 94.07 248.584 94.3477C248.391 94.645 248.306 94.9608 248.329 95.2951C248.382 95.6389 248.504 95.9967 248.695 96.3685L249.162 97.2785L248.869 97.4293L243.984 87.9186ZM258.469 91.2737C258.952 92.2131 259.515 92.876 260.158 93.2626C260.802 93.6492 261.571 93.7736 262.465 93.636C263.388 93.5079 264.467 93.1272 265.699 92.4939C266.971 91.8406 267.919 91.1809 268.541 90.5149C269.183 89.8388 269.539 89.1118 269.61 88.3337C269.69 87.5752 269.489 86.7263 269.006 85.787L268.117 84.0551L257.549 89.4832L258.469 91.2737Z" fill="#002B60"/>
<path d="M253.387 106.355L253.704 106.261L253.994 107.242C254.112 107.643 254.268 107.975 254.461 108.24C254.674 108.498 254.954 108.667 255.299 108.749C255.645 108.83 256.091 108.79 256.64 108.628L274.457 103.362C275.027 103.194 275.434 102.981 275.68 102.725C275.932 102.49 276.063 102.199 276.075 101.851C276.115 101.519 276.075 101.152 275.957 100.751L275.667 99.7699L275.983 99.6763L280.978 116.576L275.306 118.459L275.212 118.142L276.26 117.729C277.317 117.348 278.11 116.884 278.636 116.339C279.17 115.814 279.474 115.174 279.548 114.417C279.623 113.661 279.495 112.724 279.165 111.606L277.827 107.08L267.51 110.129L269.774 117.788L269.457 117.881L267.194 110.223L255.864 113.571L257.492 119.078C257.822 120.196 258.228 121.063 258.708 121.678C259.188 122.293 259.797 122.687 260.536 122.858C261.296 123.023 262.223 122.979 263.318 122.724L264.391 122.51L264.484 122.827L258.691 124.298L253.387 106.355Z" fill="#002B60"/>
</svg>
