<svg width="175" height="175" viewBox="0 0 175 175" fill="none" xmlns="http://www.w3.org/2000/svg">
<path d="M153.219 94.3594C153.344 92.8847 153.754 91.6818 154.449 90.7506C155.144 89.8195 156.057 89.1545 157.188 88.7556C158.331 88.3712 159.634 88.2411 161.095 88.3654C162.543 88.4886 163.792 88.8357 164.84 89.4066C165.901 89.992 166.695 90.8089 167.221 91.8573C167.76 92.9201 167.964 94.2154 167.834 95.7432C167.756 96.6599 167.584 97.4281 167.317 98.0477C167.063 98.6684 166.743 99.1296 166.356 99.4312C165.983 99.734 165.583 99.8673 165.158 99.8311C164.68 99.7904 164.312 99.5584 164.053 99.1349C163.807 98.7259 163.713 98.176 163.772 97.4852C164.649 97.5598 165.36 97.5333 165.906 97.4058C166.466 97.2794 166.887 97.0476 167.17 96.7104C167.453 96.3732 167.619 95.9123 167.669 95.3277C167.737 94.5306 167.533 93.8509 167.059 93.2887C166.597 92.7409 165.852 92.3028 164.823 91.9744C163.807 91.6471 162.495 91.4151 160.887 91.2783C159.253 91.1393 157.893 91.1641 156.806 91.3526C155.733 91.5424 154.919 91.908 154.365 92.4496C153.809 93.0045 153.491 93.7536 153.411 94.6969C153.331 95.6401 153.518 96.4255 153.973 97.053C154.441 97.6949 155.196 98.174 156.24 98.4903C156.159 98.6574 156.041 98.7812 155.887 98.8617C155.746 98.9434 155.57 98.9752 155.357 98.9571C155.091 98.9345 154.819 98.8311 154.54 98.6468C154.275 98.4636 154.024 98.1881 153.788 97.82C153.565 97.4531 153.397 96.9839 153.285 96.4124C153.173 95.8408 153.151 95.1565 153.219 94.3594Z" fill="#002B60"/>
<path d="M151.065 105.483C151.474 104.06 152.107 102.966 152.965 102.2C153.823 101.434 154.852 100.966 156.052 100.798C157.248 100.642 158.558 100.769 159.98 101.178C161.403 101.587 162.573 102.173 163.491 102.936C164.406 103.712 165.017 104.651 165.325 105.752C165.642 106.87 165.596 108.14 165.188 109.562C164.797 110.921 164.173 111.983 163.315 112.749C162.47 113.519 161.445 113.994 160.242 114.176C159.051 114.361 157.744 114.249 156.322 113.84C154.9 113.431 153.726 112.83 152.803 112.038C151.892 111.249 151.278 110.295 150.961 109.178C150.64 108.073 150.675 106.841 151.065 105.483ZM151.252 105.557C151.079 106.159 151.058 106.715 151.189 107.225C151.329 107.751 151.634 108.234 152.104 108.674C152.587 109.118 153.244 109.536 154.075 109.927C154.906 110.318 155.924 110.687 157.128 111.033C158.333 111.38 159.385 111.606 160.284 111.711C161.195 111.821 161.967 111.814 162.599 111.69C163.244 111.57 163.757 111.329 164.139 110.967C164.533 110.609 164.819 110.122 164.995 109.507C165.172 108.892 165.19 108.322 165.05 107.796C164.923 107.274 164.619 106.784 164.14 106.327C163.67 105.887 163.02 105.471 162.189 105.08C161.367 104.705 160.354 104.344 159.149 103.998C157.945 103.652 156.888 103.417 155.98 103.295C155.068 103.186 154.29 103.191 153.645 103.311C153.009 103.447 152.494 103.695 152.1 104.053C151.715 104.428 151.432 104.929 151.252 105.557Z" fill="#002B60"/>
<path d="M149.201 112.721L149.376 112.817L148.906 113.677C148.784 113.899 148.714 114.111 148.695 114.313C148.669 114.527 148.716 114.72 148.835 114.891C148.959 115.081 149.179 115.262 149.495 115.435L159.356 120.828C159.66 120.995 159.914 121.073 160.117 121.062C160.326 121.07 160.507 121.002 160.662 120.859C160.821 120.733 160.962 120.559 161.083 120.337L161.554 119.477L161.729 119.573L159.513 123.627L146.343 124.744L154.695 129.312C154.999 129.479 155.259 129.56 155.474 129.556C155.689 129.552 155.87 129.484 156.018 129.352C156.178 129.227 156.319 129.053 156.44 128.831L156.987 127.83L157.162 127.926L154.774 132.296L154.598 132.2L155.145 131.2C155.266 130.977 155.337 130.765 155.356 130.563C155.369 130.373 155.314 130.183 155.189 129.993C155.077 129.81 154.862 129.632 154.547 129.459L143.387 123.355L143.857 122.495L159.576 121.177L149.399 115.61C149.083 115.437 148.812 115.35 148.585 115.347C148.37 115.352 148.183 115.416 148.023 115.542C147.863 115.667 147.723 115.841 147.601 116.063L146.987 117.186L146.812 117.09L149.201 112.721Z" fill="#002B60"/>
<path d="M140.54 127.278L140.694 127.406L140.297 127.882C140.126 128.087 140.012 128.287 139.954 128.481C139.896 128.676 139.909 128.869 139.993 129.06C140.078 129.27 140.259 129.49 140.536 129.721L150.155 137.735L151.063 136.644C151.507 136.111 151.803 135.62 151.951 135.171C152.091 134.732 152.076 134.303 151.905 133.883C151.734 133.463 151.405 133.015 150.916 132.538L150.327 131.996L150.455 131.842L153.252 134.328L145.611 143.503L142.648 141.217L142.776 141.063L143.429 141.529C143.977 141.934 144.473 142.182 144.917 142.274C145.361 142.366 145.79 142.299 146.205 142.072C146.611 141.855 147.036 141.48 147.48 140.947L148.401 139.84L138.782 131.826C138.506 131.596 138.261 131.453 138.047 131.396C137.836 131.359 137.639 131.386 137.458 131.478C137.269 131.581 137.093 131.729 136.931 131.924L136.534 132.401L136.381 132.273L140.54 127.278Z" fill="#002B60"/>
<path d="M135.22 133.982L135.347 134.136L134.775 134.606C134.569 134.775 134.423 134.955 134.338 135.145C134.253 135.336 134.226 135.556 134.259 135.806C134.289 136.074 134.371 136.395 134.505 136.768L138.991 149.361L137.754 150.376L126.03 143.466C125.716 143.293 125.453 143.172 125.242 143.104C125.02 143.044 124.822 143.034 124.648 143.074C124.474 143.113 124.299 143.205 124.124 143.349L124.015 143.438L123.889 143.283L128.665 139.362L128.792 139.517L128.143 140.05C127.844 140.295 127.661 140.514 127.595 140.706C127.519 140.907 127.561 141.106 127.721 141.301C127.772 141.363 127.837 141.422 127.917 141.477C127.995 141.551 128.082 141.626 128.179 141.702C128.266 141.786 128.372 141.863 128.497 141.932L131.515 143.75L135.581 140.413L134.468 137.29C134.416 137.143 134.363 137.005 134.309 136.877C134.256 136.748 134.205 136.634 134.158 136.535C134.111 136.435 134.058 136.35 133.999 136.277C133.813 136.051 133.594 135.963 133.343 136.014C133.092 136.065 132.786 136.239 132.425 136.535L131.606 137.207L131.479 137.053L135.22 133.982ZM135.646 140.618L131.689 143.867L135.135 145.954C135.464 146.167 135.821 146.391 136.205 146.628C136.598 146.875 136.981 147.121 137.354 147.367C137.726 147.631 138.054 147.862 138.337 148.06C138.239 147.814 138.132 147.547 138.018 147.261C137.913 146.986 137.808 146.701 137.705 146.406C137.601 146.112 137.493 145.812 137.381 145.507C137.277 145.213 137.178 144.924 137.083 144.64L135.646 140.618Z" fill="#002B60"/>
<path d="M117.857 146.135C119.156 145.425 120.385 145.102 121.545 145.166C122.705 145.231 123.763 145.625 124.721 146.347C125.673 147.088 126.5 148.102 127.204 149.389C127.901 150.664 128.301 151.896 128.405 153.086C128.503 154.294 128.26 155.407 127.677 156.425C127.089 157.461 126.122 158.347 124.776 159.083C123.969 159.524 123.234 159.805 122.57 159.925C121.913 160.057 121.351 160.044 120.886 159.888C120.427 159.744 120.096 159.485 119.891 159.111C119.661 158.689 119.651 158.254 119.861 157.805C120.066 157.374 120.473 156.992 121.081 156.659C121.503 157.431 121.918 158.009 122.326 158.394C122.74 158.791 123.166 159.014 123.603 159.063C124.041 159.113 124.517 158.997 125.031 158.715C125.733 158.331 126.188 157.787 126.394 157.081C126.596 156.393 126.549 155.53 126.255 154.49C125.966 153.462 125.435 152.241 124.661 150.825C123.875 149.386 123.103 148.266 122.345 147.464C121.594 146.674 120.84 146.198 120.082 146.035C119.313 145.878 118.513 146.027 117.682 146.481C116.852 146.936 116.301 147.526 116.029 148.252C115.752 148.996 115.77 149.891 116.083 150.935C115.899 150.96 115.731 150.93 115.578 150.846C115.432 150.774 115.308 150.645 115.206 150.457C115.078 150.223 115.014 149.939 115.014 149.605C115.02 149.283 115.111 148.921 115.287 148.521C115.47 148.132 115.768 147.733 116.183 147.324C116.597 146.915 117.156 146.519 117.857 146.135Z" fill="#002B60"/>
<path d="M111.596 149.265L111.659 149.455L111.071 149.65C110.818 149.735 110.615 149.844 110.463 149.979C110.312 150.114 110.221 150.285 110.191 150.491C110.153 150.715 110.191 150.997 110.305 151.339L114.258 163.218L115.606 162.77C116.263 162.551 116.774 162.289 117.136 161.986C117.487 161.687 117.7 161.314 117.776 160.867C117.852 160.42 117.808 159.865 117.644 159.203L117.429 158.431L117.619 158.368L118.686 161.955L107.357 165.727L106.044 162.223L106.233 162.159L106.543 162.899C106.796 163.532 107.086 164.004 107.415 164.316C107.744 164.629 108.144 164.797 108.616 164.823C109.076 164.853 109.635 164.758 110.292 164.539L111.659 164.084L107.705 152.205C107.591 151.863 107.459 151.612 107.307 151.452C107.147 151.308 106.965 151.228 106.763 151.211C106.548 151.199 106.32 151.232 106.08 151.312L105.492 151.508L105.429 151.318L111.596 149.265Z" fill="#002B60"/>
<path d="M98.7739 153.309L98.7816 153.509L97.5825 153.555C97.3294 153.565 97.1108 153.607 96.9269 153.68C96.7434 153.768 96.602 153.906 96.5026 154.097C96.4032 154.288 96.3602 154.556 96.3736 154.903L96.8095 166.194C96.8229 166.541 96.8862 166.798 96.9994 166.968C97.1132 167.15 97.2647 167.271 97.4538 167.33C97.6434 167.403 97.8648 167.434 98.1179 167.425L99.317 167.378L99.3247 167.578L94.4084 167.768L89.4743 156.61L86.1146 168.088L81.6779 168.26L81.6702 168.06L82.2897 168.036C82.5429 168.026 82.7678 167.978 82.9646 167.89C83.148 167.803 83.2892 167.657 83.3881 167.453C83.4741 167.263 83.5102 166.988 83.4963 166.628L83.0658 155.477C83.0519 155.117 82.9945 154.839 82.8935 154.643C82.7797 154.46 82.628 154.333 82.4384 154.26C82.2355 154.188 82.0075 154.157 81.7543 154.166L81.1348 154.19L81.1271 153.99L87.1226 153.759L87.1303 153.959L86.9704 153.965C86.6906 153.976 86.4521 154.018 86.2548 154.093C86.058 154.18 85.9164 154.313 85.8298 154.489C85.7304 154.68 85.6869 154.935 85.6992 155.255L86.1614 167.226L90.1203 153.643L90.8998 153.613L96.6274 166.662L96.1761 154.97C96.1622 154.611 96.0981 154.333 95.9838 154.137C95.8567 153.955 95.6783 153.829 95.4487 153.758C95.2058 153.687 94.9178 153.658 94.5847 153.671L93.9652 153.695L93.9575 153.495L98.7739 153.309Z" fill="#002B60"/>
<path d="M81.1617 153.65L81.1257 153.847L80.5158 153.735C80.2666 153.69 80.0442 153.683 79.8486 153.715C79.6506 153.76 79.4823 153.865 79.3439 154.029C79.2054 154.194 79.105 154.446 79.0426 154.787L77.0181 165.864C76.9534 166.218 76.9567 166.496 77.0281 166.699C77.0863 166.9 77.2078 167.051 77.3926 167.152C77.5618 167.264 77.771 167.343 78.0202 167.389L78.6301 167.5L78.5941 167.697L68.0884 165.776L68.6212 162.193L68.8179 162.229L68.7547 162.909C68.6718 163.585 68.7058 164.14 68.8569 164.575C68.9948 165.007 69.2581 165.346 69.6466 165.593C70.0351 165.841 70.577 166.028 71.2721 166.155L74.0855 166.669L75.2577 160.256L70.4967 159.385L70.5327 159.188L75.2937 160.059L76.5811 153.016L73.1578 152.39C72.4627 152.262 71.8831 152.245 71.4191 152.336C70.9551 152.427 70.5757 152.649 70.2808 153.002C69.9835 153.368 69.7541 153.882 69.5925 154.543L69.4148 155.182L69.2181 155.146L70.0066 151.61L81.1617 153.65Z" fill="#002B60"/>
<path d="M47.5933 140.112C48.7901 140.983 49.607 141.956 50.0441 143.033C50.4812 144.109 50.5777 145.235 50.3335 146.409C50.0708 147.587 49.5081 148.768 48.6454 149.955C47.7906 151.13 46.8476 152.019 45.8165 152.62C44.7667 153.225 43.6571 153.481 42.4877 153.389C41.2997 153.3 40.0858 152.804 38.8459 151.902C38.102 151.361 37.534 150.815 37.142 150.266C36.7421 149.728 36.5133 149.215 36.4555 148.728C36.3898 148.252 36.4825 147.841 36.7334 147.496C37.0158 147.107 37.4049 146.912 37.9009 146.911C38.3782 146.912 38.8972 147.116 39.4579 147.524C38.9403 148.236 38.5947 148.858 38.4212 149.391C38.2398 149.936 38.2202 150.416 38.3623 150.833C38.5044 151.249 38.8126 151.63 39.287 151.975C39.9339 152.446 40.6205 152.624 41.3468 152.51C42.0545 152.398 42.8152 151.987 43.6288 151.276C44.4345 150.576 45.3119 149.574 46.2608 148.269C47.2253 146.943 47.9081 145.766 48.3091 144.738C48.7022 143.722 48.8105 142.836 48.6342 142.081C48.447 141.318 47.9707 140.658 47.2052 140.101C46.4397 139.545 45.6707 139.298 44.8984 139.363C44.1073 139.43 43.3065 139.829 42.4959 140.558C42.3949 140.402 42.3498 140.238 42.3606 140.064C42.3636 139.901 42.4278 139.734 42.5533 139.561C42.7101 139.345 42.9395 139.166 43.2414 139.023C43.5354 138.891 43.9011 138.819 44.3382 138.807C44.7675 138.806 45.2557 138.906 45.8026 139.106C46.3495 139.306 46.9464 139.641 47.5933 140.112Z" fill="#002B60"/>
<path d="M39.1783 132.496C40.1859 133.58 40.7966 134.687 41.0102 135.817C41.2238 136.948 41.0933 138.071 40.6189 139.186C40.1353 140.291 39.3517 141.348 38.268 142.356C37.1843 143.364 36.0787 144.064 34.9513 144.457C33.8148 144.84 32.6956 144.88 31.5935 144.576C30.4726 144.271 29.4083 143.576 28.4006 142.492C27.4384 141.457 26.8504 140.374 26.6368 139.244C26.4135 138.122 26.5345 136.999 26.9999 135.874C27.4555 134.759 28.2251 133.697 29.3089 132.689C30.3926 131.681 31.5121 130.986 32.6674 130.603C33.813 130.229 34.9462 130.195 36.0671 130.5C37.1789 130.795 38.216 131.46 39.1783 132.496ZM39.0182 132.617C38.5915 132.158 38.1262 131.853 37.6223 131.703C37.0995 131.552 36.5284 131.564 35.9088 131.74C35.2795 131.925 34.583 132.272 33.8192 132.782C33.0555 133.292 32.2147 133.974 31.297 134.827C30.3792 135.681 29.6432 136.466 29.0889 137.182C28.5249 137.906 28.1328 138.572 27.9127 139.177C27.6829 139.791 27.6246 140.355 27.738 140.869C27.8417 141.392 28.1113 141.887 28.5471 142.356C28.9828 142.825 29.4621 143.135 29.9849 143.286C30.4979 143.446 31.0736 143.439 31.7119 143.264C32.3315 143.088 33.0231 142.745 33.7869 142.235C34.5318 141.724 35.3632 141.042 36.2809 140.189C37.1986 139.335 37.9441 138.551 38.5172 137.836C39.0812 137.111 39.4782 136.441 39.7081 135.827C39.9191 135.212 39.9728 134.643 39.8691 134.12C39.7467 133.597 39.463 133.096 39.0182 132.617Z" fill="#002B60"/>
<path d="M34.0541 127.292L33.882 127.393L33.3836 126.55C33.2548 126.332 33.1085 126.162 32.9447 126.042C32.7741 125.911 32.5847 125.852 32.3765 125.867C32.1501 125.877 31.8819 125.973 31.572 126.157L21.8951 131.875C21.5966 132.051 21.3999 132.229 21.3049 132.409C21.1917 132.584 21.1572 132.775 21.2015 132.981C21.2276 133.183 21.305 133.393 21.4338 133.611L21.9322 134.454L21.76 134.556L19.4106 130.578L25.1858 118.687L16.9897 123.529C16.6913 123.706 16.4888 123.887 16.3824 124.074C16.2759 124.261 16.2414 124.452 16.279 124.646C16.305 124.848 16.3825 125.058 16.5113 125.276L17.091 126.257L16.9188 126.359L14.3863 122.071L14.5585 121.969L15.1383 122.951C15.2671 123.169 15.4134 123.338 15.5772 123.458C15.7342 123.567 15.9259 123.616 16.1524 123.606C16.3673 123.603 16.6298 123.51 16.9397 123.327L27.8908 116.856L28.3891 117.7L21.4834 131.886L31.4703 125.984C31.7802 125.801 31.9941 125.613 32.1121 125.419C32.2186 125.233 32.2588 125.038 32.2327 124.837C32.2067 124.636 32.1292 124.426 32.0004 124.208L31.3495 123.105L31.5217 123.004L34.0541 127.292Z" fill="#002B60"/>
<path d="M25.9933 112.406L25.8045 112.472L25.5999 111.887C25.5118 111.635 25.3993 111.435 25.2622 111.285C25.125 111.135 24.953 111.047 24.746 111.02C24.522 110.986 24.2401 111.028 23.9003 111.147L12.0824 115.28L12.5511 116.621C12.7799 117.275 13.0487 117.782 13.3576 118.14C13.662 118.485 14.0382 118.693 14.4862 118.762C14.9342 118.831 15.4879 118.779 16.1473 118.605L16.9157 118.378L16.9817 118.567L13.4118 119.689L9.47112 108.418L12.9552 107.051L13.0212 107.24L12.2858 107.56C11.6572 107.823 11.1893 108.12 10.8821 108.454C10.575 108.787 10.4122 109.19 10.3938 109.663C10.371 110.123 10.474 110.68 10.7028 111.335L11.1781 112.694L22.996 108.56C23.3358 108.441 23.5847 108.305 23.7426 108.151C23.8836 107.988 23.9611 107.806 23.975 107.603C23.9845 107.388 23.9474 107.161 23.8638 106.922L23.6592 106.336L23.848 106.27L25.9933 112.406Z" fill="#002B60"/>
<path d="M22.9984 104.487L22.8005 104.516L22.6926 103.784C22.6537 103.52 22.5745 103.303 22.455 103.132C22.3354 102.961 22.1604 102.825 21.9299 102.724C21.6843 102.612 21.3671 102.517 20.9783 102.44L7.87384 99.8032L7.64057 98.2203L19.6016 91.7261C19.9119 91.5456 20.1506 91.3824 20.3178 91.2364C20.4831 91.0773 20.5936 90.9127 20.6494 90.7428C20.7052 90.5728 20.7166 90.3757 20.6835 90.1515L20.6631 90.013L20.861 89.9838L21.762 96.0978L21.5642 96.1269L21.4417 95.2959C21.3853 94.9134 21.2917 94.6442 21.1609 94.4882C21.0282 94.3191 20.8365 94.253 20.5859 94.29C20.5067 94.3017 20.4229 94.3275 20.3345 94.3675C20.2309 94.3962 20.1217 94.4326 20.0069 94.4764C19.8901 94.5071 19.7697 94.5586 19.6455 94.6308L16.5331 96.2825L17.3 101.486L20.5499 102.139C20.7027 102.171 20.8481 102.196 20.9858 102.216C21.1235 102.237 21.2471 102.252 21.3565 102.263C21.4659 102.274 21.5668 102.272 21.6591 102.259C21.9493 102.216 22.1373 102.074 22.2229 101.832C22.3086 101.59 22.3174 101.238 22.2494 100.777L22.0948 99.728L22.2927 99.6989L22.9984 104.487ZM17.0904 101.436L16.344 96.371L12.78 98.2509C12.4281 98.4241 12.0518 98.6144 11.6511 98.8217C11.2372 99.031 10.8289 99.2327 10.4263 99.4268C10.0085 99.6097 9.64147 99.7717 9.32531 99.9126C9.5876 99.9548 9.87065 100.001 10.1744 100.05C10.4651 100.102 10.7632 100.159 11.069 100.222C11.3747 100.284 11.6871 100.346 12.006 100.407C12.3118 100.47 12.6109 100.533 12.9035 100.598L17.0904 101.436Z" fill="#002B60"/>
<path d="M21.5364 83.0053C21.4679 84.4837 21.1045 85.7015 20.4461 86.6588C19.7878 87.616 18.9011 88.3157 17.7862 88.7578C16.6585 89.1861 15.3621 89.3663 13.897 89.2983C12.4452 89.2311 11.1843 88.9324 10.1144 88.4022C9.03174 87.8582 8.20722 87.0725 7.64082 86.0452C7.06172 85.0039 6.80766 83.7174 6.87862 82.1857C6.9212 81.2667 7.06385 80.4925 7.30657 79.8631C7.53598 79.233 7.8382 78.7598 8.21324 78.4435C8.57496 78.1266 8.96893 77.978 9.39514 77.9978C9.87462 78.02 10.2516 78.2377 10.5261 78.6508C10.7879 79.0501 10.9028 79.596 10.8707 80.2886C9.99164 80.2478 9.28172 80.3017 8.74094 80.4501C8.18684 80.598 7.77493 80.8458 7.5052 81.1937C7.23548 81.5416 7.08704 82.0085 7.05989 82.5946C7.02287 83.3937 7.25205 84.0651 7.74742 84.6086C8.2301 85.1382 8.99198 85.5472 10.0331 85.8357C11.0609 86.1236 12.3805 86.3049 13.9921 86.3796C15.6304 86.4556 16.9888 86.3784 18.0672 86.1481C19.1324 85.9171 19.9316 85.5204 20.4649 84.9578C20.9988 84.3819 21.2876 83.6211 21.3314 82.6755C21.3753 81.7298 21.1577 80.9523 20.6787 80.3428C20.187 79.7193 19.4137 79.2697 18.3586 78.9939C18.4333 78.8238 18.546 78.6956 18.6968 78.6091C18.8343 78.5221 19.0096 78.4835 19.2227 78.4934C19.4891 78.5057 19.7651 78.5986 20.0507 78.772C20.323 78.9448 20.5843 79.2105 20.8347 79.5691C21.0717 79.9272 21.2572 80.3896 21.3911 80.9564C21.525 81.5232 21.5734 82.2062 21.5364 83.0053Z" fill="#002B60"/>
<path d="M22.0992 75.9581L21.9042 75.9139L22.0411 75.3092C22.1 75.0492 22.1111 74.8193 22.0743 74.6195C22.0375 74.4198 21.9384 74.2538 21.777 74.1215C21.6055 73.9732 21.3442 73.8593 20.9931 73.7798L8.78279 71.0125L8.46908 72.3974C8.3159 73.0736 8.27523 73.6454 8.34707 74.1128C8.42185 74.5673 8.63073 74.9427 8.97371 75.2392C9.31668 75.5357 9.81387 75.7851 10.4653 75.9874L11.2366 76.2032L11.1925 76.3983L7.57147 75.4546L10.2094 63.8096L13.8878 64.4997L13.8436 64.6948L13.0501 64.5765C12.3781 64.4652 11.8235 64.4694 11.3862 64.589C10.949 64.7087 10.5973 64.9639 10.331 65.3547C10.0677 65.7325 9.85945 66.2595 9.70628 66.9357L9.38814 68.3402L21.5985 71.1075C21.9496 71.187 22.233 71.2034 22.4486 71.1566C22.6542 71.0938 22.8167 70.9803 22.9359 70.8159C23.0582 70.6385 23.1472 70.4263 23.2032 70.1792L23.3402 69.5745L23.5352 69.6187L22.0992 75.9581Z" fill="#002B60"/>
<path d="M25.2133 62.9544L25.0386 62.8572L25.622 61.8085C25.7451 61.5872 25.823 61.3787 25.8555 61.1831C25.8763 60.9811 25.8311 60.7881 25.7199 60.6041C25.6086 60.4201 25.4015 60.2438 25.0986 60.0752L15.225 54.5797C14.9221 54.4111 14.6689 54.3313 14.4656 54.3402C14.2507 54.3426 14.0687 54.4092 13.9197 54.5399C13.759 54.6641 13.6171 54.8369 13.494 55.0583L12.9106 56.1069L12.7358 56.0096L15.1277 51.7102L27.224 53.2928L19.1628 44.4571L21.3214 40.5771L21.4961 40.6743L21.1947 41.2161C21.0715 41.4375 20.9963 41.6551 20.969 41.8687C20.9481 42.0708 20.9991 42.267 21.122 42.4575C21.2398 42.6298 21.4559 42.8035 21.7705 42.9786L31.5218 48.4061C31.8364 48.5812 32.1037 48.6765 32.3238 48.6923C32.5388 48.6898 32.7266 48.6265 32.8873 48.5023C33.0544 48.3664 33.1995 48.1878 33.3227 47.9664L33.6241 47.4246L33.7989 47.5219L30.8819 52.7651L30.7072 52.6678L30.785 52.528C30.9211 52.2833 31.0086 52.0574 31.0476 51.8502C31.0749 51.6365 31.0356 51.4467 30.9295 51.2809C30.8182 51.0969 30.6228 50.9271 30.3432 50.7715L19.8754 44.9452L29.4235 55.3867L29.0443 56.0683L14.9203 54.1812L25.1434 59.8713C25.458 60.0463 25.7286 60.1359 25.9552 60.14C26.1766 60.1259 26.3774 60.0393 26.5575 59.8801C26.7441 59.7093 26.9184 59.4782 27.0804 59.1869L27.3819 58.6451L27.5566 58.7424L25.2133 62.9544Z" fill="#002B60"/>
<path d="M33.9045 47.9184L33.7546 47.7859L34.165 47.3212C34.3328 47.1314 34.4534 46.9444 34.527 46.7604C34.5907 46.5675 34.5878 46.3693 34.5186 46.1657C34.4493 45.9622 34.2848 45.7456 34.025 45.5161L25.5874 38.0599C25.3177 37.8215 25.0776 37.6805 24.8671 37.6368C24.6654 37.5831 24.4734 37.6092 24.291 37.7149C24.1075 37.8019 23.9319 37.9403 23.7642 38.1301L23.3537 38.5948L23.2039 38.4624L30.2742 30.4578L33.0662 32.765L32.9338 32.9149L32.3846 32.5096C31.8485 32.0893 31.3556 31.8316 30.9058 31.7366C30.4649 31.6316 30.0382 31.6817 29.6259 31.8867C29.2135 32.0917 28.7734 32.459 28.3056 32.9886L26.4122 35.1322L31.2979 39.4496L34.5021 35.8221L34.652 35.9545L31.4478 39.582L36.8131 44.3233L39.1169 41.7151C39.5847 41.1854 39.8993 40.6983 40.0607 40.2538C40.2221 39.8092 40.228 39.3696 40.0783 38.9348C39.9187 38.4912 39.5973 38.0293 39.1142 37.549L38.6594 37.067L38.7918 36.9171L41.4117 39.4191L33.9045 47.9184Z" fill="#002B60"/>
<path d="M62.5658 26.1392C61.2049 26.7209 59.9503 26.9237 58.8021 26.7475C57.6539 26.5713 56.6381 26.0775 55.7549 25.266C54.8788 24.437 54.1525 23.3482 53.5763 21.9995C53.0053 20.663 52.7256 19.3977 52.7374 18.2037C52.7562 16.9921 53.1049 15.9077 53.7834 14.9507C54.469 13.9761 55.5167 13.1874 56.9266 12.5847C57.7726 12.2231 58.5317 12.0146 59.204 11.9592C59.8711 11.8916 60.4286 11.9578 60.8765 12.1578C61.3192 12.3456 61.6244 12.6356 61.792 13.028C61.9806 13.4694 61.9487 13.9035 61.6961 14.3305C61.4506 14.74 61.0091 15.081 60.3715 15.3535C60.0258 14.5443 59.6684 13.9285 59.2995 13.5062C58.9253 13.0716 58.523 12.8086 58.0924 12.7172C57.6618 12.6257 57.1768 12.6953 56.6374 12.9259C55.9018 13.2403 55.3971 13.7389 55.1232 14.4214C54.8564 15.0865 54.8196 15.9505 55.0128 17.0135C55.2007 18.0642 55.6116 19.3313 56.2455 20.8149C56.8899 22.323 57.5504 23.5125 58.2269 24.3833C58.8983 25.2419 59.6032 25.7888 60.3417 26.0241C61.0925 26.2542 61.9031 26.1832 62.7736 25.8111C63.644 25.439 64.2494 24.9047 64.5898 24.2082C64.9372 23.4941 65.0056 22.6021 64.7949 21.5321C64.9805 21.5253 65.145 21.571 65.2884 21.6692C65.4266 21.7551 65.5377 21.8962 65.6215 22.0923C65.7262 22.3376 65.7627 22.6265 65.7308 22.9591C65.6937 23.2795 65.5682 23.6304 65.3542 24.0119C65.135 24.3811 64.7993 24.7494 64.3473 25.1166C63.8952 25.4839 63.3014 25.8247 62.5658 26.1392Z" fill="#002B60"/>
<path d="M73.2751 22.8176C71.8269 23.1227 70.5634 23.0755 69.4846 22.6759C68.4058 22.2764 67.511 21.586 66.8003 20.6048C66.1026 19.6208 65.6013 18.4047 65.2963 16.9564C64.9914 15.5082 64.9612 14.1996 65.2056 13.0308C65.4631 11.8593 66.0062 10.8796 66.835 10.0918C67.6741 9.28828 68.8178 8.73397 70.266 8.4289C71.649 8.13757 72.8799 8.19167 73.9587 8.59122C75.0347 8.97771 75.9347 9.6602 76.6585 10.6387C77.3795 11.6041 77.8925 12.811 78.1974 14.2592C78.5023 15.7075 78.5209 17.0253 78.2531 18.2126C77.9826 19.3869 77.4278 20.3759 76.5887 21.1794C75.7626 21.9802 74.6581 22.5263 73.2751 22.8176ZM73.2535 22.6178C73.8667 22.4886 74.3676 22.2468 74.7563 21.8925C75.1552 21.5223 75.4392 21.0264 75.6081 20.4049C75.7742 19.7704 75.8357 18.9944 75.7924 18.0769C75.7491 17.1595 75.5984 16.0876 75.3401 14.8611C75.0819 13.6347 74.789 12.5995 74.4614 11.7555C74.1311 10.8986 73.7634 10.2198 73.3582 9.71921C72.9503 9.2056 72.4971 8.86504 71.9985 8.69754C71.4972 8.51699 70.9335 8.49268 70.3072 8.6246C69.681 8.75653 69.1684 9.00758 68.7694 9.37777C68.3677 9.73491 68.0772 10.2321 67.898 10.8694C67.7291 11.4909 67.6663 12.2604 67.7096 13.1778C67.7632 14.0795 67.9191 15.1435 68.1773 16.37C68.4355 17.5964 68.7233 18.6395 69.0406 19.4992C69.3709 20.3562 69.74 21.0415 70.1479 21.5551C70.5661 22.0529 71.0259 22.3921 71.5272 22.5727C72.0387 22.7374 72.6142 22.7525 73.2535 22.6178Z" fill="#002B60"/>
<path d="M80.6981 21.006L80.7004 20.806L81.6804 20.8174C81.9337 20.8204 82.1541 20.7829 82.3417 20.7051C82.5426 20.6274 82.6908 20.4958 82.7863 20.3102C82.8953 20.1115 82.9518 19.8321 82.956 19.4721L83.0858 8.23289C83.0898 7.88624 83.0395 7.62564 82.9349 7.45108C82.8437 7.26334 82.6985 7.13498 82.4993 7.066C82.3135 6.98384 82.094 6.94129 81.8407 6.93834L80.8608 6.92697L80.8631 6.72698L85.4828 6.78062L92.655 17.8846L92.765 8.36526C92.769 8.01862 92.7187 7.75135 92.6142 7.56346C92.5097 7.37557 92.3645 7.24721 92.1786 7.17838C91.9929 7.09621 91.7734 7.05366 91.5201 7.05072L90.3801 7.03749L90.3824 6.8375L95.3621 6.89531L95.3598 7.0953L94.2199 7.08207C93.9666 7.07912 93.7461 7.11657 93.5585 7.1944C93.3843 7.27238 93.2427 7.41074 93.1337 7.60949C93.0249 7.79491 92.9684 8.0676 92.9642 8.42758L92.8173 21.1467L91.8374 21.1354L83.29 7.87523L83.156 19.4745C83.1518 19.8344 83.2019 20.115 83.3063 20.3163C83.4108 20.5042 83.5559 20.6392 83.7416 20.7213C83.9274 20.8035 84.1469 20.8461 84.4002 20.849L85.6801 20.8639L85.6778 21.0638L80.6981 21.006Z" fill="#002B60"/>
<path d="M97.7653 21.7849L97.8065 21.5891L98.4131 21.7169C98.6741 21.7719 98.9041 21.7795 99.1033 21.7397C99.3024 21.6999 99.4669 21.5983 99.5967 21.4348C99.7422 21.2611 99.8521 20.9981 99.9263 20.6458L102.506 8.39446L101.116 8.10176C100.438 7.95884 99.8655 7.92684 99.3993 8.00576C98.946 8.08743 98.5738 8.30198 98.2827 8.64943C97.9915 8.99687 97.7498 9.4978 97.5575 10.1522L97.3535 10.9268L97.1578 10.8856L98.0458 7.25056L109.729 9.71174L109.096 13.4004L108.9 13.3591L109.006 12.5639C109.107 11.8903 109.095 11.3357 108.968 10.9004C108.842 10.465 108.581 10.1171 108.186 9.8568C107.805 9.59924 107.274 9.399 106.596 9.25608L105.187 8.95925L102.607 21.2106C102.533 21.5629 102.521 21.8465 102.571 22.0615C102.637 22.2661 102.753 22.4268 102.92 22.5436C103.099 22.6631 103.312 22.749 103.56 22.8012L104.167 22.929L104.126 23.1247L97.7653 21.7849Z" fill="#002B60"/>
<path d="M106.41 23.3882L106.488 23.2039L107.169 23.4923C107.415 23.5962 107.642 23.6415 107.85 23.6283C108.058 23.6151 108.265 23.5362 108.471 23.3916C108.695 23.24 108.94 23.0182 109.209 22.7263L118.271 12.9008L119.744 13.5242L119.077 27.1186C119.07 27.4775 119.085 27.7664 119.123 27.9851C119.173 28.2089 119.257 28.3889 119.373 28.5249C119.489 28.6609 119.651 28.7731 119.86 28.8614L119.989 28.916L119.911 29.1002L114.22 26.6922L114.298 26.508L115.071 26.8353C115.427 26.986 115.706 27.046 115.907 27.0153C116.121 26.9897 116.277 26.8603 116.375 26.627C116.406 26.5533 116.428 26.4683 116.44 26.3719C116.469 26.2685 116.495 26.1563 116.517 26.0354C116.551 25.9197 116.57 25.79 116.573 25.6464L116.779 22.1288L111.935 20.0794L109.688 22.5166C109.582 22.6309 109.484 22.7417 109.396 22.8489C109.307 22.9561 109.229 23.0537 109.163 23.1415C109.097 23.2294 109.046 23.3163 109.01 23.4022C108.895 23.6724 108.919 23.9069 109.081 24.1058C109.243 24.3046 109.539 24.4949 109.969 24.6768L110.945 25.0898L110.867 25.274L106.41 23.3882ZM112.086 19.9263L116.802 21.9212L117.048 17.8992C117.082 17.5086 117.115 17.0882 117.147 16.6381C117.183 16.1757 117.223 15.722 117.266 15.2771C117.327 14.8251 117.379 14.4274 117.423 14.084C117.251 14.2862 117.065 14.5041 116.864 14.738C116.669 14.9595 116.466 15.1845 116.253 15.4132C116.041 15.6418 115.826 15.8765 115.608 16.1174C115.395 16.346 115.185 16.5685 114.978 16.7848L112.086 19.9263Z" fill="#002B60"/>
<path d="M125.113 33.0309C123.882 32.209 123.027 31.269 122.547 30.2109C122.067 29.1529 121.925 28.0322 122.122 26.8488C122.337 25.6618 122.852 24.4583 123.666 23.2384C124.473 22.0296 125.379 21.1038 126.386 20.461C127.41 19.8145 128.509 19.5138 129.681 19.559C130.871 19.6005 132.104 20.0471 133.379 20.8986C134.144 21.4095 134.734 21.9314 135.148 22.4642C135.569 22.986 135.818 23.4892 135.895 23.9737C135.98 24.4472 135.904 24.8613 135.667 25.2162C135.401 25.6154 135.02 25.826 134.524 25.8478C134.047 25.866 133.521 25.6825 132.944 25.2975C133.433 24.5656 133.753 23.9297 133.905 23.3898C134.064 22.8389 134.064 22.3581 133.906 21.9474C133.747 21.5368 133.424 21.1686 132.936 20.8428C132.27 20.3985 131.577 20.2482 130.856 20.392C130.153 20.532 129.41 20.9735 128.626 21.7163C127.849 22.448 127.012 23.4848 126.117 24.8267C125.206 26.1908 124.571 27.3942 124.212 28.4369C123.86 29.4685 123.787 30.3579 123.994 31.1051C124.212 31.8597 124.714 32.4999 125.502 33.0256C126.289 33.5514 127.067 33.7664 127.836 33.6708C128.624 33.5715 129.408 33.1412 130.189 32.3798C130.296 32.5316 130.347 32.6943 130.344 32.8681C130.347 33.0309 130.29 33.201 130.171 33.3784C130.023 33.6002 129.801 33.7887 129.505 33.9438C129.217 34.0878 128.855 34.1745 128.418 34.2038C127.989 34.222 127.498 34.1421 126.943 33.9642C126.388 33.7863 125.779 33.4752 125.113 33.0309Z" fill="#002B60"/>
<path d="M130.832 37.1132L130.97 36.9687L131.418 37.3975C131.61 37.5819 131.802 37.7098 131.992 37.7811C132.182 37.8524 132.375 37.8529 132.572 37.7826C132.787 37.7119 133.019 37.5465 133.268 37.2864L141.925 28.2415L140.899 27.2594C140.399 26.7799 139.929 26.4506 139.492 26.2715C139.064 26.1016 138.634 26.0874 138.204 26.2289C137.773 26.3703 137.303 26.6682 136.795 27.1226L136.213 27.6728L136.068 27.5345L138.741 24.9156L147.365 33.1735L144.88 35.9722L144.736 35.8339L145.245 35.2144C145.687 34.6955 145.968 34.2178 146.091 33.7813C146.213 33.3448 146.176 32.9117 145.978 32.4822C145.789 32.0619 145.445 31.612 144.944 31.1324L143.904 30.1365L135.247 39.1814C134.998 39.4415 134.838 39.6761 134.768 39.8851C134.716 40.0937 134.729 40.2915 134.809 40.4784C134.898 40.6745 135.034 40.8602 135.217 41.0354L135.665 41.4642L135.527 41.6087L130.832 37.1132Z" fill="#002B60"/>
<path d="M140.351 46.4028L140.524 46.3023L141.127 47.3401C141.254 47.5591 141.393 47.7326 141.545 47.8606C141.708 47.9818 141.896 48.0417 142.111 48.0401C142.326 48.0386 142.584 47.9507 142.884 47.7766L152.654 42.0999C152.954 41.9258 153.152 41.749 153.248 41.5697C153.356 41.3837 153.392 41.1932 153.356 40.9983C153.331 40.7967 153.255 40.5864 153.128 40.3673L152.526 39.3296L152.699 39.2291L155.169 43.4838L147.624 53.072L159.337 50.6613L161.567 54.5009L161.394 54.6013L161.083 54.0652C160.955 53.8461 160.807 53.6702 160.637 53.5374C160.475 53.4162 160.28 53.3597 160.053 53.3679C159.845 53.381 159.585 53.4779 159.274 53.6588L149.624 59.2651C149.313 59.446 149.094 59.627 148.968 59.8082C148.861 59.9942 148.819 60.188 148.843 60.3896C148.875 60.6028 148.954 60.8189 149.081 61.0379L149.393 61.5741L149.22 61.6746L146.207 56.486L146.379 56.3855L146.46 56.5239C146.6 56.766 146.75 56.9568 146.908 57.0963C147.077 57.229 147.261 57.2922 147.457 57.2859C147.672 57.2843 147.918 57.2032 148.195 57.0424L158.554 51.0242L144.7 53.8917L144.308 53.2172L153.152 42.0418L143.036 47.9194C142.725 48.1003 142.509 48.287 142.39 48.4798C142.289 48.6773 142.26 48.8942 142.305 49.1304C142.356 49.3781 142.466 49.6461 142.633 49.9344L142.945 50.4705L142.772 50.571L140.351 46.4028Z" fill="#002B60"/>
<path d="M148.931 61.7933L149.122 61.733L149.309 62.3241C149.385 62.5657 149.483 62.7654 149.603 62.9233C149.736 63.0771 149.907 63.1768 150.117 63.2222C150.327 63.2676 150.598 63.238 150.928 63.1335L161.664 59.7378C162.007 59.6292 162.252 59.496 162.398 59.338C162.547 59.1927 162.624 59.0146 162.627 58.8038C162.647 58.6017 162.619 58.3799 162.543 58.1384L162.356 57.5472L162.547 57.4869L165.766 67.6701L162.351 68.8762L162.29 68.6855L162.921 68.4232C163.557 68.18 164.031 67.8901 164.345 67.5533C164.662 67.2293 164.838 66.8377 164.875 66.3786C164.912 65.9195 164.824 65.3531 164.611 64.6793L163.748 61.9523L157.532 63.9185L158.991 68.5334L158.8 68.5937L157.341 63.9788L150.515 66.1381L151.564 69.4562C151.777 70.13 152.032 70.6505 152.33 71.0178C152.628 71.3851 153.002 71.6164 153.451 71.7119C153.914 71.8034 154.475 71.7657 155.136 71.5988L155.783 71.4569L155.843 71.6476L152.35 72.6058L148.931 61.7933Z" fill="#002B60"/>
</svg>
