<svg width="116" height="116" viewBox="0 0 116 116" fill="none" xmlns="http://www.w3.org/2000/svg">
<path d="M97.5479 65.4843C97.7206 64.3129 98.1072 63.3726 98.7077 62.6632C99.3082 61.9539 100.07 61.4678 100.993 61.2049C101.925 60.9541 102.971 60.9142 104.132 61.0854C105.282 61.2549 106.262 61.5934 107.071 62.1008C107.889 62.6204 108.483 63.3117 108.852 64.1747C109.229 65.0498 109.329 66.0941 109.15 67.3077C109.043 68.0358 108.867 68.6407 108.624 69.1223C108.391 69.6055 108.112 69.958 107.789 70.1798C107.475 70.4032 107.15 70.49 106.812 70.4402C106.432 70.3842 106.15 70.1808 105.964 69.83C105.788 69.4914 105.74 69.0476 105.821 68.4989C106.517 68.6016 107.087 68.6154 107.529 68.5405C107.982 68.467 108.329 68.3027 108.572 68.0473C108.814 67.7919 108.97 67.4321 109.038 66.9678C109.132 66.3346 109.003 65.7819 108.652 65.3097C108.31 64.8496 107.736 64.4631 106.931 64.1503C106.136 63.839 105.1 63.5893 103.823 63.401C102.525 63.2097 101.437 63.1626 100.561 63.2598C99.6942 63.3585 99.0263 63.6105 98.5569 64.0157C98.0859 64.4315 97.7951 65.0139 97.6847 65.7632C97.5743 66.5124 97.6853 67.1488 98.0179 67.6722C98.3594 68.2077 98.9391 68.6274 99.7569 68.9312C99.6839 69.0606 99.5839 69.1537 99.4569 69.2105C99.3405 69.2688 99.1979 69.2855 99.029 69.2606C98.818 69.2295 98.6057 69.1335 98.3922 68.9727C98.1893 68.8134 98.0025 68.581 97.8319 68.2755C97.6718 67.9716 97.5612 67.5887 97.4999 67.1268C97.4386 66.6649 97.4546 66.1174 97.5479 65.4843Z" fill="#002B60"/>
<path d="M93.5853 76.7949C94.1224 75.7397 94.7862 74.9764 95.5767 74.5051C96.3672 74.0337 97.2464 73.8229 98.2145 73.8728C99.1777 73.9322 100.187 74.2304 101.242 74.7675C102.297 75.3046 103.127 75.9426 103.733 76.6816C104.333 77.43 104.671 78.2601 104.745 79.1718C104.825 80.0978 104.596 81.0884 104.059 82.1436C103.546 83.1513 102.894 83.8908 102.104 84.3622C101.323 84.8384 100.446 85.0563 99.4727 85.0159C98.5094 84.9804 97.5001 84.6941 96.4449 84.157C95.3897 83.62 94.5596 82.97 93.9544 82.2072C93.3588 81.4492 93.0213 80.6072 92.9421 79.6811C92.858 78.7646 93.0724 77.8025 93.5853 76.7949ZM93.7207 76.8817C93.4933 77.3285 93.3924 77.7619 93.418 78.1819C93.4482 78.6162 93.6145 79.042 93.9169 79.4592C94.2287 79.8812 94.6812 80.309 95.2744 80.7426C95.8676 81.1762 96.611 81.6204 97.5045 82.0752C98.3981 82.53 99.19 82.8672 99.8801 83.0868C100.58 83.3113 101.187 83.423 101.702 83.4219C102.227 83.4257 102.667 83.3143 103.021 83.0879C103.386 82.8663 103.684 82.5273 103.916 82.071C104.148 81.6147 104.249 81.1694 104.219 80.7351C104.198 80.3056 104.034 79.8751 103.727 79.4436C103.425 79.0264 102.977 78.601 102.384 78.1674C101.796 77.7482 101.054 77.3111 100.161 76.8563C99.2673 76.4015 98.4731 76.0571 97.7783 75.8232C97.0787 75.5987 96.4665 75.4846 95.9418 75.4808C95.4217 75.4914 94.9796 75.6075 94.6155 75.8291C94.256 76.0651 93.9578 76.4159 93.7207 76.8817Z" fill="#002B60"/>
<path d="M89.3917 83.9561L89.5015 84.0725L88.9312 84.6105C88.7838 84.7496 88.6778 84.8937 88.6131 85.0427C88.5406 85.1991 88.5285 85.3572 88.5766 85.517C88.6244 85.692 88.7471 85.8842 88.9447 86.0937L95.1155 92.6341C95.3058 92.8358 95.4796 92.9578 95.6368 93.0001C95.7936 93.0575 95.9485 93.0507 96.1015 92.9797C96.254 92.9237 96.404 92.8262 96.5514 92.6871L97.1217 92.1491L97.2315 92.2655L94.5432 94.8019L84.2453 92.3972L89.4719 97.9368C89.6622 98.1385 89.8396 98.2644 90.0042 98.3145C90.1687 98.3645 90.3236 98.3577 90.4688 98.294C90.6214 98.2381 90.7713 98.1406 90.9188 98.0015L91.5821 97.3757L91.6919 97.492L88.7941 100.226L88.6843 100.11L89.3477 99.4838C89.4951 99.3448 89.6011 99.2007 89.6658 99.0517C89.7228 98.91 89.7274 98.7516 89.6796 98.5767C89.6392 98.4095 89.5202 98.2212 89.3226 98.0117L82.3392 90.6101L82.9094 90.0721L95.1968 92.9534L88.8283 86.2035C88.6307 85.994 88.4459 85.8603 88.2741 85.8025C88.1095 85.7525 87.951 85.7554 87.7984 85.8113C87.6459 85.8673 87.4959 85.9648 87.3485 86.1038L86.6037 86.8066L86.4939 86.6902L89.3917 83.9561Z" fill="#002B60"/>
<path d="M77.5364 93.5206L77.6052 93.665L77.1575 93.8785C76.9649 93.9703 76.815 94.0772 76.7077 94.1992C76.6005 94.3212 76.5453 94.4657 76.5421 94.6327C76.534 94.8138 76.5918 95.0344 76.7158 95.2943L81.0258 104.336L82.0513 103.847C82.5519 103.608 82.9313 103.35 83.1894 103.074C83.4378 102.802 83.5702 102.485 83.5866 102.122C83.6029 101.76 83.5133 101.324 83.3178 100.815L83.0712 100.223L83.2157 100.154L84.4165 102.896L75.7941 107.007L74.4055 104.354L74.55 104.285L74.8687 104.842C75.1317 105.32 75.409 105.666 75.7008 105.881C75.9925 106.097 76.3271 106.191 76.7045 106.165C77.0723 106.143 77.5066 106.013 78.0073 105.775L79.0471 105.279L74.7371 96.2376C74.6132 95.9776 74.4831 95.7915 74.3468 95.6792C74.2055 95.5811 74.0537 95.5353 73.8914 95.5418C73.7194 95.5529 73.5419 95.602 73.359 95.6892L72.9113 95.9027L72.8424 95.7582L77.5364 93.5206Z" fill="#002B60"/>
<path d="M69.8327 97.2228L69.8554 97.3812L69.2694 97.4653C69.0582 97.4956 68.884 97.5583 68.7468 97.6534C68.6096 97.7485 68.5003 97.8881 68.419 98.0722C68.3286 98.2684 68.2518 98.5219 68.1886 98.8327L66.0387 109.308L64.7717 109.49L59.6135 99.9014C59.4701 99.6526 59.3402 99.4611 59.224 99.3269C59.0972 99.1943 58.9659 99.1054 58.8301 99.0602C58.6943 99.015 58.5367 99.0053 58.3572 99.0311L58.2463 99.047L58.2236 98.8886L63.1174 98.1864L63.1402 98.3448L62.475 98.4402C62.1688 98.4841 61.9531 98.5582 61.828 98.6624C61.6923 98.768 61.6388 98.9212 61.6676 99.1218C61.6767 99.1851 61.6971 99.2523 61.7288 99.3231C61.7515 99.4061 61.7802 99.4936 61.815 99.5856C61.8392 99.6791 61.88 99.7756 61.9373 99.8751L63.249 102.37L67.4143 101.772L67.9467 99.1745C67.9723 99.0523 67.9934 98.9361 68.0099 98.826C68.0264 98.7158 68.0392 98.617 68.0482 98.5295C68.0572 98.442 68.0564 98.3613 68.0458 98.2874C68.0124 98.0551 67.8992 97.9044 67.7061 97.8351C67.5129 97.7658 67.2316 97.7577 66.8621 97.8107L66.0226 97.9312L65.9999 97.7728L69.8327 97.2228ZM67.3737 101.94L63.3192 102.522L64.8122 105.379C64.9496 105.661 65.1006 105.962 65.2653 106.283C65.4314 106.615 65.5915 106.942 65.7456 107.265C65.8906 107.6 66.019 107.894 66.1308 108.147C66.1653 107.938 66.2029 107.711 66.2435 107.468C66.2856 107.236 66.3322 106.998 66.3833 106.753C66.4345 106.509 66.4849 106.259 66.5345 106.004C66.5856 105.76 66.6375 105.521 66.6902 105.287L67.3737 101.94Z" fill="#002B60"/>
<path d="M49.3395 97.488C50.5058 97.692 51.4354 98.1037 52.1284 98.723C52.8214 99.3424 53.2869 100.117 53.525 101.046C53.7507 101.985 53.7624 103.032 53.5603 104.187C53.3599 105.333 52.9953 106.303 52.4663 107.099C51.925 107.903 51.218 108.477 50.3455 108.823C49.4605 109.177 48.4139 109.248 47.2056 109.037C46.4806 108.91 45.8806 108.719 45.4057 108.462C44.9289 108.216 44.584 107.929 44.371 107.599C44.1561 107.28 44.078 106.952 44.1368 106.616C44.203 106.238 44.4139 105.961 44.7696 105.785C45.1129 105.617 45.5577 105.581 46.1041 105.677C45.9828 106.37 45.9537 106.939 46.0167 107.383C46.078 107.838 46.233 108.19 46.4817 108.439C46.7305 108.689 47.0861 108.854 47.5484 108.935C48.1788 109.045 48.7347 108.931 49.2162 108.593C49.6853 108.263 50.087 107.7 50.4214 106.903C50.7539 106.117 51.0313 105.088 51.2537 103.817C51.4798 102.524 51.556 101.438 51.4824 100.559C51.4069 99.6905 51.173 99.0161 50.7805 98.536C50.3775 98.054 49.803 97.7478 49.057 97.6173C48.311 97.4868 47.6719 97.5807 47.1398 97.8991C46.5953 98.2262 46.1602 98.7944 45.8345 99.6037C45.7071 99.5273 45.6168 99.4249 45.5634 99.2964C45.5083 99.1785 45.4954 99.0354 45.5248 98.8673C45.5615 98.6572 45.6632 98.4476 45.8297 98.2385C45.9944 98.0399 46.2317 97.8594 46.5416 97.697C46.8498 97.5452 47.2355 97.4448 47.6988 97.3959C48.1622 97.347 48.7091 97.3777 49.3395 97.488Z" fill="#002B60"/>
<path d="M42.0292 95.3916L41.9577 95.5348L41.514 95.3131C41.3232 95.2177 41.1467 95.1653 40.9845 95.1558C40.8223 95.1463 40.6744 95.1916 40.5409 95.2918C40.393 95.3968 40.2547 95.5781 40.126 95.8358L35.6489 104.795L36.6651 105.303C37.1613 105.551 37.5978 105.692 37.9747 105.725C38.342 105.754 38.6735 105.663 38.9692 105.453C39.2649 105.243 39.5534 104.904 39.8347 104.437L40.1494 103.878L40.2926 103.95L38.8693 106.584L30.3247 102.314L31.5619 99.5873L31.705 99.6588L31.4619 100.253C31.2473 100.754 31.1449 101.185 31.1545 101.548C31.1641 101.911 31.2954 102.232 31.5483 102.514C31.7916 102.79 32.1614 103.053 32.6576 103.301L33.6881 103.816L38.1652 94.8559C38.2939 94.5983 38.3606 94.3813 38.3654 94.2048C38.3558 94.033 38.2985 93.8852 38.1935 93.7612C38.079 93.6324 37.9311 93.5227 37.7498 93.4321L37.3061 93.2104L37.3776 93.0673L42.0292 95.3916Z" fill="#002B60"/>
<path d="M29.0975 87.3673L28.9678 87.4609L28.4059 86.6826C28.2873 86.5182 28.1626 86.3911 28.032 86.3013C27.8927 86.2176 27.7375 86.1849 27.5665 86.2031C27.3955 86.2214 27.1975 86.3116 26.9727 86.4739L19.6428 91.765C19.418 91.9273 19.2743 92.0836 19.2118 92.234C19.1407 92.3906 19.1272 92.545 19.1713 92.6973C19.2068 92.8559 19.2839 93.0173 19.4025 93.1816L19.9644 93.96L19.8347 94.0537L17.531 90.8623L22.7797 82.6335L13.6446 85.4784L11.5657 82.5984L11.6954 82.5047L11.9857 82.9069C12.1043 83.0712 12.2364 83.1995 12.3819 83.2918C12.5212 83.3754 12.6807 83.405 12.8604 83.3805C13.0252 83.3537 13.2243 83.256 13.4579 83.0874L20.6969 77.8619C20.9304 77.6933 21.0902 77.532 21.1762 77.3778C21.2473 77.2212 21.2652 77.0636 21.2296 76.9051C21.1879 76.7379 21.1077 76.5721 20.9891 76.4078L20.6988 76.0056L20.8285 75.912L23.6379 79.8039L23.5082 79.8976L23.4333 79.7938C23.3022 79.6122 23.1682 79.4721 23.0313 79.3736C22.8857 79.2813 22.7349 79.2455 22.5788 79.2661C22.4077 79.2843 22.2184 79.3683 22.0109 79.5182L14.2399 85.1276L25.0426 81.7499L25.4078 82.2559L19.2508 91.8506L26.8401 86.3723C27.0736 86.2037 27.2303 86.038 27.3101 85.8752C27.375 85.71 27.3803 85.5351 27.326 85.3506C27.2656 85.1575 27.1573 84.9528 27.0012 84.7366L26.7109 84.3344L26.8406 84.2408L29.0975 87.3673Z" fill="#002B60"/>
<path d="M20.3792 74.0545L20.2259 74.1004L20.0836 73.6253C20.0254 73.4311 19.9493 73.2702 19.8554 73.1425C19.7512 73.0178 19.6153 72.936 19.4478 72.8971C19.2802 72.8583 19.0636 72.8786 18.798 72.9582L10.1691 75.544C9.89321 75.6267 9.69599 75.7304 9.57744 75.855C9.45582 75.9694 9.39244 76.1108 9.38728 76.2794C9.36884 76.4408 9.38871 76.6186 9.44688 76.8127L9.58926 77.2879L9.436 77.3338L6.98339 69.1494L9.72995 68.2261L9.77588 68.3794L9.26855 68.5815C8.75663 68.7683 8.37343 68.9945 8.11895 69.2601C7.86141 69.5154 7.71522 69.8265 7.68037 70.1932C7.64552 70.56 7.70924 71.0142 7.87152 71.5557L8.5283 73.7474L13.5248 72.2501L12.4133 68.5411L12.5666 68.4952L13.678 72.2042L19.165 70.5599L18.3658 67.8931C18.2035 67.3516 18.0055 66.9321 17.7716 66.6347C17.5377 66.3374 17.2415 66.1477 16.8829 66.0659C16.5141 65.9871 16.0645 66.0105 15.5342 66.136L15.0147 66.2416L14.9688 66.0883L17.775 65.3643L20.3792 74.0545Z" fill="#002B60"/>
<path d="M18.2382 50.2769C18.0566 51.4469 17.6628 52.3842 17.0568 53.0889C16.4509 53.7936 15.6855 54.2739 14.7606 54.5297C13.8268 54.7734 12.7802 54.8052 11.6208 54.6252C10.4719 54.4468 9.49472 54.1008 8.68932 53.5872C7.87502 53.0613 7.2868 52.3655 6.92467 51.4997C6.55364 50.6217 6.46221 49.5767 6.6504 48.3645C6.76331 47.6373 6.94336 47.0337 7.19056 46.554C7.42721 46.0726 7.70829 45.7222 8.03379 45.5029C8.34875 45.2819 8.67487 45.1976 9.01217 45.25C9.39162 45.3089 9.67275 45.5145 9.85554 45.8667C10.0294 46.2067 10.0738 46.6508 9.98874 47.1989C9.29308 47.0909 8.7238 47.0727 8.28091 47.1442C7.82748 47.2142 7.47854 47.3759 7.23409 47.6294C6.98964 47.8829 6.83141 48.2415 6.75941 48.7053C6.66123 49.3377 6.78576 49.8914 7.13302 50.3663C7.47137 50.829 8.04217 51.2199 8.8454 51.5389C9.6381 51.8562 10.6721 52.1139 11.9475 52.3119C13.244 52.5132 14.331 52.5686 15.2086 52.4782C16.0757 52.3861 16.7455 52.1393 17.218 51.7377C17.6922 51.3255 17.9874 50.7453 18.1036 49.9969C18.2197 49.2485 18.1136 48.6114 17.785 48.0854C17.4476 47.5473 16.8712 47.1232 16.0558 46.8131C16.1297 46.6842 16.2304 46.5919 16.3578 46.5361C16.4747 46.4787 16.6174 46.4631 16.7861 46.4893C16.9969 46.522 17.2084 46.6196 17.4207 46.7821C17.6224 46.9429 17.8074 47.1768 17.9756 47.4835C18.1333 47.7887 18.2411 48.1724 18.2988 48.6347C18.3566 49.0971 18.3364 49.6445 18.2382 50.2769Z" fill="#002B60"/>
<path d="M22.2444 39.0618C21.6995 40.113 21.0301 40.8714 20.2362 41.3369C19.4422 41.8024 18.5614 42.0066 17.5938 41.9496C16.631 41.8831 15.6241 41.5774 14.5729 41.0325C13.5217 40.4876 12.6962 39.8435 12.0964 39.1C11.5015 38.3471 11.1701 37.5145 11.1023 36.6023C11.0299 35.6758 11.2662 34.6869 11.8111 33.6357C12.3314 32.6319 12.9885 31.8972 13.7825 31.4317C14.567 30.9613 15.4455 30.7499 16.4181 30.7974C17.3811 30.8401 18.3883 31.1339 19.4394 31.6787C20.4906 32.2236 21.3159 32.8797 21.9154 33.647C22.5054 34.4094 22.8366 35.2538 22.909 36.1804C22.9863 37.0975 22.7648 38.058 22.2444 39.0618ZM22.1097 38.974C22.3404 38.5289 22.4445 38.0963 22.422 37.6761C22.395 37.2416 22.2318 36.8146 21.9326 36.3952C21.6239 35.9709 21.1746 35.5397 20.5846 35.1018C19.9947 34.6638 19.2546 34.2141 18.3644 33.7527C17.4742 33.2912 16.6849 32.9482 15.9964 32.7234C15.2985 32.4938 14.6919 32.3776 14.1767 32.3749C13.652 32.3673 13.2115 32.4753 12.8552 32.6991C12.4894 32.918 12.1887 33.2548 11.9531 33.7093C11.7175 34.1639 11.6132 34.6084 11.6403 35.043C11.6579 35.4726 11.8186 35.9043 12.1223 36.3381C12.4216 36.7575 12.8661 37.1862 13.4561 37.6242C14.0415 38.0478 14.7793 38.4903 15.6695 38.9517C16.5597 39.4131 17.3513 39.7634 18.0443 40.0025C18.7423 40.2321 19.3536 40.3508 19.8783 40.3584C20.3984 40.3517 20.8414 40.2389 21.2071 40.02C21.5683 39.7867 21.8692 39.438 22.1097 38.974Z" fill="#002B60"/>
<path d="M26.4512 31.9269L26.3423 31.8097L26.9164 31.2758C27.0648 31.1378 27.1719 30.9946 27.2377 30.846C27.3113 30.6902 27.3246 30.5322 27.2776 30.372C27.2311 30.1967 27.1098 30.0036 26.9137 29.7927L20.7906 23.2076C20.6017 23.0045 20.4289 22.8812 20.2719 22.8378C20.1156 22.7793 19.9606 22.7849 19.8071 22.8548C19.6542 22.9097 19.5035 23.0061 19.3551 23.1441L18.781 23.6779L18.672 23.5608L21.3787 21.044L31.6588 23.5234L26.4726 17.946C26.2838 17.7429 26.1073 17.6157 25.9431 17.5645C25.7789 17.5132 25.624 17.5189 25.4783 17.5815C25.3253 17.6364 25.1747 17.7328 25.0263 17.8708L24.3584 18.4918L24.2494 18.3746L27.167 15.6617L27.276 15.7789L26.6081 16.3999C26.4597 16.5379 26.3526 16.6812 26.2868 16.8298C26.2288 16.9711 26.2231 17.1293 26.2695 17.3046C26.3087 17.4721 26.4264 17.6613 26.6225 17.8722L33.5519 25.3244L32.9777 25.8582L20.7116 22.8877L27.0309 29.6837C27.227 29.8946 27.4108 30.0296 27.5822 30.0887C27.7464 30.1399 27.905 30.1381 28.0579 30.0833C28.2108 30.0285 28.3615 29.9321 28.5099 29.7941L29.2599 29.0968L29.3688 29.214L26.4512 31.9269Z" fill="#002B60"/>
<path d="M38.3549 22.4217L38.2871 22.2768L38.7364 22.0667C38.9297 21.9763 39.0804 21.8705 39.1885 21.7493C39.2967 21.628 39.353 21.484 39.3574 21.3171C39.3669 21.136 39.3106 20.915 39.1886 20.6541L34.9459 11.5811L33.9169 12.0623C33.4144 12.2973 33.0332 12.5521 32.773 12.8268C32.5226 13.097 32.3878 13.4132 32.3688 13.7754C32.3497 14.1375 32.4361 14.574 32.6279 15.0849L32.87 15.6782L32.7251 15.746L31.5446 12.995L40.1973 8.94882L41.5662 11.6117L41.4212 11.6795L41.1067 11.1201C40.8472 10.6408 40.5724 10.2924 40.2823 10.0748C39.9921 9.85726 39.6583 9.76022 39.2807 9.78371C38.9127 9.80269 38.4775 9.92965 37.9751 10.1646L36.9316 10.6526L41.1743 19.7256C41.2963 19.9865 41.425 20.1736 41.5604 20.2869C41.7009 20.386 41.8524 20.4329 42.0148 20.4277C42.1868 20.4179 42.3647 20.37 42.5482 20.2842L42.9975 20.0741L43.0653 20.219L38.3549 22.4217Z" fill="#002B60"/>
<path d="M46.0317 18.7482L46.0102 18.5897L46.5968 18.5101C46.8082 18.4814 46.9828 18.4201 47.1208 18.326C47.2587 18.2319 47.3691 18.0932 47.4518 17.9097C47.5437 17.7143 47.6224 17.4614 47.688 17.1511L49.9183 6.69234L51.1866 6.52026L56.2711 16.1482C56.4126 16.3981 56.541 16.5906 56.6562 16.7256C56.782 16.8593 56.9126 16.9492 57.048 16.9954C57.1835 17.0416 57.341 17.0525 57.5207 17.0282L57.6317 17.0131L57.6532 17.1716L52.7541 17.8363L52.7326 17.6777L53.3985 17.5874C53.705 17.5458 53.9212 17.4734 54.0472 17.3702C54.1837 17.2656 54.2383 17.1128 54.2111 16.912C54.2025 16.8486 54.1826 16.7813 54.1514 16.7102C54.1293 16.6271 54.1013 16.5394 54.0673 16.4471C54.0438 16.3534 54.0037 16.2566 53.9471 16.1566L52.6546 13.6517L48.4848 14.2173L47.9325 16.8111C47.906 16.9331 47.8841 17.0491 47.8667 17.1591C47.8493 17.2691 47.8358 17.3678 47.8261 17.4553C47.8165 17.5427 47.8166 17.6234 47.8267 17.6974C47.8582 17.9299 47.9703 18.0816 48.1629 18.1523C48.3555 18.2231 48.6368 18.2334 49.0067 18.1832L49.847 18.0692L49.8685 18.2277L46.0317 18.7482ZM48.5267 14.0502L52.5856 13.4996L51.1146 10.6313C50.9794 10.3482 50.8306 10.0455 50.6685 9.72299C50.5049 9.38996 50.3473 9.0615 50.1957 8.7376C50.0533 8.4017 49.9271 8.10665 49.8173 7.85244C49.7811 8.06187 49.7418 8.28787 49.6994 8.53045C49.6555 8.76245 49.607 9.00046 49.554 9.24446C49.501 9.48847 49.4487 9.73777 49.3971 9.99234C49.3441 10.2364 49.2904 10.4751 49.236 10.7085L48.5267 14.0502Z" fill="#002B60"/>
<path d="M66.4155 18.56C65.2499 18.3516 64.3219 17.9363 63.6313 17.3143C62.9407 16.6924 62.4781 15.9161 62.2436 14.9856C62.0215 14.0465 62.0138 12.9995 62.2204 11.8444C62.4251 10.6999 62.7935 9.731 63.3255 8.93762C63.8698 8.13561 64.579 7.56353 65.4529 7.22139C66.3392 6.87063 67.3861 6.80325 68.5936 7.01923C69.3181 7.14883 69.9173 7.3427 70.3912 7.60085C70.8671 7.8485 71.2109 8.13756 71.4227 8.46801C71.6363 8.78796 71.7131 9.11594 71.653 9.45194C71.5854 9.82994 71.3734 10.1063 71.0171 10.2809C70.6732 10.447 70.2282 10.4811 69.6822 10.3835C69.8062 9.69048 69.8374 9.12177 69.7761 8.67735C69.7166 8.22244 69.5629 7.86987 69.3151 7.61966C69.0673 7.36945 68.7124 7.20303 68.2504 7.12039C67.6204 7.0077 67.064 7.11948 66.5813 7.45573C66.1109 7.78336 65.707 8.34503 65.3696 9.14072C65.0341 9.92592 64.7528 10.9538 64.5255 12.2243C64.2945 13.5158 64.2141 14.6012 64.2844 15.4807C64.3565 16.3496 64.5879 17.0249 64.9785 17.5066C65.3796 17.9901 65.9529 18.2985 66.6984 18.4319C67.4439 18.5652 68.0834 18.4737 68.6167 18.1573C69.1625 17.8324 69.5997 17.2658 69.9285 16.4578C70.0556 16.5347 70.1456 16.6375 70.1984 16.7661C70.2531 16.8842 70.2655 17.0273 70.2354 17.1953C70.1979 17.4053 70.0954 17.6146 69.9281 17.823C69.7627 18.021 69.5247 18.2005 69.2141 18.3617C68.9054 18.5124 68.5193 18.6113 68.0558 18.6584C67.5922 18.7055 67.0455 18.6727 66.4155 18.56Z" fill="#002B60"/>
<path d="M73.8595 20.7041L73.9321 20.5615L74.3741 20.7865C74.5642 20.8832 74.7403 20.937 74.9024 20.9477C75.0646 20.9584 75.2128 20.9141 75.347 20.8149C75.4957 20.711 75.6353 20.5307 75.7659 20.2741L80.3093 11.3478L79.2969 10.8325C78.8026 10.5809 78.3671 10.4371 77.9905 10.401C77.6234 10.3697 77.2913 10.458 76.994 10.6658C76.6967 10.8735 76.4057 11.2101 76.1209 11.6756L75.8021 12.2314L75.6595 12.1589L77.1023 9.53594L85.615 13.8688L84.3576 16.5861L84.215 16.5135L84.4626 15.9214C84.6808 15.4221 84.7865 14.9911 84.7795 14.6285C84.7726 14.2659 84.6437 13.943 84.3929 13.6597C84.1516 13.3813 83.7838 13.1163 83.2895 12.8647L82.2628 12.3421L77.7195 21.2684C77.5888 21.5251 77.5205 21.7416 77.5144 21.9181C77.5228 22.0899 77.5789 22.2382 77.683 22.3629C77.7965 22.4926 77.9436 22.6033 78.1243 22.6953L78.5663 22.9203L78.4937 23.0628L73.8595 20.7041Z" fill="#002B60"/>
<path d="M86.7955 28.8074L86.926 28.7147L87.4821 29.4972C87.5995 29.6624 87.7232 29.7904 87.8532 29.8812C87.9919 29.9658 88.1468 29.9997 88.318 29.9827C88.4891 29.9657 88.6877 29.8769 88.9138 29.7163L96.2821 24.4789C96.5082 24.3183 96.653 24.163 96.7166 24.0131C96.7888 23.857 96.8035 23.7027 96.7604 23.5501C96.7261 23.3913 96.6502 23.2293 96.5328 23.0641L95.9766 22.2816L96.107 22.1889L98.3873 25.3971L93.0786 33.5872L102.234 30.8092L104.292 33.7043L104.162 33.797L103.874 33.3928C103.757 33.2276 103.626 33.0983 103.481 33.005C103.342 32.9203 103.183 32.8896 103.003 32.9127C102.838 32.9384 102.638 33.0346 102.404 33.2015L95.1265 38.3739C94.8917 38.5408 94.7308 38.701 94.6436 38.8545C94.5714 39.0106 94.5524 39.168 94.5867 39.3268C94.6273 39.4943 94.7062 39.6607 94.8237 39.8259L95.111 40.2301L94.9806 40.3228L92.1997 36.4105L92.3301 36.3178L92.4043 36.4221C92.5341 36.6047 92.667 36.7457 92.8032 36.8452C92.9481 36.9386 93.0986 36.9755 93.2549 36.956C93.4261 36.939 93.616 36.8564 93.8246 36.7081L101.636 31.1556L90.8093 34.4543L90.4478 33.9457L96.6748 24.3961L89.0456 29.8189C88.8109 29.9857 88.653 30.1503 88.572 30.3125C88.5059 30.4773 88.4993 30.6521 88.5522 30.837C88.6113 31.0306 88.7181 31.236 88.8726 31.4534L89.1599 31.8576L89.0295 31.9503L86.7955 28.8074Z" fill="#002B60"/>
<path d="M95.4573 42.2139L95.611 42.1692L95.7497 42.6454C95.8064 42.8399 95.8813 43.0014 95.9743 43.1299C96.0775 43.2553 96.2127 43.3381 96.38 43.3783C96.5472 43.4184 96.764 43.3997 97.0302 43.3221L105.678 40.8017C105.955 40.7211 106.153 40.6189 106.272 40.4952C106.395 40.3818 106.459 40.2408 106.466 40.0722C106.485 39.911 106.467 39.733 106.41 39.5385L106.271 39.0623L106.425 39.0175L108.816 47.2203L106.062 48.1227L106.017 47.9691L106.526 47.7708C107.04 47.5879 107.424 47.3646 107.681 47.101C107.94 46.8476 108.089 46.5376 108.127 46.1711C108.164 45.8046 108.104 45.35 107.946 44.8073L107.306 42.6107L102.298 44.0701L103.381 47.7874L103.228 47.8322L102.144 44.1149L96.6451 45.7175L97.4241 48.3903C97.5822 48.9331 97.7771 49.354 98.0088 49.6532C98.2404 49.9523 98.5352 50.1442 98.8931 50.2287C99.2613 50.3103 99.711 50.2903 100.242 50.1689L100.763 50.0672L100.807 50.2208L97.9957 50.9236L95.4573 42.2139Z" fill="#002B60"/>
</svg>
