<svg width="93" height="93" viewBox="0 0 93 93" fill="none" xmlns="http://www.w3.org/2000/svg">
<path d="M79.6189 49.2823C79.6645 48.7904 79.7516 48.3677 79.8801 48.0141C80.0165 47.6699 80.1818 47.3893 80.376 47.1723C80.5788 46.9561 80.7933 46.802 81.0195 46.7098C81.2448 46.6263 81.474 46.5954 81.707 46.617C81.9572 46.6402 82.1548 46.7152 82.2998 46.8418C82.4447 46.9684 82.5472 47.1302 82.6072 47.3273C82.6665 47.533 82.6857 47.748 82.6649 47.9724C81.9565 47.9153 81.3931 47.937 80.9747 48.0374C80.5555 48.1464 80.2515 48.3271 80.0627 48.5794C79.8739 48.8317 79.7627 49.139 79.7291 49.5015C79.6795 50.0365 79.7858 50.4859 80.048 50.8497C80.3101 51.2135 80.7346 51.4227 81.3214 51.4772C81.7184 51.514 82.05 51.4578 82.3163 51.3085C82.5904 51.1685 82.8423 50.9395 83.072 50.6214C83.3009 50.3119 83.5417 49.9208 83.7944 49.4482C83.9936 49.0837 84.1978 48.7589 84.407 48.4736C84.6155 48.1971 84.8372 47.9652 85.0721 47.7782C85.3157 47.5919 85.5808 47.4555 85.8673 47.3689C86.1617 47.2918 86.4858 47.2697 86.8396 47.3026C87.366 47.3515 87.8031 47.5183 88.151 47.803C88.5067 48.0971 88.7621 48.4864 88.9174 48.9709C89.0813 49.4561 89.1336 50.018 89.0744 50.6566C89.0247 51.1916 88.9133 51.6426 88.74 52.0095C88.5753 52.3772 88.3712 52.6541 88.1276 52.8404C87.884 53.0267 87.6242 53.107 87.348 53.0814C87.0633 53.0549 86.8372 52.9121 86.6697 52.6528C86.5101 52.403 86.4511 52.0537 86.4927 51.6049C87.2867 51.6787 87.8839 51.621 88.2844 51.4319C88.6841 51.2514 88.908 50.9023 88.956 50.3845C88.9808 50.117 88.9522 49.8619 88.8703 49.6193C88.7884 49.3767 88.6334 49.1708 88.4054 49.0016C88.1852 48.8419 87.8766 48.7436 87.4796 48.7068C87.1172 48.6731 86.7997 48.7176 86.5272 48.8403C86.2626 48.9724 86.0115 49.1928 85.774 49.5015C85.5364 49.8101 85.276 50.2255 84.9925 50.7475C84.7193 51.2531 84.4451 51.6759 84.1699 52.0159C83.8938 52.3645 83.583 52.6185 83.2375 52.7779C82.9006 52.9381 82.4991 52.9966 82.0331 52.9533C81.4895 52.9028 81.023 52.7246 80.6336 52.4186C80.2528 52.1134 79.9695 51.6954 79.7837 51.1646C79.6066 50.6347 79.5516 50.0072 79.6189 49.2823Z" fill="#D5A459"/>
<path d="M78.0539 56.959C78.3507 56.0439 78.7863 55.3471 79.3606 54.8684C79.935 54.3897 80.6137 54.109 81.3968 54.0261C82.1772 53.9515 83.0249 54.0628 83.9399 54.3599C84.8549 54.657 85.6022 55.0637 86.1818 55.58C86.7588 56.1045 87.1352 56.7279 87.3109 57.4502C87.4922 58.1834 87.4345 59.0075 87.1377 59.9226C86.8543 60.7964 86.4254 61.4727 85.851 61.9514C85.2849 62.4327 84.609 62.7189 83.8232 62.81C83.0457 62.9038 82.1994 62.8021 81.2845 62.505C80.3695 62.2079 79.6207 61.7916 79.0382 61.2561C78.4639 60.7234 78.086 60.0904 77.9047 59.3572C77.7207 58.6323 77.7705 57.8329 78.0539 56.959ZM78.1735 57.0115C78.0479 57.399 78.022 57.7596 78.0959 58.0935C78.1755 58.4382 78.363 58.7588 78.6587 59.0553C78.9625 59.3544 79.38 59.6404 79.9111 59.9131C80.4422 60.1858 81.0952 60.4479 81.87 60.6996C82.6449 60.9512 83.3231 61.1213 83.9048 61.21C84.4947 61.3013 84.9963 61.3139 85.4096 61.2476C85.8311 61.184 86.1698 61.0389 86.4255 60.8121C86.6895 60.588 86.8857 60.2781 87.0141 59.8824C87.1424 59.4867 87.1668 59.1165 87.0873 58.7717C87.016 58.4297 86.8298 58.1049 86.5286 57.7975C86.233 57.5011 85.8196 57.2165 85.2885 56.9438C84.763 56.682 84.1128 56.4253 83.338 56.1737C82.5631 55.922 81.8821 55.7464 81.2948 55.6469C80.7049 55.5555 80.1992 55.5416 79.7777 55.6052C79.3617 55.6797 79.0217 55.829 78.7577 56.0531C78.4993 56.2881 78.3045 56.6076 78.1735 57.0115Z" fill="#D5A459"/>
<path d="M74.4942 64.4254C75.0074 63.6117 75.6013 63.0437 76.2759 62.7215C76.9505 62.3992 77.6774 62.2945 78.4567 62.4074C79.2314 62.5276 80.0254 62.8445 80.8388 63.3582C81.6521 63.8719 82.2761 64.4504 82.7105 65.0937C83.1403 65.7444 83.3513 66.4414 83.3435 67.1848C83.3385 67.9401 83.0794 68.7246 82.5661 69.5383C82.076 70.3153 81.4937 70.8649 80.8191 71.1872C80.1518 71.5141 79.4263 71.6247 78.6424 71.5192C77.8658 71.4183 77.0708 71.111 76.2574 70.5973C75.444 70.0837 74.8211 69.4955 74.3886 68.8329C73.9634 68.1749 73.7533 67.4682 73.7584 66.7129C73.7588 65.9649 74.0041 65.2024 74.4942 64.4254ZM74.5972 64.5058C74.3799 64.8503 74.2659 65.1935 74.2552 65.5352C74.2473 65.889 74.35 66.246 74.5634 66.6062C74.7841 66.9711 75.1182 67.3512 75.5656 67.7465C76.013 68.1418 76.5812 68.557 77.27 68.992C77.9588 69.427 78.5741 69.7592 79.1159 69.9886C79.6651 70.2226 80.1481 70.3585 80.5649 70.3962C80.989 70.4386 81.353 70.3814 81.6567 70.2247C81.9678 70.0727 82.2343 69.8207 82.4562 69.4689C82.6782 69.117 82.7931 68.7642 82.801 68.4105C82.8163 68.0614 82.7159 67.7007 82.4998 67.3285C82.2864 66.9682 81.956 66.5904 81.5086 66.1951C81.0639 65.8118 80.4971 65.4026 79.8083 64.9676C79.1195 64.5326 78.5028 64.1944 77.9583 63.9531C77.4091 63.719 76.9225 63.5808 76.4983 63.5385C76.0769 63.5081 75.7107 63.5689 75.3996 63.721C75.0912 63.885 74.8237 64.1466 74.5972 64.5058Z" fill="#D5A459"/>
<path d="M72.5808 67.7705L72.67 67.8651L72.2068 68.3024C72.0871 68.4154 72.0009 68.5325 71.9484 68.6536C71.8895 68.7807 71.8797 68.9092 71.9188 69.0391C71.9576 69.1813 72.0572 69.3375 72.2177 69.5078L77.2299 74.8234C77.3845 74.9874 77.5256 75.0865 77.6533 75.1209C77.7807 75.1675 77.9065 75.162 78.0308 75.1043C78.1547 75.0588 78.2765 74.9796 78.3962 74.8665L78.8594 74.4292L78.9486 74.5238L76.765 76.5853L68.4006 74.6311L72.6458 79.1333C72.8004 79.2972 72.9445 79.3996 73.0781 79.4402C73.2118 79.4809 73.3376 79.4754 73.4555 79.4236C73.5794 79.3782 73.7013 79.2989 73.821 79.1859L74.3598 78.6772L74.449 78.7718L72.0952 80.9939L72.006 80.8993L72.5449 80.3906C72.6646 80.2776 72.7507 80.1605 72.8033 80.0394C72.8495 79.9242 72.8533 79.7955 72.8145 79.6534C72.7817 79.5175 72.685 79.3644 72.5245 79.1942L66.8524 73.1786L67.3156 72.7413L77.2959 75.0829L72.1232 69.597C71.9627 69.4268 71.8126 69.3182 71.673 69.2712C71.5394 69.2305 71.4106 69.2329 71.2867 69.2783C71.1628 69.3238 71.041 69.4031 70.9212 69.5161L70.3162 70.0872L70.2271 69.9927L72.5808 67.7705Z" fill="#D5A459"/>
<path d="M61.1239 76.371C61.5689 76.1567 61.9761 76.0135 62.3454 75.9415C62.7106 75.881 63.0362 75.8781 63.3222 75.9328C63.6119 75.9953 63.8544 76.0997 64.0499 76.2461C64.2375 76.3962 64.382 76.5767 64.4834 76.7876C64.5924 77.0141 64.6299 77.2221 64.596 77.4116C64.5621 77.601 64.4762 77.7723 64.3382 77.9253C64.1924 78.0821 64.018 78.2093 63.815 78.3071C63.4992 77.6704 63.1905 77.1986 62.889 76.8917C62.5797 76.5886 62.2683 76.4211 61.9549 76.3893C61.6415 76.3574 61.3208 76.4205 60.9928 76.5784C60.5087 76.8116 60.1782 77.1342 60.0014 77.5464C59.8246 77.9586 59.8639 78.4303 60.1194 78.9614C60.2922 79.3206 60.5111 79.5759 60.7762 79.7272C61.0373 79.8901 61.3633 79.988 61.7542 80.021C62.1373 80.0577 62.5965 80.0626 63.1318 80.0357C63.5467 80.0187 63.9303 80.0264 64.2824 80.0588C64.6268 80.0949 64.9397 80.1655 65.221 80.2705C65.5061 80.3833 65.7595 80.5403 65.9812 80.7413C66.1988 80.9539 66.3847 81.2203 66.5387 81.5406C66.7678 82.017 66.85 82.4776 66.7851 82.9225C66.7161 83.379 66.514 83.7986 66.1787 84.1812C65.8472 84.5718 65.3926 84.9061 64.8148 85.1844C64.3306 85.4175 63.8867 85.5544 63.4831 85.5948C63.0831 85.6431 62.7407 85.6109 62.4556 85.4981C62.1705 85.3853 61.9679 85.2039 61.8477 84.954C61.7237 84.6962 61.7297 84.4288 61.8657 84.1517C61.9976 83.8861 62.2666 83.6556 62.6727 83.4601C63.0183 84.1786 63.3752 84.6608 63.7435 84.9067C64.104 85.1563 64.5185 85.1683 64.987 84.9427C65.2291 84.8262 65.433 84.6702 65.5987 84.475C65.7645 84.2797 65.8611 84.0408 65.8887 83.7582C65.9122 83.4872 65.8376 83.172 65.6648 82.8127C65.507 82.4847 65.3054 82.2355 65.0599 82.0651C64.8104 81.9063 64.4923 81.8046 64.1054 81.7601C63.7185 81.7155 63.2284 81.7063 62.635 81.7323C62.061 81.7586 61.5575 81.7414 61.1244 81.6806C60.6834 81.6236 60.3057 81.4881 59.9911 81.274C59.6804 81.0678 59.4235 80.7538 59.2207 80.332C58.984 79.84 58.8966 79.3482 58.9583 78.8568C59.0238 78.3731 59.2362 77.9149 59.5955 77.4822C59.9585 77.0573 60.468 76.6869 61.1239 76.371Z" fill="#D5A459"/>
<path d="M53.7523 78.9636C54.6896 78.7474 55.5113 78.7623 56.2173 79.0086C56.9233 79.2548 57.5133 79.6924 57.9873 80.3213C58.4529 80.9521 58.7936 81.7362 59.0097 82.6736C59.2257 83.6111 59.2615 84.4611 59.1171 85.2238C58.9642 85.9884 58.6233 86.6318 58.0944 87.1541C57.559 87.6868 56.8227 88.0613 55.8853 88.2775C54.9901 88.4841 54.1896 88.4642 53.4836 88.218C52.7795 87.9802 52.1863 87.5478 51.7038 86.9209C51.2234 86.3024 50.8751 85.5245 50.6591 84.587C50.443 83.6496 50.4147 82.7934 50.5741 82.0184C50.7354 81.2518 51.0837 80.6022 51.6191 80.0695C52.1461 79.5388 52.8571 79.1702 53.7523 78.9636ZM53.7688 79.0933C53.3719 79.1848 53.0493 79.3482 52.8011 79.5834C52.5464 79.8289 52.368 80.1547 52.2659 80.5607C52.1658 80.9752 52.1354 81.4802 52.1749 82.076C52.2143 82.6717 52.3255 83.3665 52.5085 84.1603C52.6914 84.9542 52.8945 85.6233 53.1178 86.1677C53.3431 86.7206 53.5904 87.1571 53.8599 87.4774C54.1313 87.8061 54.43 88.0218 54.7561 88.1245C55.0841 88.2356 55.4508 88.2444 55.8561 88.1509C56.2615 88.0573 56.5915 87.8878 56.8462 87.6422C57.1028 87.4051 57.2854 87.0784 57.394 86.662C57.4961 86.256 57.5275 85.7551 57.488 85.1594C57.4421 84.5741 57.3276 83.8845 57.1447 83.0906C56.9617 82.2967 56.7619 81.6224 56.5451 81.0676C56.3198 80.5148 56.0715 80.074 55.8001 79.7453C55.5222 79.4269 55.2192 79.2122 54.8912 79.1011C54.5567 79.0004 54.1826 78.9978 53.7688 79.0933Z" fill="#D5A459"/>
<path d="M45.363 79.7394C46.3247 79.7654 47.1163 79.9862 47.738 80.4018C48.3597 80.8174 48.8211 81.3891 49.1222 82.1169C49.4147 82.8444 49.5479 83.6889 49.522 84.6506C49.496 85.6122 49.3175 86.444 48.9864 87.146C48.6467 87.8478 48.1553 88.385 47.5123 88.7578C46.8605 89.139 46.0537 89.3165 45.0921 89.2905C44.1737 89.2657 43.4037 89.0455 42.7821 88.6299C42.1602 88.2229 41.6943 87.6554 41.3845 86.9275C41.0745 86.2081 40.9325 85.3677 40.9584 84.406C40.9844 83.4444 41.1717 82.6085 41.5203 81.8983C41.8687 81.1968 42.3689 80.6554 43.0207 80.2743C43.6639 79.8928 44.4447 79.7145 45.363 79.7394ZM45.3465 79.869C44.9393 79.858 44.5861 79.9351 44.2869 80.1004C43.9788 80.2741 43.7244 80.5447 43.5237 80.9121C43.3228 81.2881 43.1668 81.7694 43.0555 82.356C42.9443 82.9425 42.8777 83.643 42.8557 84.4573C42.8337 85.2717 42.8626 85.9704 42.9422 86.5534C43.0216 87.1451 43.1515 87.6298 43.3321 88.0075C43.5124 88.3938 43.7475 88.6776 44.0373 88.8589C44.327 89.0488 44.6797 89.1493 45.0956 89.1606C45.5114 89.1718 45.8734 89.0906 46.1816 88.9169C46.4895 88.7518 46.7482 88.4813 46.9577 88.1055C47.1584 87.7382 47.3143 87.2612 47.4255 86.6747C47.5279 86.0965 47.59 85.4003 47.612 84.5859C47.634 83.7716 47.6096 83.0687 47.5389 82.4772C47.4595 81.8855 47.3297 81.3965 47.1494 81.0101C46.9602 80.6322 46.7208 80.3483 46.4311 80.1584C46.1326 79.9769 45.771 79.8805 45.3465 79.869Z" fill="#D5A459"/>
<path d="M41.5518 79.8113L41.5163 79.9364L40.9035 79.7627C40.7451 79.7178 40.6004 79.7038 40.4695 79.7207C40.3303 79.7353 40.2149 79.7927 40.1235 79.8929C40.0214 79.9991 39.9385 80.1648 39.8747 80.3899L37.8849 87.4197C37.8235 87.6365 37.8108 87.8086 37.8468 87.9359C37.8721 88.0692 37.9414 88.1744 38.0547 88.2515C38.1573 88.3347 38.2878 88.3987 38.4462 88.4436L39.0591 88.6173L39.0237 88.7424L36.1345 87.9235L33.5202 79.7375L31.8348 85.6915C31.7735 85.9083 31.7596 86.0846 31.7933 86.2202C31.8269 86.3559 31.8962 86.4611 32.0011 86.5359C32.1037 86.619 32.2342 86.683 32.3926 86.7279L33.1056 86.93L33.0702 87.055L29.9558 86.1724L29.9912 86.0473L30.7041 86.2494C30.8626 86.2943 31.0072 86.3082 31.1381 86.2913C31.2607 86.272 31.373 86.2092 31.4751 86.103C31.5749 86.0052 31.6566 85.8437 31.7204 85.6186L33.9723 77.6631L34.5851 77.8368L37.696 87.6094L39.7497 80.3545C39.8134 80.1293 39.8296 79.9447 39.7983 79.8008C39.7647 79.6651 39.6966 79.5557 39.594 79.4726C39.4914 79.3895 39.3609 79.3255 39.2025 79.2806L38.402 79.0537L38.4374 78.9286L41.5518 79.8113Z" fill="#D5A459"/>
<path d="M28.3293 74.3597C28.7401 74.6341 29.0703 74.9121 29.3201 75.1936C29.5578 75.4775 29.7259 75.7565 29.8243 76.0307C29.9178 76.3121 29.9513 76.5742 29.9248 76.817C29.891 77.055 29.8092 77.2713 29.6793 77.466C29.5398 77.675 29.3799 77.8132 29.1997 77.8803C29.0194 77.9475 28.8283 77.9606 28.6265 77.9196C28.4175 77.8737 28.2193 77.7882 28.0319 77.6631C28.4191 77.0671 28.6681 76.5612 28.7789 76.1453C28.8824 75.7246 28.8682 75.3712 28.7362 75.085C28.6042 74.7987 28.3868 74.5545 28.0842 74.3523C27.6374 74.0539 27.1917 73.9333 26.7471 73.9907C26.3025 74.048 25.9166 74.3218 25.5895 74.8121C25.3683 75.1437 25.26 75.4622 25.2646 75.7675C25.2572 76.0753 25.3387 76.4059 25.5092 76.7595C25.6724 77.1083 25.9017 77.5063 26.197 77.9538C26.4227 78.3026 26.6111 78.6369 26.7624 78.9568C26.9064 79.2719 27.0047 79.5773 27.0574 79.8731C27.1053 80.1761 27.0992 80.4742 27.0389 80.7675C26.9667 81.0632 26.8319 81.3588 26.6347 81.6544C26.3413 82.0942 25.9867 82.3992 25.5709 82.5696C25.143 82.7424 24.6792 82.7817 24.1794 82.6876C23.6748 82.6006 23.1559 82.379 22.6226 82.0228C22.1758 81.7243 21.8323 81.4115 21.5922 81.0843C21.3473 80.7643 21.2008 80.4529 21.1529 80.1499C21.1051 79.8469 21.1581 79.5801 21.312 79.3494C21.4707 79.1115 21.7039 78.9806 22.0115 78.9568C22.3071 78.9354 22.6423 79.0498 23.017 79.3002C22.5745 79.9634 22.3411 80.5162 22.3168 80.9586C22.2853 81.3962 22.4858 81.7594 22.9182 82.0483C23.1416 82.1975 23.3794 82.2938 23.6317 82.3373C23.884 82.3808 24.1388 82.3425 24.396 82.2225C24.6411 82.1049 24.8744 81.8802 25.0956 81.5486C25.2976 81.2458 25.4095 80.9454 25.4313 80.6472C25.4411 80.3515 25.3668 80.0257 25.2084 79.6697C25.05 79.3138 24.8087 78.8868 24.4846 78.3889C24.17 77.9077 23.9288 77.4652 23.7608 77.0611C23.5856 76.6522 23.5101 76.2579 23.5343 75.878C23.5538 75.5053 23.6933 75.1244 23.9531 74.7351C24.2561 74.2809 24.6348 73.9554 25.0891 73.7586C25.5385 73.569 26.0408 73.5189 26.5959 73.6083C27.1461 73.7048 27.7239 73.9553 28.3293 74.3597Z" fill="#D5A459"/>
<path d="M22.3304 69.3391C22.9955 70.0342 23.4027 70.7482 23.5522 71.4812C23.7017 72.2141 23.6275 72.9452 23.3297 73.6745C23.026 74.3975 22.5267 75.0918 21.832 75.7572C21.1373 76.4227 20.4255 76.8885 19.6966 77.1547C18.9618 77.4146 18.2348 77.4508 17.5158 77.2635C16.7846 77.0759 16.0864 76.6345 15.4214 75.9394C14.7863 75.2756 14.3941 74.5772 14.2446 73.8443C14.0889 73.1174 14.1569 72.3861 14.4487 71.6506C14.7342 70.921 15.2243 70.2235 15.919 69.558C16.6137 68.8926 17.3346 68.43 18.0818 68.1704C18.8226 67.9168 19.5587 67.8837 20.2899 68.0714C21.0152 68.2527 21.6954 68.6753 22.3304 69.3391ZM22.2276 69.4197C21.946 69.1253 21.6407 68.9317 21.3119 68.8386C20.9708 68.7454 20.5997 68.7587 20.1988 68.8788C19.7916 69.0048 19.3423 69.2372 18.8508 69.576C18.3593 69.9148 17.8194 70.3659 17.2311 70.9295C16.6428 71.493 16.1719 72.0101 15.8185 72.4806C15.4589 72.9572 15.2104 73.3932 15.0731 73.7888C14.9295 74.1903 14.897 74.5575 14.9755 74.8903C15.0478 75.2292 15.2277 75.5489 15.5153 75.8495C15.8029 76.15 16.1172 76.347 16.4583 76.4403C16.7932 76.5395 17.1672 76.5293 17.5804 76.4095C17.9813 76.2895 18.4275 76.0601 18.919 75.7213C19.3983 75.3823 19.932 74.931 20.5203 74.3674C21.1086 73.8039 21.5856 73.287 21.9513 72.8167C22.311 72.3401 22.5626 71.9011 22.7062 71.4995C22.8375 71.0977 22.867 70.7274 22.7947 70.3886C22.7102 70.0495 22.5211 69.7265 22.2276 69.4197Z" fill="#D5A459"/>
<path d="M17.4318 62.6602C17.9055 63.4975 18.1247 64.2897 18.0894 65.0368C18.0541 65.784 17.8024 66.4744 17.3345 67.108C16.8622 67.7341 16.2076 68.2843 15.3706 68.7585C14.5336 69.2326 13.7291 69.5091 12.9571 69.5879C12.1808 69.6591 11.4673 69.5155 10.8164 69.1571C10.1537 68.7954 9.58547 68.1959 9.11173 67.3586C8.65934 66.5591 8.4508 65.7857 8.48612 65.0386C8.51389 64.2957 8.75963 63.6037 9.22333 62.9625C9.67949 62.3256 10.3261 61.77 11.1631 61.2958C12.0001 60.8217 12.8127 60.5506 13.6007 60.4827C14.3812 60.419 15.1028 60.568 15.7655 60.9297C16.424 61.2838 16.9794 61.8607 17.4318 62.6602ZM17.3123 62.713C17.1117 62.3585 16.8634 62.0957 16.5675 61.9247C16.2598 61.7504 15.8968 61.6721 15.4787 61.6898C15.053 61.7119 14.5603 61.8266 14.0006 62.0341C13.4409 62.2417 12.8066 62.5462 12.0978 62.9477C11.3889 63.3493 10.8054 63.7347 10.3471 64.1039C9.88128 64.4773 9.53319 64.8389 9.30283 65.1885C9.06493 65.5424 8.94313 65.8903 8.93743 66.2322C8.92418 66.5784 9.01998 66.9325 9.22484 67.2946C9.4297 67.6566 9.68599 67.9248 9.99373 68.0991C10.2939 68.2777 10.659 68.3597 11.0889 68.3452C11.5071 68.3275 11.996 68.2149 12.5557 68.0073C13.1036 67.7966 13.732 67.4904 14.4408 67.0888C15.1497 66.6873 15.7391 66.3035 16.2092 65.9376C16.675 65.5642 17.0269 65.2005 17.2648 64.8466C17.4909 64.4894 17.6105 64.1377 17.6238 63.7916C17.6252 63.4421 17.5214 63.0826 17.3123 62.713Z" fill="#D5A459"/>
<path d="M15.4208 59.4697L15.2954 59.5037L15.1288 58.8888C15.0858 58.7299 15.0233 58.5987 14.9414 58.4952C14.8572 58.3833 14.7487 58.314 14.6157 58.2872C14.4721 58.2543 14.2874 58.2684 14.0616 58.3297L7.01019 60.2417C6.79271 60.3007 6.63867 60.3784 6.54805 60.4748C6.4468 60.5651 6.39226 60.6787 6.38442 60.8155C6.36595 60.9462 6.37824 61.0911 6.42128 61.25L6.5878 61.8648L6.46233 61.8989L5.67732 59.0003L11.3503 52.5456L5.37795 54.1651C5.16047 54.2241 5.00224 54.3029 4.90326 54.4016C4.80428 54.5003 4.74974 54.6138 4.73963 54.7423C4.72116 54.873 4.73345 55.0178 4.7765 55.1768L4.9702 55.892L4.84473 55.926L3.99855 52.8016L4.12402 52.7676L4.31772 53.4828C4.36077 53.6417 4.42324 53.773 4.50515 53.8765C4.58479 53.9716 4.6964 54.0356 4.84 54.0685C4.97523 54.1037 5.15576 54.0907 5.38161 54.0294L13.3614 51.8656L13.528 52.4805L6.75036 60.1775L14.0276 58.2042C14.2534 58.143 14.42 58.0619 14.5274 57.9609C14.6263 57.8622 14.6851 57.7475 14.7035 57.6168C14.722 57.4861 14.7097 57.3413 14.6667 57.1823L14.4492 56.3793L14.5746 56.3452L15.4208 59.4697Z" fill="#D5A459"/>
<path d="M13.2696 45.2545C13.2468 45.748 13.1794 46.1743 13.0673 46.5335C12.947 46.8837 12.7949 47.1716 12.6109 47.3973C12.4183 47.6226 12.2112 47.7865 11.9895 47.889C11.7683 47.9828 11.5408 48.0243 11.3071 48.0135C11.056 48.0018 10.8552 47.9361 10.7045 47.8163C10.5539 47.6965 10.444 47.5396 10.3749 47.3455C10.3062 47.1428 10.2771 46.9289 10.2875 46.7038C10.9978 46.7281 11.5596 46.6804 11.9729 46.5608C12.3866 46.4325 12.6819 46.238 12.8588 45.9773C13.0357 45.7165 13.1326 45.4043 13.1494 45.0407C13.1742 44.504 13.0472 44.0599 12.7685 43.7086C12.4898 43.3573 12.0561 43.168 11.4674 43.1407C11.0691 43.1222 10.7405 43.1937 10.4814 43.3552C10.2141 43.5076 9.97303 43.748 9.7583 44.0764C9.54397 44.3961 9.3215 44.7979 9.0909 45.2817C8.90879 45.655 8.71983 45.989 8.52401 46.2835C8.3286 46.5694 8.11787 46.8113 7.89182 47.009C7.65712 47.2063 7.39865 47.3548 7.11641 47.4545C6.82592 47.5451 6.50319 47.5822 6.14824 47.5657C5.62014 47.5412 5.17577 47.3948 4.81511 47.1264C4.4462 46.849 4.173 46.4719 3.9955 45.9952C3.80935 45.518 3.73108 44.9591 3.76071 44.3185C3.78554 43.7817 3.87602 43.3261 4.03215 42.9516C4.17963 42.5767 4.37072 42.2906 4.60542 42.0933C4.84012 41.8959 5.09599 41.8037 5.37302 41.8166C5.65871 41.8298 5.89118 41.9621 6.07043 42.2133C6.24143 42.4555 6.31651 42.8017 6.29569 43.2519C5.49922 43.2149 4.90531 43.3001 4.51398 43.5075C4.12305 43.7063 3.91557 44.0654 3.89155 44.5848C3.87913 44.8532 3.91947 45.1067 4.01254 45.3453C4.10562 45.5838 4.26996 45.7823 4.50556 45.9408C4.7329 46.0901 5.04569 46.1741 5.44393 46.1926C5.80754 46.2095 6.1226 46.1503 6.38913 46.0152C6.6474 45.871 6.88803 45.6393 7.11102 45.32C7.33401 45.0006 7.575 44.5737 7.83397 44.0391C8.08348 43.5215 8.33785 43.0865 8.59707 42.7341C8.8567 42.3731 9.1554 42.105 9.49319 41.9298C9.82232 41.7542 10.2206 41.6773 10.6881 41.699C11.2335 41.7243 11.7078 41.8808 12.111 42.1685C12.5054 42.4557 12.8077 42.8602 13.0179 43.3818C13.2193 43.9031 13.3033 44.5273 13.2696 45.2545Z" fill="#D5A459"/>
<path d="M14.4804 37.4743C14.2254 38.4019 13.8219 39.1178 13.2698 39.622C12.7177 40.1262 12.0524 40.4375 11.2739 40.5558C10.4976 40.6658 9.64577 40.5931 8.71826 40.3378C7.79075 40.0825 7.02576 39.7102 6.42327 39.2208C5.82308 38.723 5.41883 38.1173 5.21051 37.4038C4.99613 36.6796 5.01644 35.8537 5.27143 34.9261C5.51494 34.0403 5.91273 33.3453 6.4648 32.841C7.00852 32.3345 7.6708 32.0179 8.45163 31.8912C9.22412 31.7623 10.0741 31.8254 11.0016 32.0807C11.9291 32.336 12.696 32.7179 13.3023 33.2263C13.9001 33.7325 14.3063 34.3476 14.5207 35.0718C14.7373 35.7876 14.7239 36.5885 14.4804 37.4743ZM14.3585 37.4272C14.4665 37.0345 14.476 36.673 14.387 36.3429C14.2919 36.0021 14.09 35.6904 13.7812 35.4076C13.4641 35.1226 13.034 34.8559 12.4911 34.6076C11.9482 34.3593 11.284 34.127 10.4985 33.9108C9.71307 33.6946 9.02778 33.5555 8.44266 33.4933C7.84919 33.4288 7.34753 33.4391 6.93768 33.524C6.51948 33.6067 6.18777 33.7671 5.94255 34.0052C5.68896 34.241 5.50704 34.5595 5.39677 34.9606C5.28651 35.3617 5.27891 35.7327 5.37398 36.0735C5.46069 36.4119 5.66146 36.7279 5.97629 37.0213C6.28505 37.304 6.7109 37.5695 7.25384 37.8179C7.79071 38.0555 8.45188 38.2824 9.23734 38.4986C10.0228 38.7148 10.7111 38.8593 11.3023 38.9322C11.8958 38.9966 12.4016 38.9875 12.8198 38.9049C13.2319 38.8116 13.5648 38.647 13.8184 38.4112C14.0659 38.1647 14.246 37.8367 14.3585 37.4272Z" fill="#D5A459"/>
<path d="M17.6681 29.8998C17.1913 30.7353 16.623 31.3289 15.9633 31.6806C15.3035 32.0323 14.5819 32.169 13.7984 32.0906C13.0192 32.0047 12.212 31.7232 11.3767 31.2459C10.5414 30.7686 9.8926 30.2182 9.4302 29.5947C8.9721 28.9636 8.73053 28.2766 8.70549 27.5336C8.67722 26.7788 8.90149 25.9837 9.37831 25.1482C9.83365 24.3503 10.3912 23.7755 11.0509 23.4238C11.7031 23.0678 12.4231 22.9252 13.2109 22.996C13.9912 23.0626 14.799 23.3345 15.6342 23.8117C16.4695 24.289 17.1178 24.8491 17.5791 25.492C18.0329 26.1306 18.274 26.8273 18.3022 27.5821C18.3348 28.3293 18.1234 29.1019 17.6681 29.8998ZM17.5616 29.824C17.7635 29.4702 17.8623 29.1224 17.8578 28.7805C17.8501 28.4267 17.7318 28.0746 17.5027 27.7241C17.2661 27.3693 16.9156 27.0044 16.4512 26.6292C15.9867 26.254 15.4008 25.8644 14.6935 25.4602C13.9861 25.056 13.3568 24.7513 12.8053 24.546C12.2464 24.3364 11.7579 24.222 11.3398 24.2027C10.9142 24.1791 10.5531 24.2523 10.2566 24.4222C9.95251 24.5879 9.69738 24.8513 9.49119 25.2126C9.28499 25.574 9.18574 25.9315 9.19341 26.2852C9.19356 26.6347 9.30978 26.9905 9.54208 27.3528C9.77115 27.7033 10.1179 28.0662 10.5823 28.4413C11.0436 28.8047 11.6278 29.1884 12.3352 29.5926C13.0425 29.9968 13.6735 30.3074 14.2282 30.5245C14.7871 30.7341 15.2794 30.8507 15.705 30.8743C16.1273 30.886 16.4906 30.8091 16.7946 30.6435C17.0955 30.466 17.3512 30.1928 17.5616 29.824Z" fill="#D5A459"/>
<path d="M19.3457 26.5436L19.2521 26.4534L19.6941 25.9947C19.8084 25.8761 19.8889 25.7551 19.9357 25.6316C19.9885 25.5019 19.9923 25.3731 19.9471 25.2452C19.9016 25.105 19.7947 24.9536 19.6263 24.7912L14.3688 19.7181C14.2066 19.5616 14.0609 19.4693 13.9317 19.441C13.8023 19.4004 13.6769 19.4119 13.5555 19.4754C13.4339 19.5266 13.316 19.6115 13.2017 19.7301L12.7597 20.1888L12.6661 20.0985L14.75 17.9362L23.1973 19.4933L18.7443 15.1966C18.5821 15.0401 18.4333 14.9447 18.2979 14.9104C18.1625 14.8761 18.0371 14.8876 17.9217 14.9448C17.8001 14.9961 17.6821 15.081 17.5679 15.1996L17.0537 15.7331L16.9601 15.6429L19.2064 13.3121L19.2999 13.4023L18.7857 13.9359C18.6714 14.0545 18.5909 14.1755 18.5441 14.2989C18.5034 14.4162 18.5057 14.5449 18.5512 14.6851C18.5904 14.8193 18.6942 14.9676 18.8626 15.1301L24.8124 20.8711L24.3703 21.3298L14.2906 19.462L19.7165 24.6975C19.8849 24.86 20.0399 24.9614 20.1816 25.0018C20.317 25.0361 20.4455 25.0276 20.5672 24.9764C20.6888 24.9251 20.8067 24.8402 20.921 24.7216L21.4983 24.1226L21.5919 24.2128L19.3457 26.5436Z" fill="#D5A459"/>
<path d="M30.4305 17.3468C29.9954 17.5808 29.5949 17.7419 29.2292 17.8303C28.8671 17.9069 28.5419 17.9242 28.2538 17.8823C27.9616 17.8328 27.7147 17.7392 27.5129 17.6017C27.3188 17.4601 27.1664 17.2862 27.0557 17.08C26.9368 16.8586 26.8901 16.6525 26.9156 16.4617C26.941 16.2709 27.0192 16.096 27.1503 15.937C27.2889 15.7739 27.4575 15.639 27.656 15.5323C27.9998 16.1543 28.3291 16.6119 28.644 16.9051C28.9664 17.1942 29.2849 17.3477 29.5995 17.3656C29.914 17.3834 30.2316 17.3062 30.5522 17.1338C31.0254 16.8794 31.3412 16.5423 31.4996 16.1227C31.6579 15.703 31.5976 15.2336 31.3188 14.7144C31.1302 14.3631 30.9002 14.1178 30.6286 13.9785C30.3606 13.8274 30.0306 13.744 29.6386 13.7285C29.2542 13.7088 28.7952 13.7243 28.2617 13.7749C27.848 13.8104 27.4645 13.8198 27.1112 13.8031C26.7655 13.7823 26.4499 13.7257 26.1642 13.6333C25.8744 13.5332 25.6143 13.3877 25.3838 13.1967C25.1569 12.994 24.9594 12.7361 24.7914 12.423C24.5413 11.9573 24.4388 11.5007 24.4838 11.0534C24.5325 10.5943 24.7157 10.1661 25.0336 9.76893C25.3474 9.36407 25.7868 9.0098 26.3517 8.70613C26.8249 8.45169 27.2623 8.29528 27.6638 8.23688C28.0612 8.17085 28.4047 8.18786 28.6945 8.28789C28.9843 8.38793 29.1948 8.56011 29.326 8.80445C29.4613 9.05643 29.4672 9.32386 29.3437 9.60675C29.2237 9.8779 28.9652 10.1202 28.5682 10.3336C28.1911 9.63109 27.813 9.16522 27.4342 8.93595C27.0629 8.70257 26.6483 8.709 26.1903 8.95522C25.9537 9.08244 25.7569 9.24726 25.6 9.44969C25.4431 9.65212 25.3571 9.89512 25.3422 10.1787C25.3307 10.4505 25.4193 10.762 25.6079 11.1133C25.7801 11.434 25.9926 11.674 26.2453 11.8333C26.5016 11.9808 26.824 12.0683 27.2125 12.0956C27.6009 12.1229 28.091 12.1104 28.6826 12.058C29.2548 12.0062 29.7587 12.001 30.1941 12.0424C30.6371 12.0798 31.0205 12.1984 31.3442 12.3983C31.6638 12.5905 31.9343 12.8928 32.1557 13.3051C32.414 13.7861 32.5232 14.2735 32.4834 14.7672C32.4395 15.2533 32.2476 15.7205 31.908 16.1688C31.5642 16.6095 31.0717 17.0021 30.4305 17.3468Z" fill="#D5A459"/>
<path d="M37.6217 14.4129C36.6952 14.6717 35.8737 14.6942 35.1572 14.4804C34.4407 14.2666 33.8314 13.8564 33.3293 13.2498C32.8355 12.6408 32.4593 11.8731 32.2008 10.9465C31.9423 10.0198 31.8678 9.1723 31.9773 8.40383C32.0952 7.63304 32.4064 6.97471 32.911 6.42885C33.4215 5.87232 34.1401 5.46464 35.0666 5.20584C35.9514 4.9587 36.7521 4.94202 37.4685 5.15582C38.1827 5.36128 38.795 5.76614 39.3055 6.37042C39.8136 6.96635 40.197 7.72762 40.4555 8.65423C40.714 9.58085 40.7813 10.4349 40.6574 11.2164C40.5312 11.9895 40.2128 12.6543 39.7022 13.2109C39.2 13.7651 38.5065 14.1658 37.6217 14.4129ZM37.5993 14.2842C37.9916 14.1746 38.3064 13.9967 38.5436 13.7505C38.7868 13.4935 38.9502 13.16 39.0337 12.7497C39.1149 12.3311 39.1222 11.8252 39.0556 11.2319C38.9891 10.6386 38.8464 9.94955 38.6274 9.16485C38.4085 8.38014 38.1751 7.72096 37.9273 7.1873C37.6771 6.64529 37.4101 6.22045 37.1263 5.91279C36.8402 5.59677 36.532 5.39492 36.2016 5.30724C35.8689 5.21121 35.5022 5.21915 35.1016 5.33106C34.7009 5.44297 34.3789 5.62739 34.1357 5.8843C33.8901 6.13286 33.7226 6.46761 33.6331 6.88854C33.5496 7.29879 33.5411 7.80057 33.6076 8.39388C33.6802 8.9765 33.8259 9.66017 34.0449 10.4449C34.2638 11.2296 34.4941 11.8941 34.736 12.4384C34.9862 12.9804 35.2543 13.4095 35.5404 13.7255C35.8325 14.0308 36.145 14.2315 36.4777 14.3275C36.8164 14.4129 37.1903 14.3984 37.5993 14.2842Z" fill="#D5A459"/>
<path d="M45.7658 13.2245C44.804 13.2468 44.0023 13.066 43.3606 12.6821C42.7189 12.2982 42.2294 11.7504 41.8921 11.0387C41.5636 10.3268 41.3882 9.48993 41.3659 8.52819C41.3436 7.56645 41.4802 6.72672 41.7757 6.00902C42.0799 5.29111 42.5437 4.72988 43.1671 4.32533C43.7991 3.9119 44.5959 3.69405 45.5576 3.67176C46.4761 3.65047 47.2561 3.83178 47.8979 4.21568C48.5394 4.59091 49.0331 5.13429 49.379 5.8458C49.7247 6.54864 49.9086 7.38094 49.9309 8.34268C49.9532 9.30442 49.808 10.1487 49.4954 10.8754C49.1826 11.5936 48.7102 12.1593 48.0783 12.5727C47.455 12.986 46.6842 13.2032 45.7658 13.2245ZM45.7758 13.0942C46.183 13.0848 46.5319 12.99 46.8225 12.8099C47.1215 12.6209 47.362 12.3379 47.544 11.961C47.7258 11.5753 47.8575 11.0868 47.9392 10.4954C48.0209 9.90402 48.0523 9.20111 48.0334 8.38666C48.0146 7.57221 47.9508 6.87583 47.842 6.29753C47.7331 5.71056 47.579 5.23301 47.3797 4.86486C47.1803 4.48805 46.9313 4.21641 46.6327 4.04995C46.3339 3.87483 45.9765 3.79208 45.5606 3.80172C45.1448 3.81136 44.7873 3.91067 44.4883 4.09965C44.189 4.27997 43.9442 4.56305 43.7537 4.9489C43.5717 5.32589 43.4399 5.81007 43.3582 6.40145C43.285 6.98397 43.2578 7.68246 43.2767 8.49691C43.2955 9.31135 43.3551 10.0122 43.4554 10.5993C43.5643 11.1863 43.7185 11.6682 43.918 12.045C44.1259 12.4129 44.3792 12.6845 44.678 12.8596C44.9853 13.0259 45.3512 13.1041 45.7758 13.0942Z" fill="#D5A459"/>
<path d="M49.7803 12.9437L49.8099 12.8172L50.4301 12.9628C50.5904 13.0004 50.7355 13.0078 50.8655 12.9849C51.004 12.9639 51.1166 12.9013 51.2033 12.7971C51.3005 12.6864 51.3758 12.5171 51.4292 12.2893L53.0969 5.17615C53.1484 4.95677 53.1532 4.78431 53.1114 4.65877C53.0801 4.52678 53.006 4.42483 52.8894 4.35293C52.7831 4.27457 52.6498 4.21658 52.4895 4.17895L51.8694 4.03337L51.8991 3.9068L54.8226 4.5931L57.8069 12.6514L59.2195 6.62675C59.2709 6.40737 59.2767 6.23069 59.2369 6.09672C59.1971 5.96274 59.1231 5.86079 59.0149 5.79088C58.9086 5.71252 58.7753 5.65453 58.615 5.61689L57.8936 5.44755L57.9233 5.32098L61.0746 6.06075L61.045 6.18732L60.3236 6.01797C60.1633 5.98034 60.0181 5.97297 59.8881 5.99587C59.7666 6.02075 59.6572 6.08855 59.56 6.19927C59.4648 6.30156 59.3905 6.46661 59.3371 6.69443L57.4498 14.7441L56.8296 14.5986L53.2769 4.97804L51.5558 12.319C51.5023 12.5468 51.4946 12.7319 51.5324 12.8743C51.5722 13.0083 51.6452 13.1145 51.7515 13.1928C51.8577 13.2712 51.991 13.3292 52.1513 13.3668L52.9613 13.5569L52.9316 13.6835L49.7803 12.9437Z" fill="#D5A459"/>
<path d="M63.4064 17.8381C62.9839 17.5821 62.6418 17.3189 62.3798 17.0487C62.1298 16.7755 61.9496 16.5042 61.8393 16.2346C61.7334 15.9576 61.6884 15.6973 61.7043 15.4535C61.7275 15.2143 61.7998 14.9945 61.9209 14.7944C62.0511 14.5794 62.2047 14.4343 62.3819 14.3593C62.559 14.2842 62.7493 14.2627 62.9528 14.2948C63.1636 14.3314 63.3654 14.4081 63.5581 14.5249C63.1975 15.1374 62.971 15.6538 62.8786 16.0741C62.7937 16.4989 62.8235 16.8514 62.9679 17.1315C63.1124 17.4116 63.3403 17.646 63.6516 17.8347C64.1111 18.1132 64.5617 18.214 65.0034 18.1372C65.445 18.0603 65.8184 17.7698 66.1236 17.2656C66.3301 16.9246 66.4243 16.6016 66.4062 16.2968C66.4 15.989 66.304 15.6622 66.1182 15.3165C65.9398 14.9753 65.6932 14.5877 65.3784 14.1537C65.1376 13.8152 64.9346 13.4895 64.7695 13.1765C64.6117 12.8681 64.5 12.5673 64.4343 12.2742C64.3731 11.9736 64.3662 11.6755 64.4135 11.3798C64.4726 11.0812 64.5942 10.78 64.7782 10.476C65.052 10.0237 65.3929 9.70335 65.8008 9.51482C66.2206 9.32337 66.6822 9.26367 67.1857 9.33572C67.6936 9.40037 68.2218 9.5989 68.7703 9.93132C69.2298 10.2098 69.5867 10.5072 69.841 10.8235C70.0998 11.1324 70.2598 11.4371 70.321 11.7377C70.3822 12.0383 70.3409 12.3072 70.1973 12.5444C70.0492 12.7891 69.822 12.9301 69.5158 12.9674C69.2214 13.0018 68.8815 12.9022 68.4961 12.6686C68.909 11.9865 69.1179 11.424 69.1226 10.981C69.1348 10.5424 68.9186 10.1884 68.4739 9.91888C68.2441 9.77963 68.0023 9.69384 67.7483 9.66152C67.4943 9.6292 67.2415 9.67865 66.9898 9.80988C66.7501 9.93818 66.527 10.1729 66.3205 10.5139C66.132 10.8253 66.0334 11.1304 66.0248 11.4292C66.028 11.725 66.1166 12.0473 66.2906 12.3959C66.4645 12.7446 66.7243 13.1605 67.0701 13.6437C67.4055 14.1104 67.666 14.542 67.8516 14.9382C68.0447 15.339 68.1374 15.7297 68.1299 16.1102C68.1269 16.4834 68.0042 16.8701 67.7619 17.2705C67.4791 17.7376 67.1152 18.0794 66.67 18.296C66.2293 18.5052 65.7297 18.5774 65.1712 18.5125C64.6173 18.4403 64.029 18.2155 63.4064 17.8381Z" fill="#D5A459"/>
<path d="M69.6127 22.5833C68.918 21.9178 68.48 21.2222 68.2987 20.4965C68.1175 19.7708 68.1597 19.0372 68.4254 18.2956C68.6974 17.56 69.1659 16.8446 69.8309 16.1495C70.4959 15.4544 71.1867 14.958 71.9033 14.6603C72.6262 14.3687 73.3509 14.3007 74.0773 14.4566C74.8161 14.6122 75.5328 15.0227 76.2275 15.6881C76.8909 16.3236 77.3132 17.0042 77.4945 17.7299C77.6818 18.4494 77.6457 19.1829 77.3862 19.9305C77.1328 20.6718 76.6735 21.39 76.0085 22.0851C75.3435 22.7802 74.6434 23.2738 73.9083 23.5657C73.1792 23.8514 72.4453 23.9165 71.7065 23.7609C70.974 23.6113 70.2761 23.2188 69.6127 22.5833ZM69.712 22.4983C70.0061 22.7801 70.3195 22.9603 70.6521 23.0389C70.997 23.1172 71.3671 23.0877 71.7624 22.9503C72.1637 22.8066 72.6025 22.5549 73.0787 22.195C73.555 21.8351 74.0747 21.3608 74.6379 20.7722C75.201 20.1835 75.6489 19.6465 75.9815 19.1609C76.3201 18.6692 76.5493 18.2227 76.6692 17.8215C76.7952 17.4141 76.8117 17.0458 76.7187 16.7167C76.6317 16.3814 76.438 16.0699 76.1376 15.7821C75.8372 15.4943 75.5146 15.3113 75.1697 15.2329C74.8308 15.1484 74.4576 15.1749 74.05 15.3125C73.6547 15.4499 73.2189 15.6986 72.7427 16.0584C72.2787 16.4181 71.7651 16.8922 71.2019 17.4808C70.6387 18.0695 70.1847 18.6067 69.8399 19.0925C69.5014 19.5843 69.2691 20.0339 69.1432 20.4413C69.0295 20.8485 69.0161 21.2197 69.1031 21.5551C69.2023 21.8901 69.4053 22.2046 69.712 22.4983Z" fill="#D5A459"/>
<path d="M74.7821 29.0069C74.2719 28.1913 74.018 27.4096 74.0203 26.6616C74.0226 25.9136 74.2435 25.2127 74.683 24.559C75.1272 23.9127 75.7569 23.3342 76.5721 22.8235C77.3874 22.3128 78.1789 22.0011 78.9467 21.8884C79.719 21.783 80.4382 21.8949 81.1043 22.2242C81.7823 22.5563 82.3764 23.1301 82.8866 23.9457C83.3738 24.7245 83.6163 25.4879 83.614 26.2359C83.619 26.9792 83.4041 27.6815 82.9691 28.3425C82.5415 28.999 81.9201 29.5825 81.1048 30.0932C80.2896 30.6039 79.4898 30.9105 78.7055 31.0132C77.9286 31.1112 77.2011 30.9942 76.5231 30.6622C75.8497 30.3374 75.2694 29.7857 74.7821 29.0069ZM74.8992 28.9489C75.1152 29.2942 75.3748 29.5458 75.678 29.7036C75.9931 29.8641 76.3592 29.9263 76.7761 29.8901C77.2004 29.8493 77.6876 29.7129 78.2376 29.4809C78.7876 29.2488 79.4078 28.9166 80.0982 28.4841C80.7886 28.0517 81.3546 27.6409 81.7961 27.2519C82.245 26.8582 82.5768 26.4816 82.7915 26.1222C83.0135 25.7581 83.1198 25.4051 83.1104 25.0633C83.1084 24.7169 82.9971 24.3673 82.7764 24.0147C82.5558 23.662 82.2879 23.4054 81.9728 23.2449C81.665 23.0797 81.2967 23.0139 80.8678 23.0473C80.4508 23.0835 79.9674 23.2176 79.4174 23.4496C78.8793 23.6844 78.2651 24.018 77.5747 24.4505C76.8843 24.8829 76.3123 25.2923 75.8588 25.6786C75.41 26.0723 75.0745 26.4512 74.8525 26.8152C74.6424 27.1821 74.5383 27.5387 74.5404 27.8851C74.5544 28.2343 74.674 28.5889 74.8992 28.9489Z" fill="#D5A459"/>
<path d="M76.9272 32.0651L77.051 32.0255L77.2452 32.6321C77.2955 32.7889 77.3638 32.9172 77.4503 33.0169C77.5395 33.1248 77.6511 33.1891 77.7851 33.2099C77.9301 33.2362 78.1139 33.2137 78.3368 33.1423L85.294 30.912C85.5086 30.8432 85.659 30.7586 85.7451 30.6581C85.8422 30.5633 85.8915 30.4474 85.8931 30.3104C85.9056 30.1789 85.8868 30.0348 85.8366 29.878L85.6423 29.2713L85.7661 29.2316L86.6818 32.0916L81.3076 38.7973L87.2003 36.9083C87.4148 36.8395 87.5693 36.7535 87.6637 36.6505C87.7581 36.5474 87.8075 36.4315 87.8117 36.3027C87.8243 36.1713 87.8054 36.0271 87.7552 35.8703L87.5292 35.1646L87.653 35.1249L88.6401 38.2078L88.5163 38.2474L88.2903 37.5417C88.2401 37.3849 88.1718 37.2567 88.0853 37.157C88.0014 37.0655 87.887 37.0067 87.742 36.9803C87.6054 36.9513 87.4256 36.9725 87.2028 37.044L79.3294 39.568L79.1352 38.9613L85.5565 30.9643L78.3764 33.2661C78.1536 33.3375 77.9908 33.4261 77.8882 33.5318C77.7938 33.6349 77.7403 33.7521 77.7278 33.8835C77.7153 34.015 77.7341 34.1591 77.7844 34.3159L78.0381 35.1083L77.9143 35.148L76.9272 32.0651Z" fill="#D5A459"/>
<circle cx="47" cy="47" r="27" fill="#002B60"/>
</svg>
