<svg width="24" height="23" viewBox="0 0 24 23" fill="none" xmlns="http://www.w3.org/2000/svg">
<path d="M8.9 3.6C6.5 5.86666 5.26667 9.16667 5.2 13.5L9.6 14.1V22.8H0.4V18.7C0.4 15.4333 0.533333 12.7333 0.8 10.6C1.13333 8.13333 2.1 5.8 3.7 3.6C4.56667 2.46666 5.56667 1.5 6.7 0.699997L8.9 3.6ZM22.6 3.6C20.1333 5.66666 18.8667 8.96666 18.8 13.5L23.6 14.1V22.8H14.3V18.7C14.3 16.7 14.3667 15.1 14.5 13.9C14.5 13.1667 14.5333 12.4667 14.6 11.8C14.6667 10.8667 14.7667 10.1333 14.9 9.6C14.9 9.46666 14.9667 9.2 15.1 8.79999C15.2333 8.33333 15.3333 7.93333 15.4 7.6C15.4667 6.86667 15.7 6.2 16.1 5.6C16.5 4.93333 16.8333 4.36666 17.1 3.9C17.7 2.9 18.7667 1.83333 20.3 0.699997L22.6 3.6Z" fill="#002B60"/>
</svg>
